<svg width="400" height="212" viewBox="0 0 400 212" fill="none" xmlns="http://www.w3.org/2000/svg">
<g clip-path="url(#clip0_8513_88424)">
<path d="M117.589 192.74H283.874C286.196 192.74 288.079 190.857 288.079 188.535V36.2526C288.079 33.9306 286.196 32.0469 283.874 32.0469H117.589C115.268 32.0469 113.385 33.9306 113.385 36.2526V188.535C113.385 190.857 115.268 192.74 117.589 192.74Z" fill="#C9CFEA"/>
<path d="M139.689 172.308H261.56C263.882 172.308 265.765 170.425 265.765 168.103V56.6784C265.765 54.3564 263.882 52.4727 261.56 52.4727H139.689C137.368 52.4727 135.484 54.3564 135.484 56.6784V168.103C135.484 170.425 137.368 172.308 139.689 172.308Z" fill="black"/>
<path d="M261.561 173.463H139.69C136.738 173.463 134.332 171.056 134.332 168.104V56.6793C134.332 53.7269 136.738 51.3203 139.69 51.3203H261.561C264.513 51.3203 266.919 53.7269 266.919 56.6793V168.104C266.919 171.056 264.513 173.463 261.561 173.463ZM139.69 53.6269C138.006 53.6269 136.638 54.9955 136.638 56.6793V168.104C136.638 169.787 138.006 171.156 139.69 171.156H261.561C263.244 171.156 264.613 169.787 264.613 168.104V56.6793C264.613 54.9955 263.244 53.6269 261.561 53.6269H139.69Z" fill="black"/>
<path d="M185.655 154.217L185.071 147.436L185.716 147.128L185.832 138.709C171.957 139.778 156.361 142.3 142.779 137.379C142.863 140.393 142.748 143.776 142.817 146.79L142.756 146.767C142.871 150.165 142.756 154.04 142.817 157.423H142.794C142.771 158.108 142.748 159.522 142.748 160.214H142.81C142.825 163.005 142.756 166.211 142.833 169.01C149.09 172.047 157.699 171.432 164.278 171.763C170.85 171.424 179.444 172.047 185.701 169.01C185.747 165.435 185.732 161.606 185.686 158.031L185.801 157.985L185.655 154.217V154.217Z" fill="#FCD400"/>
<path d="M164.493 172.882H164.362C162.817 172.797 161.242 172.767 159.574 172.736C153.878 172.636 147.982 172.536 142.725 170.091L142.056 169.076C142.017 167.492 142.025 165.793 142.033 164.155C142.041 162.533 142.056 160.857 142.01 159.304L144.316 159.242C144.354 160.826 144.346 162.525 144.339 164.163C144.331 165.532 144.323 166.946 144.339 168.284C149.012 170.245 154.393 170.337 159.604 170.429C161.272 170.46 162.848 170.483 164.416 170.575C165.984 170.491 167.56 170.46 169.228 170.429C174.44 170.337 179.82 170.245 184.494 168.284C184.517 166.969 184.509 165.585 184.494 164.24C184.486 162.625 184.471 160.949 184.517 159.388L186.823 159.45C186.784 160.972 186.792 162.625 186.8 164.224C186.807 165.839 186.823 167.515 186.777 169.076L186.108 170.091C180.843 172.536 174.955 172.636 169.259 172.736C167.591 172.767 166.015 172.79 164.47 172.882H164.493Z" fill="black"/>
<path d="M164.492 172.883H164.362C162.817 172.798 161.241 172.767 159.573 172.736C153.877 172.637 147.981 172.537 142.724 170.092L142.055 169.123C141.994 168.262 142.024 163.956 142.055 159.627C142.055 158.674 142.07 157.943 142.07 157.613H144.376C144.376 157.943 144.376 158.682 144.361 159.643C144.346 162.157 144.307 166.509 144.338 168.285C149.011 170.245 154.4 170.338 159.611 170.43C161.279 170.461 162.855 170.484 164.423 170.576C165.991 170.491 167.567 170.461 169.235 170.43C174.446 170.338 179.827 170.245 184.493 168.292C184.524 165.348 184.524 161.765 184.524 158.582V155.645H186.83V158.582C186.83 162.049 186.83 165.986 186.791 169.069L186.122 170.099C180.857 172.544 174.969 172.644 169.273 172.744C167.605 172.775 166.03 172.798 164.485 172.89L164.492 172.883Z" fill="black"/>
<path d="M164.493 161.904H164.362C162.817 161.819 161.242 161.788 159.574 161.758C153.878 161.658 147.982 161.558 142.725 159.113L142.056 158.09C142.017 156.137 142.025 153.938 142.033 151.816C142.041 149.686 142.048 147.487 142.01 145.534L144.316 145.488C144.354 147.472 144.346 149.686 144.339 151.824C144.339 153.669 144.323 155.568 144.346 157.306C149.02 159.266 154.401 159.359 159.612 159.451C161.28 159.482 162.856 159.505 164.424 159.597C165.992 159.512 167.568 159.482 169.236 159.451C174.447 159.359 179.828 159.266 184.501 157.306C184.525 155.668 184.517 153.907 184.509 152.193C184.501 150.194 184.494 148.125 184.532 146.242L186.838 146.288C186.8 148.141 186.807 150.194 186.815 152.177C186.823 154.161 186.83 156.214 186.792 158.082L186.123 159.105C180.858 161.55 174.97 161.65 169.274 161.75C167.606 161.781 166.03 161.804 164.485 161.896L164.493 161.904Z" fill="black"/>
<path d="M164.493 151.301H164.362C162.817 151.216 161.241 151.185 159.573 151.155C153.878 151.055 147.982 150.955 142.724 148.51L142.056 147.495C142.01 146.011 142.025 144.427 142.033 142.897C142.04 141.236 142.056 139.514 141.994 137.938L142.97 136.754L146.076 136.262L146.437 138.545L144.331 138.876C144.354 140.198 144.346 141.575 144.339 142.905C144.331 144.166 144.323 145.465 144.339 146.695C149.012 148.656 154.393 148.748 159.604 148.84C161.272 148.871 162.848 148.894 164.416 148.986C165.984 148.902 167.56 148.871 169.228 148.84C174.439 148.748 179.82 148.656 184.486 146.703C184.486 146.119 184.494 145.504 184.501 144.888C184.517 142.997 184.524 141.044 184.586 139.26L183.971 139.276L183.925 136.969L185.769 136.931L186.946 138.145C186.838 140.198 186.823 142.59 186.807 144.911C186.807 145.803 186.792 146.672 186.784 147.487L186.115 148.517C180.85 150.962 174.962 151.062 169.266 151.162C167.598 151.193 166.023 151.216 164.478 151.308L164.493 151.301Z" fill="black"/>
<path d="M185.655 138.058C179.113 135.021 171.25 135.752 164.44 135.375C157.622 135.752 149.766 135.021 143.225 138.058C149.766 141.095 157.629 140.365 164.44 140.742C171.258 140.365 179.113 141.095 185.655 138.058V138.058Z" fill="black"/>
<path d="M164.37 141.896C162.825 141.811 161.25 141.781 159.582 141.75C153.886 141.65 147.99 141.55 142.732 139.105V137.014C147.998 134.569 153.886 134.469 159.582 134.369C161.25 134.338 162.825 134.315 164.37 134.223H164.501C166.046 134.307 167.622 134.338 169.29 134.369C174.986 134.469 180.881 134.569 186.139 137.014V139.105C180.873 141.55 174.986 141.65 169.29 141.75C167.622 141.781 166.046 141.804 164.501 141.896H164.37ZM146.491 138.059C150.627 139.29 155.185 139.366 159.62 139.443C161.288 139.474 162.864 139.497 164.432 139.589C166 139.505 167.576 139.474 169.244 139.443C173.679 139.366 178.237 139.29 182.372 138.059C178.237 136.829 173.679 136.752 169.244 136.675C167.576 136.645 166 136.622 164.432 136.529C162.864 136.614 161.288 136.645 159.62 136.675C155.185 136.752 150.627 136.829 146.491 138.059V138.059Z" fill="black"/>
<path d="M185.655 123.198L185.071 116.416L185.716 116.109L185.832 107.69C171.957 108.758 156.361 111.28 142.779 106.359C142.863 109.373 142.748 112.756 142.817 115.77L142.756 115.747C142.871 119.146 142.756 123.021 142.817 126.404H142.794C142.771 127.088 142.748 128.503 142.748 129.195H142.81C142.825 131.986 142.756 135.192 142.833 137.991C149.09 141.028 157.699 140.413 164.278 140.743C170.85 140.405 179.444 141.028 185.701 137.991C185.747 134.415 185.732 130.586 185.686 127.011L185.801 126.965L185.655 123.198Z" fill="#FCD400"/>
<path d="M164.493 141.878H164.362C162.817 141.793 161.242 141.763 159.574 141.732C153.878 141.632 147.982 141.532 142.725 139.087L142.056 138.072C142.017 136.488 142.025 134.789 142.033 133.151C142.041 131.529 142.056 129.853 142.01 128.3L144.316 128.238C144.354 129.822 144.346 131.521 144.339 133.159C144.331 134.528 144.323 135.942 144.339 137.28C149.012 139.241 154.393 139.333 159.604 139.425C161.272 139.456 162.848 139.479 164.416 139.571C165.984 139.487 167.56 139.456 169.228 139.425C174.44 139.333 179.82 139.241 184.494 137.28C184.517 135.965 184.509 134.581 184.494 133.236C184.486 131.621 184.471 129.945 184.517 128.384L186.823 128.446C186.784 129.968 186.792 131.621 186.8 133.221C186.807 134.835 186.823 136.511 186.777 138.072L186.108 139.087C180.843 141.532 174.955 141.632 169.259 141.732C167.591 141.763 166.015 141.786 164.47 141.878H164.493Z" fill="black"/>
<path d="M164.494 141.879H164.364C162.819 141.794 161.243 141.763 159.575 141.733C153.879 141.633 147.983 141.533 142.726 139.088L142.057 138.119C141.995 137.258 142.026 132.952 142.057 128.623C142.057 127.67 142.072 126.94 142.072 126.609H144.378C144.378 126.94 144.378 127.678 144.363 128.639C144.348 131.153 144.309 135.505 144.34 137.281C149.013 139.241 154.402 139.334 159.613 139.426C161.281 139.457 162.857 139.48 164.425 139.572C165.993 139.487 167.569 139.457 169.237 139.426C174.448 139.334 179.829 139.241 184.495 137.289C184.526 134.344 184.526 130.761 184.526 127.578V124.641H186.832V127.578C186.832 131.045 186.832 134.982 186.793 138.065L186.124 139.095C180.859 141.54 174.971 141.64 169.275 141.74C167.607 141.771 166.032 141.794 164.487 141.886L164.494 141.879Z" fill="black"/>
<path d="M164.493 130.888H164.362C162.817 130.803 161.242 130.773 159.574 130.742C153.878 130.642 147.982 130.542 142.725 128.097L142.056 127.074C142.017 125.121 142.025 122.923 142.033 120.8C142.041 118.671 142.048 116.472 142.01 114.519L144.316 114.473C144.354 116.456 144.346 118.671 144.339 120.808C144.339 122.653 144.323 124.553 144.346 126.29C149.02 128.251 154.401 128.343 159.612 128.435C161.28 128.466 162.856 128.489 164.424 128.581C165.992 128.497 167.568 128.466 169.236 128.435C174.447 128.343 179.828 128.251 184.501 126.29C184.525 124.652 184.517 122.892 184.509 121.177C184.501 119.178 184.494 117.11 184.532 115.226L186.838 115.272C186.8 117.125 186.807 119.178 186.815 121.162C186.823 123.145 186.83 125.198 186.792 127.067L186.123 128.089C180.858 130.534 174.97 130.634 169.274 130.734C167.606 130.765 166.03 130.788 164.485 130.88L164.493 130.888Z" fill="black"/>
<path d="M164.493 120.289H164.362C162.817 120.204 161.241 120.174 159.573 120.143C153.878 120.043 147.982 119.943 142.724 117.498L142.056 116.483C142.01 114.999 142.025 113.415 142.033 111.885C142.04 110.225 142.056 108.502 141.994 106.926L142.97 105.742L146.076 105.25L146.437 107.534L144.331 107.864C144.354 109.187 144.346 110.563 144.339 111.893C144.331 113.154 144.323 114.453 144.339 115.684C149.012 117.644 154.393 117.736 159.604 117.829C161.272 117.859 162.848 117.883 164.416 117.975C165.984 117.89 167.56 117.859 169.228 117.829C174.439 117.736 179.82 117.644 184.486 115.691C184.486 115.107 184.494 114.492 184.501 113.869C184.517 111.978 184.524 110.025 184.586 108.241L183.971 108.256L183.925 105.95L185.769 105.911L186.946 107.126C186.838 109.179 186.823 111.57 186.807 113.892C186.807 114.784 186.792 115.66 186.784 116.468L186.115 117.498C180.85 119.943 174.962 120.043 169.266 120.143C167.598 120.174 166.023 120.204 164.478 120.289H164.493Z" fill="black"/>
<path d="M185.655 107.054C179.113 104.017 171.25 104.748 164.44 104.371C157.622 104.748 149.766 104.017 143.225 107.054C149.766 110.091 157.629 109.361 164.44 109.738C171.258 109.361 179.113 110.091 185.655 107.054V107.054Z" fill="white"/>
<path d="M164.37 110.888C162.825 110.804 161.25 110.773 159.582 110.742C153.886 110.642 147.99 110.542 142.732 108.097V106.006C147.998 103.561 153.886 103.461 159.582 103.361C161.25 103.33 162.825 103.307 164.37 103.215H164.501C166.046 103.299 167.622 103.33 169.29 103.361C174.986 103.461 180.881 103.561 186.139 106.006V108.097C180.873 110.542 174.986 110.642 169.29 110.742C167.622 110.773 166.046 110.796 164.501 110.888H164.37ZM146.491 107.051C150.627 108.282 155.185 108.359 159.62 108.435C161.288 108.466 162.864 108.489 164.432 108.582C166 108.497 167.576 108.466 169.244 108.435C173.679 108.359 178.237 108.282 182.372 107.051C178.237 105.821 173.679 105.744 169.244 105.668C167.576 105.637 166 105.614 164.432 105.521C162.864 105.606 161.288 105.637 159.62 105.668C155.185 105.744 150.627 105.821 146.491 107.051V107.051Z" fill="black"/>
<circle cx="6.26141" cy="6.26141" r="6.26141" transform="matrix(0.247051 0.969003 0.969003 -0.247051 140.863 92.0977)" fill="#C9CFEA"/>
<circle cx="6.26141" cy="6.26141" r="6.26141" transform="matrix(-0.247051 -0.969003 -0.969003 0.247051 187.318 119.312)" fill="#C9CFEA"/>
<path d="M177.133 113.281C176.831 113.908 176.604 115.343 178.109 116.067" stroke="black" stroke-width="1.15317"/>
<path d="M151.169 112.544C156.477 112.544 160.78 116.847 160.78 122.155C160.78 127.463 156.477 131.766 151.169 131.766C145.861 131.766 141.559 127.463 141.559 122.155C141.559 116.847 145.861 112.544 151.169 112.544Z" fill="#FCD400"/>
<path d="M150.987 119.691C150.557 119.683 150.14 119.833 149.812 120.11C149.145 120.709 148.803 121.589 148.893 122.481C149.029 123.645 149.682 124.348 150.832 124.579C151.534 124.715 152.51 124.73 153.169 124.369C153.37 124.253 153.44 123.996 153.324 123.794C153.208 123.593 152.951 123.523 152.749 123.639C152.329 123.878 151.539 123.872 150.985 123.765C150.194 123.612 149.814 123.203 149.726 122.399C149.673 121.788 149.906 121.188 150.355 120.771C150.884 120.331 151.646 120.616 152.583 121.038L152.877 121.168C153.016 121.235 153.181 121.221 153.306 121.131C153.432 121.04 153.497 120.888 153.477 120.735C153.456 120.582 153.353 120.452 153.208 120.398L152.925 120.272C152.386 120.008 151.679 119.691 150.987 119.691Z" fill="#E2B420"/>
<path d="M151.598 117.869C151.373 117.869 151.188 118.047 151.179 118.272C151.179 118.282 151.137 119.294 151.063 119.919C151.046 120.069 151.11 120.217 151.231 120.307C151.352 120.397 151.512 120.416 151.65 120.356C151.789 120.296 151.885 120.167 151.903 120.017C151.98 119.361 152.022 118.35 152.024 118.306C152.029 118.194 151.989 118.086 151.913 118.004C151.838 117.922 151.733 117.874 151.621 117.869L151.598 117.869Z" fill="#E2B420"/>
<path d="M151.228 123.787C151.004 123.787 150.819 123.963 150.809 124.188C150.777 124.893 150.809 125.99 150.809 126.036C150.813 126.186 150.896 126.323 151.028 126.394C151.159 126.466 151.319 126.462 151.447 126.384C151.575 126.306 151.652 126.165 151.648 126.015C151.648 126.005 151.621 124.899 151.648 124.223C151.658 123.992 151.478 123.797 151.247 123.787L151.228 123.787Z" fill="#E2B420"/>
<path d="M153.912 114.565C153.703 114.565 153.526 114.719 153.496 114.926C153.467 115.132 153.594 115.329 153.794 115.388C155.33 115.841 156.599 116.93 157.462 118.535C158.511 120.505 158.783 122.98 158.139 124.841C158.063 125.06 158.179 125.299 158.398 125.375C158.617 125.451 158.856 125.335 158.932 125.116C159.65 123.043 159.362 120.303 158.202 118.138C157.231 116.326 155.787 115.094 154.031 114.572C153.992 114.565 153.952 114.562 153.912 114.565Z" fill="#E2B420"/>
<path d="M151.423 113.85C151.192 113.828 150.986 113.997 150.963 114.229C150.94 114.46 151.11 114.666 151.341 114.689L151.478 114.716C151.626 114.75 151.781 114.7 151.883 114.587C151.985 114.474 152.017 114.314 151.967 114.17C151.917 114.026 151.793 113.921 151.643 113.894L151.505 113.867C151.478 113.858 151.451 113.853 151.423 113.85Z" fill="#E2B420"/>
<path d="M144.548 126.023C144.395 126.024 144.254 126.108 144.18 126.242C144.107 126.377 144.113 126.541 144.195 126.67C145.011 127.846 146.073 128.832 147.307 129.559C148.474 130.154 149.756 130.492 151.066 130.547C151.298 130.554 151.492 130.372 151.499 130.141C151.507 129.909 151.325 129.715 151.093 129.707C149.917 129.656 148.765 129.354 147.714 128.822C146.601 128.164 145.643 127.276 144.902 126.216C144.825 126.096 144.691 126.023 144.548 126.023Z" fill="#E2B420"/>
<path d="M150.137 127.546C153.495 127.825 155.454 130.624 156.014 132.863C156.574 130.064 159.093 128.105 161.612 127.266C157.973 126.706 156.294 123.627 156.014 121.108C155.734 123.627 153.775 126.706 150.137 127.546Z" fill="white"/>
<ellipse cx="180.71" cy="81.1479" rx="17.4057" ry="17.7783" transform="rotate(-104.303 180.71 81.1479)" fill="#FCD400"/>
<ellipse cx="180.709" cy="81.1383" rx="13.0543" ry="13.3337" transform="rotate(-104.303 180.709 81.1383)" stroke="white" stroke-width="1.15317"/>
<path d="M177.484 68.4938C170.349 70.313 166.008 77.4513 167.789 84.4375" stroke="#E2B420" stroke-width="1.15317" stroke-linecap="round"/>
<path d="M193.629 77.8453C195.41 84.8315 191.069 91.9698 183.934 93.7891" stroke="#E2B420" stroke-width="1.15317" stroke-linecap="round"/>
<path d="M193.017 72.8203C192.58 78.0637 188.21 81.1223 184.715 81.9959C189.084 82.8701 192.143 86.8026 193.454 90.7352C194.328 85.0548 199.134 82.4332 203.067 81.9959C199.134 81.5593 194.328 78.5006 193.017 72.8203Z" fill="white"/>
<ellipse cx="144.821" cy="71.7588" rx="8.08777" ry="8.2609" transform="rotate(-104.303 144.821 71.7588)" fill="#FCD400"/>
<ellipse cx="144.821" cy="71.7478" rx="6.06583" ry="6.19568" transform="rotate(-104.303 144.821 71.7478)" stroke="white" stroke-width="1.15317"/>
<path d="M143.321 65.865C140.006 66.7103 137.989 70.0272 138.816 73.2734" stroke="#E2B420" stroke-width="1.15317" stroke-linecap="round"/>
<path d="M150.825 70.2205C151.653 73.4667 149.636 76.7836 146.32 77.6289" stroke="#E2B420" stroke-width="1.15317" stroke-linecap="round"/>
<path d="M145.349 73.3048C145.755 75.7158 144.138 77.5946 142.665 78.3892C144.732 78.2812 146.561 79.7008 147.603 81.3209C147.344 78.663 149.207 76.9308 150.928 76.2825C149.107 76.5373 146.592 75.7119 145.349 73.3048Z" fill="white"/>
<path d="M141.763 171.891H259.702C262.755 171.891 265.232 170.02 265.232 167.714V57.067C265.232 54.7612 262.755 52.8906 259.702 52.8906H141.763C138.71 52.8906 136.232 54.7612 136.232 57.067V167.714C136.232 170.02 138.71 171.891 141.763 171.891Z" fill="#C9CFEA"/>
<path d="M261.406 100.195H270.115V125.291H261.406V100.195Z" fill="white"/>
</g>
<path d="M199.522 103.292H201.102C203.304 103.292 205.09 101.506 205.09 99.3036V87.8788C205.09 85.6762 203.304 83.8906 201.102 83.8906H199.522C197.32 83.8906 195.534 85.6762 195.534 87.8788V99.3036C195.534 101.506 197.32 103.292 199.522 103.292Z" fill="white"/>
<path d="M199.522 140.792H201.102C203.304 140.792 205.09 139.006 205.09 136.804V125.379C205.09 123.176 203.304 121.391 201.102 121.391H199.522C197.32 121.391 195.534 123.176 195.534 125.379V136.804C195.534 139.006 197.32 140.792 199.522 140.792Z" fill="white"/>
<path d="M191.633 112.525V110.945C191.633 108.743 189.847 106.957 187.645 106.957H176.22C174.017 106.957 172.232 108.743 172.232 110.945V112.525C172.232 114.727 174.017 116.513 176.22 116.513H187.645C189.847 116.513 191.633 114.727 191.633 112.525Z" fill="white"/>
<path d="M229.133 112.525V110.945C229.133 108.743 227.347 106.957 225.145 106.957H213.72C211.517 106.957 209.732 108.743 209.732 110.945V112.525C209.732 114.727 211.517 116.513 213.72 116.513H225.145C227.347 116.513 229.133 114.727 229.133 112.525Z" fill="white"/>
<path d="M206.69 104.828L207.807 105.945C209.364 107.502 211.889 107.502 213.447 105.945L221.525 97.8664C223.083 96.309 223.083 93.7838 221.525 92.2263L220.408 91.1095C218.851 89.552 216.326 89.552 214.768 91.1095L206.69 99.188C205.132 100.745 205.132 103.271 206.69 104.828Z" fill="white"/>
<path d="M180.08 131.246L181.197 132.363C182.755 133.92 185.28 133.92 186.837 132.363L194.916 124.284C196.473 122.727 196.473 120.202 194.916 118.644L193.799 117.527C192.242 115.97 189.716 115.97 188.159 117.527L180.08 125.606C178.523 127.164 178.523 129.689 180.08 131.246Z" fill="white"/>
<path d="M194.424 104.828L193.307 105.945C191.749 107.502 189.224 107.502 187.667 105.945L179.588 97.8664C178.031 96.309 178.031 93.7838 179.588 92.2263L180.705 91.1095C182.263 89.552 184.788 89.552 186.345 91.1095L194.424 99.188C195.981 100.745 195.981 103.271 194.424 104.828Z" fill="white"/>
<path d="M221.033 131.246L219.916 132.363C218.359 133.92 215.834 133.92 214.276 132.363L206.198 124.284C204.64 122.727 204.64 120.202 206.198 118.644L207.314 117.527C208.872 115.97 211.397 115.97 212.955 117.527L221.033 125.606C222.591 127.164 222.591 129.689 221.033 131.246Z" fill="white"/>
<path d="M200.312 131.127C189.602 131.127 180.92 122.445 180.92 111.735C180.92 101.026 189.602 92.3438 200.312 92.3438C211.021 92.3438 219.703 101.026 219.703 111.735C219.703 122.445 211.021 131.127 200.312 131.127Z" fill="white"/>
<path d="M200.31 121.239C195.063 121.239 190.808 116.984 190.808 111.736C190.808 106.489 195.063 102.234 200.31 102.234C205.558 102.234 209.812 106.489 209.812 111.736C209.812 116.984 205.558 121.239 200.31 121.239Z" fill="black"/>
<g style="mix-blend-mode:multiply">
<circle cx="6.18474" cy="6.18474" r="6.18474" transform="matrix(0.247051 0.969003 0.969003 -0.247051 300.734 61.7305)" fill="#C9CFEA"/>
</g>
<circle cx="6.26141" cy="6.26141" r="6.26141" transform="matrix(0.247051 0.969003 0.969003 -0.247051 302.277 62.8633)" fill="#D0D6F1"/>
<circle cx="6.26141" cy="6.26141" r="6.26141" transform="matrix(-0.247051 -0.969003 -0.969003 0.247051 345.732 90.3125)" fill="#C9CFEA"/>
<path d="M335.547 84.2812C335.245 84.9082 335.018 86.343 336.523 87.067" stroke="black" stroke-width="1.15317"/>
<path d="M309.583 102.768C304.275 102.768 299.972 98.4654 299.972 93.1576C299.972 87.8497 304.275 83.5469 309.583 83.5469C314.89 83.5469 319.193 87.8497 319.193 93.1576C319.193 98.4654 314.89 102.768 309.583 102.768Z" fill="#FCD400"/>
<path d="M306.84 100.747C307.049 100.747 307.226 100.593 307.256 100.387C307.285 100.18 307.158 99.9831 306.958 99.9246C305.422 99.4714 304.153 98.3826 303.29 96.7777C302.241 94.8077 301.969 92.3321 302.613 90.4712C302.689 90.2523 302.573 90.0132 302.354 89.9373C302.135 89.8614 301.896 89.9774 301.82 90.1964C301.102 92.2692 301.39 95.0091 302.55 97.1742C303.521 98.9868 304.965 100.218 306.721 100.741C306.76 100.748 306.8 100.75 306.84 100.747Z" fill="#E2B420"/>
<path d="M309.329 101.462C309.56 101.485 309.766 101.316 309.789 101.084C309.812 100.852 309.642 100.646 309.411 100.624L309.274 100.596C309.126 100.563 308.971 100.612 308.869 100.725C308.767 100.839 308.735 100.998 308.785 101.142C308.835 101.286 308.959 101.392 309.109 101.418L309.247 101.446C309.273 101.454 309.301 101.46 309.329 101.462Z" fill="#E2B420"/>
<path d="M316.204 89.289C316.357 89.2888 316.498 89.2049 316.572 89.0704C316.645 88.9358 316.639 88.7719 316.557 88.6429C315.741 87.4662 314.679 86.4805 313.445 85.754C312.278 85.158 310.995 84.821 309.686 84.7659C309.454 84.7583 309.26 84.9401 309.253 85.1718C309.245 85.4035 309.427 85.5975 309.659 85.605C310.835 85.657 311.987 85.9588 313.038 86.4904C314.151 87.1485 315.109 88.0369 315.85 89.096C315.927 89.2167 316.061 89.2895 316.204 89.289Z" fill="#E2B420"/>
<path d="M308.551 98.5456C311.909 98.8254 313.869 101.624 314.428 103.863C314.988 101.064 317.507 99.1053 320.026 98.2657C316.387 97.7059 314.708 94.6272 314.428 92.1083C314.148 94.6272 312.189 97.7059 308.551 98.5456Z" fill="white"/>
<ellipse cx="339.124" cy="52.1479" rx="17.4057" ry="17.7783" transform="rotate(-104.303 339.124 52.1479)" fill="#FCD400"/>
<ellipse cx="339.123" cy="52.1422" rx="13.0543" ry="13.3337" transform="rotate(-104.303 339.123 52.1422)" stroke="white" stroke-width="0.5"/>
<path d="M335.898 39.4977C328.763 41.317 324.422 48.4552 326.203 55.4414" stroke="#E2B420" stroke-width="0.5" stroke-linecap="round"/>
<path d="M352.043 48.8453C353.824 55.8315 349.483 62.9698 342.348 64.7891" stroke="#E2B420" stroke-width="0.5" stroke-linecap="round"/>
<path d="M351.431 43.8203C350.994 49.0637 346.624 52.1223 343.129 52.9959C347.498 53.8701 350.557 57.8026 351.868 61.7352C352.742 56.0548 357.548 53.4332 361.481 52.9959C357.548 52.5593 352.742 49.5006 351.431 43.8203Z" fill="white"/>
<ellipse cx="303.235" cy="42.7588" rx="8.08777" ry="8.2609" transform="rotate(-104.303 303.235 42.7588)" fill="#FCD400"/>
<ellipse cx="303.237" cy="42.7478" rx="6.06583" ry="6.19568" transform="rotate(-104.303 303.237 42.7478)" stroke="white" stroke-width="0.5"/>
<path d="M301.737 36.865C298.422 37.7103 296.405 41.0272 297.232 44.2734" stroke="#E2B420" stroke-width="0.5" stroke-linecap="round"/>
<path d="M309.241 41.2205C310.069 44.4667 308.052 47.7836 304.736 48.6289" stroke="#E2B420" stroke-width="0.5" stroke-linecap="round"/>
<path d="M303.763 44.3048C304.169 46.7158 302.552 48.5946 301.079 49.3892C303.146 49.2812 304.975 50.7008 306.017 52.3209C305.758 49.663 307.621 47.9308 309.342 47.2825C307.521 47.5373 305.006 46.7119 303.763 44.3048Z" fill="white"/>
<defs>
<clipPath id="clip0_8513_88424">
<rect width="177" height="163" fill="white" transform="translate(112.232 30.8906)"/>
</clipPath>
</defs>
</svg>
