<svg width="400" height="212" viewBox="0 0 400 212" fill="none" xmlns="http://www.w3.org/2000/svg">
<g style="mix-blend-mode:multiply">
<circle cx="6.18474" cy="6.18474" r="6.18474" transform="matrix(0.247051 0.969003 0.969003 -0.247051 296.734 52.918)" fill="#C9CFEA"/>
</g>
<circle cx="6.26141" cy="6.26141" r="6.26141" transform="matrix(0.247051 0.969003 0.969003 -0.247051 298.277 54.0508)" fill="#D0D6F1"/>
<circle cx="6.26141" cy="6.26141" r="6.26141" transform="matrix(-0.247051 -0.969003 -0.969003 0.247051 341.732 81.5)" fill="#C9CFEA"/>
<path d="M331.547 75.4688C331.245 76.0957 331.018 77.5305 332.523 78.2545" stroke="black" stroke-width="1.15317"/>
<path d="M305.583 93.9558C300.275 93.9558 295.972 89.6529 295.972 84.3451C295.972 79.0372 300.275 74.7344 305.583 74.7344C310.89 74.7344 315.193 79.0372 315.193 84.3451C315.193 89.6529 310.89 93.9558 305.583 93.9558Z" fill="#FCD400"/>
<path d="M302.84 91.9345C303.049 91.9345 303.226 91.781 303.256 91.5743C303.285 91.3675 303.158 91.1706 302.958 91.1121C301.422 90.6589 300.153 89.5701 299.29 87.9652C298.241 85.9952 297.969 83.5196 298.613 81.6587C298.689 81.4398 298.573 81.2007 298.354 81.1248C298.135 81.0489 297.896 81.1649 297.82 81.3839C297.102 83.4567 297.39 86.1966 298.55 88.3617C299.521 90.1743 300.965 91.4058 302.721 91.9282C302.76 91.9354 302.8 91.9375 302.84 91.9345Z" fill="#E2B420"/>
<path d="M305.329 92.6499C305.56 92.6725 305.766 92.503 305.789 92.2714C305.812 92.0398 305.642 91.8337 305.411 91.8111L305.274 91.7839C305.126 91.7501 304.971 91.7996 304.869 91.913C304.767 92.0264 304.735 92.186 304.785 92.3299C304.835 92.4738 304.959 92.5794 305.109 92.6059L305.247 92.6331C305.273 92.6418 305.301 92.6475 305.329 92.6499Z" fill="#E2B420"/>
<path d="M312.204 80.4765C312.357 80.4763 312.498 80.3924 312.572 80.2579C312.645 80.1233 312.639 79.9594 312.557 79.8304C311.741 78.6537 310.679 77.668 309.445 76.9415C308.278 76.3455 306.995 76.0085 305.686 75.9534C305.454 75.9458 305.26 76.1276 305.253 76.3593C305.245 76.591 305.427 76.785 305.659 76.7925C306.835 76.8445 307.987 77.1463 309.038 77.6779C310.151 78.336 311.109 79.2244 311.85 80.2835C311.927 80.4042 312.061 80.477 312.204 80.4765Z" fill="#E2B420"/>
<path d="M304.551 89.7331C307.909 90.0129 309.869 92.8117 310.428 95.0508C310.988 92.252 313.507 90.2928 316.026 89.4532C312.387 88.8934 310.708 85.8147 310.428 83.2958C310.148 85.8147 308.189 88.8934 304.551 89.7331Z" fill="white"/>
<ellipse cx="335.124" cy="43.3354" rx="17.4057" ry="17.7783" transform="rotate(-104.303 335.124 43.3354)" fill="#FCD400"/>
<ellipse cx="335.123" cy="43.3297" rx="13.0543" ry="13.3337" transform="rotate(-104.303 335.123 43.3297)" stroke="white" stroke-width="0.5"/>
<path d="M331.898 30.6852C324.763 32.5045 320.422 39.6427 322.203 46.6289" stroke="#E2B420" stroke-width="0.5" stroke-linecap="round"/>
<path d="M348.043 40.0328C349.824 47.019 345.483 54.1573 338.348 55.9766" stroke="#E2B420" stroke-width="0.5" stroke-linecap="round"/>
<path d="M347.431 35.0078C346.994 40.2512 342.624 43.3098 339.129 44.1834C343.498 45.0576 346.557 48.9901 347.868 52.9227C348.742 47.2423 353.548 44.6207 357.481 44.1834C353.548 43.7468 348.742 40.6881 347.431 35.0078Z" fill="white"/>
<ellipse cx="299.235" cy="33.9463" rx="8.08777" ry="8.2609" transform="rotate(-104.303 299.235 33.9463)" fill="#FCD400"/>
<ellipse cx="299.237" cy="33.9353" rx="6.06583" ry="6.19568" transform="rotate(-104.303 299.237 33.9353)" stroke="white" stroke-width="0.5"/>
<path d="M297.737 28.0525C294.422 28.8978 292.405 32.2147 293.232 35.4609" stroke="#E2B420" stroke-width="0.5" stroke-linecap="round"/>
<path d="M305.241 32.408C306.069 35.6542 304.052 38.9711 300.736 39.8164" stroke="#E2B420" stroke-width="0.5" stroke-linecap="round"/>
<path d="M299.763 35.4923C300.169 37.9033 298.552 39.7821 297.079 40.5767C299.146 40.4687 300.975 41.8883 302.017 43.5084C301.758 40.8505 303.621 39.1183 305.342 38.47C303.521 38.7248 301.006 37.8994 299.763 35.4923Z" fill="white"/>
<g clip-path="url(#clip0_8513_87578)">
<path d="M113.589 183.928H279.874C282.196 183.928 284.079 182.044 284.079 179.722V27.4401C284.079 25.1181 282.196 23.2344 279.874 23.2344H113.589C111.268 23.2344 109.385 25.1181 109.385 27.4401V179.722C109.385 182.044 111.268 183.928 113.589 183.928Z" fill="#C9CFEA"/>
<path d="M135.689 163.496H257.56C259.882 163.496 261.765 161.612 261.765 159.29V47.8659C261.765 45.5439 259.882 43.6602 257.56 43.6602H135.689C133.368 43.6602 131.484 45.5439 131.484 47.8659V159.29C131.484 161.612 133.368 163.496 135.689 163.496Z" fill="black"/>
<path d="M257.561 164.65H135.69C132.738 164.65 130.332 162.244 130.332 159.291V47.8668C130.332 44.9144 132.738 42.5078 135.69 42.5078H257.561C260.513 42.5078 262.919 44.9144 262.919 47.8668V159.291C262.919 162.244 260.513 164.65 257.561 164.65ZM135.69 44.8144C134.006 44.8144 132.638 46.183 132.638 47.8668V159.291C132.638 160.975 134.006 162.344 135.69 162.344H257.561C259.244 162.344 260.613 160.975 260.613 159.291V47.8668C260.613 46.183 259.244 44.8144 257.561 44.8144H135.69Z" fill="black"/>
<path d="M181.655 145.405L181.071 138.623L181.716 138.316L181.832 129.897C167.957 130.965 152.361 133.487 138.779 128.566C138.863 131.58 138.748 134.963 138.817 137.977L138.756 137.954C138.871 141.353 138.756 145.228 138.817 148.611H138.794C138.771 149.295 138.748 150.71 138.748 151.402H138.81C138.825 154.193 138.756 157.399 138.833 160.198C145.09 163.235 153.699 162.62 160.278 162.95C166.85 162.612 175.444 163.235 181.701 160.198C181.747 156.622 181.732 152.793 181.686 149.218L181.801 149.172L181.655 145.405V145.405Z" fill="#FCD400"/>
<path d="M160.493 164.069H160.362C158.817 163.985 157.242 163.954 155.574 163.923C149.878 163.823 143.982 163.723 138.725 161.278L138.056 160.264C138.017 158.68 138.025 156.98 138.033 155.343C138.041 153.72 138.056 152.044 138.01 150.491L140.316 150.43C140.354 152.014 140.346 153.713 140.339 155.35C140.331 156.719 140.323 158.134 140.339 159.472C145.012 161.432 150.393 161.524 155.604 161.617C157.272 161.647 158.848 161.671 160.416 161.763C161.984 161.678 163.56 161.647 165.228 161.617C170.44 161.524 175.82 161.432 180.494 159.472C180.517 158.157 180.509 156.773 180.494 155.427C180.486 153.813 180.471 152.137 180.517 150.576L182.823 150.637C182.784 152.16 182.792 153.813 182.8 155.412C182.807 157.027 182.823 158.703 182.777 160.264L182.108 161.278C176.843 163.723 170.955 163.823 165.259 163.923C163.591 163.954 162.015 163.977 160.47 164.069H160.493Z" fill="black"/>
<path d="M160.492 164.07H160.362C158.817 163.985 157.241 163.955 155.573 163.924C149.877 163.824 143.981 163.724 138.724 161.279L138.055 160.31C137.994 159.449 138.024 155.144 138.055 150.815C138.055 149.861 138.07 149.131 138.07 148.8H140.376C140.376 149.131 140.376 149.869 140.361 150.83C140.346 153.344 140.307 157.696 140.338 159.472C145.011 161.433 150.4 161.525 155.611 161.617C157.279 161.648 158.855 161.671 160.423 161.763C161.991 161.679 163.567 161.648 165.235 161.617C170.446 161.525 175.827 161.433 180.493 159.48C180.524 156.535 180.524 152.952 180.524 149.769V146.832H182.83V149.769C182.83 153.237 182.83 157.173 182.791 160.256L182.122 161.287C176.857 163.732 170.969 163.832 165.273 163.932C163.605 163.962 162.03 163.985 160.485 164.078L160.492 164.07Z" fill="black"/>
<path d="M160.493 153.091H160.362C158.817 153.007 157.242 152.976 155.574 152.945C149.878 152.845 143.982 152.745 138.725 150.3L138.056 149.278C138.017 147.325 138.025 145.126 138.033 143.004C138.041 140.874 138.048 138.675 138.01 136.722L140.316 136.676C140.354 138.659 140.346 140.874 140.339 143.011C140.339 144.857 140.323 146.756 140.346 148.493C145.02 150.454 150.401 150.546 155.612 150.638C157.28 150.669 158.856 150.692 160.424 150.785C161.992 150.7 163.568 150.669 165.236 150.638C170.447 150.546 175.828 150.454 180.501 148.493C180.525 146.856 180.517 145.095 180.509 143.38C180.501 141.381 180.494 139.313 180.532 137.429L182.838 137.475C182.8 139.328 182.807 141.381 182.815 143.365C182.823 145.349 182.83 147.401 182.792 149.27L182.123 150.292C176.858 152.737 170.97 152.837 165.274 152.937C163.606 152.968 162.03 152.991 160.485 153.083L160.493 153.091Z" fill="black"/>
<path d="M160.493 142.488H160.362C158.817 142.404 157.241 142.373 155.573 142.342C149.878 142.242 143.982 142.142 138.724 139.697L138.056 138.682C138.01 137.198 138.025 135.615 138.033 134.085C138.04 132.424 138.056 130.702 137.994 129.125L138.97 127.941L142.076 127.449L142.437 129.733L140.331 130.063C140.354 131.386 140.346 132.762 140.339 134.092C140.331 135.353 140.323 136.653 140.339 137.883C145.012 139.843 150.393 139.936 155.604 140.028C157.272 140.059 158.848 140.082 160.416 140.174C161.984 140.089 163.56 140.059 165.228 140.028C170.439 139.936 175.82 139.843 180.486 137.89C180.486 137.306 180.494 136.691 180.501 136.076C180.517 134.185 180.524 132.232 180.586 130.448L179.971 130.463L179.925 128.157L181.769 128.118L182.946 129.333C182.838 131.386 182.823 133.777 182.807 136.099C182.807 136.991 182.792 137.86 182.784 138.675L182.115 139.705C176.85 142.15 170.962 142.25 165.266 142.35C163.598 142.381 162.023 142.404 160.478 142.496L160.493 142.488Z" fill="black"/>
<path d="M181.655 129.246C175.113 126.209 167.25 126.939 160.44 126.562C153.622 126.939 145.766 126.209 139.225 129.246C145.766 132.283 153.629 131.552 160.44 131.929C167.258 131.552 175.113 132.283 181.655 129.246V129.246Z" fill="black"/>
<path d="M160.37 133.083C158.825 132.999 157.25 132.968 155.582 132.937C149.886 132.837 143.99 132.737 138.732 130.292V128.201C143.998 125.756 149.886 125.656 155.582 125.556C157.25 125.525 158.825 125.502 160.37 125.41H160.501C162.046 125.495 163.622 125.525 165.29 125.556C170.986 125.656 176.881 125.756 182.139 128.201V130.292C176.873 132.737 170.986 132.837 165.29 132.937C163.622 132.968 162.046 132.991 160.501 133.083H160.37ZM142.491 129.247C146.627 130.477 151.185 130.554 155.62 130.631C157.288 130.662 158.864 130.685 160.432 130.777C162 130.692 163.576 130.662 165.244 130.631C169.679 130.554 174.237 130.477 178.372 129.247C174.237 128.017 169.679 127.94 165.244 127.863C163.576 127.832 162 127.809 160.432 127.717C158.864 127.801 157.288 127.832 155.62 127.863C151.185 127.94 146.627 128.017 142.491 129.247V129.247Z" fill="black"/>
<path d="M181.655 114.385L181.071 107.604L181.716 107.296L181.832 98.877C167.957 99.9457 152.361 102.468 138.779 97.5469C138.863 100.561 138.748 103.944 138.817 106.958L138.756 106.935C138.871 110.333 138.756 114.208 138.817 117.591H138.794C138.771 118.276 138.748 119.69 138.748 120.382H138.81C138.825 123.173 138.756 126.379 138.833 129.178C145.09 132.215 153.699 131.6 160.278 131.931C166.85 131.592 175.444 132.215 181.701 129.178C181.747 125.603 181.732 121.774 181.686 118.199L181.801 118.153L181.655 114.385Z" fill="#FCD400"/>
<path d="M160.493 133.066H160.362C158.817 132.981 157.242 132.95 155.574 132.919C149.878 132.819 143.982 132.72 138.725 130.275L138.056 129.26C138.017 127.676 138.025 125.977 138.033 124.339C138.041 122.717 138.056 121.04 138.01 119.487L140.316 119.426C140.354 121.01 140.346 122.709 140.339 124.347C140.331 125.715 140.323 127.13 140.339 128.468C145.012 130.428 150.393 130.521 155.604 130.613C157.272 130.644 158.848 130.667 160.416 130.759C161.984 130.674 163.56 130.644 165.228 130.613C170.44 130.521 175.82 130.428 180.494 128.468C180.517 127.153 180.509 125.769 180.494 124.423C180.486 122.809 180.471 121.133 180.517 119.572L182.823 119.633C182.784 121.156 182.792 122.809 182.8 124.408C182.807 126.023 182.823 127.699 182.777 129.26L182.108 130.275C176.843 132.72 170.955 132.819 165.259 132.919C163.591 132.95 162.015 132.973 160.47 133.066H160.493Z" fill="black"/>
<path d="M160.494 133.066H160.364C158.819 132.982 157.243 132.951 155.575 132.92C149.879 132.82 143.983 132.72 138.726 130.275L138.057 129.306C137.995 128.445 138.026 124.14 138.057 119.811C138.057 118.857 138.072 118.127 138.072 117.796H140.378C140.378 118.127 140.378 118.865 140.363 119.826C140.348 122.34 140.309 126.692 140.34 128.468C145.013 130.429 150.402 130.521 155.613 130.613C157.281 130.644 158.857 130.667 160.425 130.76C161.993 130.675 163.569 130.644 165.237 130.613C170.448 130.521 175.829 130.429 180.495 128.476C180.526 125.531 180.526 121.948 180.526 118.765V115.828H182.832V118.765C182.832 122.233 182.832 126.169 182.793 129.253L182.124 130.283C176.859 132.728 170.971 132.828 165.275 132.928C163.607 132.959 162.032 132.982 160.487 133.074L160.494 133.066Z" fill="black"/>
<path d="M160.493 122.075H160.362C158.817 121.991 157.242 121.96 155.574 121.929C149.878 121.829 143.982 121.729 138.725 119.284L138.056 118.262C138.017 116.309 138.025 114.11 138.033 111.988C138.041 109.858 138.048 107.659 138.01 105.706L140.316 105.66C140.354 107.644 140.346 109.858 140.339 111.996C140.339 113.841 140.323 115.74 140.346 117.478C145.02 119.438 150.401 119.531 155.612 119.623C157.28 119.654 158.856 119.677 160.424 119.769C161.992 119.684 163.568 119.654 165.236 119.623C170.447 119.531 175.828 119.438 180.501 117.478C180.525 115.84 180.517 114.079 180.509 112.365C180.501 110.366 180.494 108.297 180.532 106.414L182.838 106.46C182.8 108.313 182.807 110.366 182.815 112.349C182.823 114.333 182.83 116.386 182.792 118.254L182.123 119.277C176.858 121.722 170.97 121.822 165.274 121.922C163.606 121.952 162.03 121.976 160.485 122.068L160.493 122.075Z" fill="black"/>
<path d="M160.493 111.477H160.362C158.817 111.392 157.241 111.361 155.573 111.33C149.878 111.231 143.982 111.131 138.724 108.686L138.056 107.671C138.01 106.187 138.025 104.603 138.033 103.073C138.04 101.412 138.056 99.6898 137.994 98.1136L138.97 96.9296L142.076 96.4375L142.437 98.721L140.331 99.0517C140.354 100.374 140.346 101.75 140.339 103.081C140.331 104.341 140.323 105.641 140.339 106.871C145.012 108.832 150.393 108.924 155.604 109.016C157.272 109.047 158.848 109.07 160.416 109.162C161.984 109.078 163.56 109.047 165.228 109.016C170.439 108.924 175.82 108.832 180.486 106.879C180.486 106.294 180.494 105.679 180.501 105.057C180.517 103.165 180.524 101.212 180.586 99.4284L179.971 99.4438L179.925 97.1372L181.769 97.0987L182.946 98.3135C182.838 100.366 182.823 102.758 182.807 105.08C182.807 105.971 182.792 106.848 182.784 107.655L182.115 108.686C176.85 111.131 170.962 111.231 165.266 111.33C163.598 111.361 162.023 111.392 160.478 111.477H160.493Z" fill="black"/>
<path d="M181.655 98.2419C175.113 95.2049 167.25 95.9353 160.44 95.5586C153.622 95.9353 145.766 95.2049 139.225 98.2419C145.766 101.279 153.629 100.549 160.44 100.925C167.258 100.549 175.113 101.279 181.655 98.2419V98.2419Z" fill="white"/>
<path d="M160.37 102.076C158.825 101.991 157.25 101.96 155.582 101.93C149.886 101.83 143.99 101.73 138.732 99.2847V97.1933C143.998 94.7483 149.886 94.6484 155.582 94.5484C157.25 94.5177 158.825 94.4946 160.37 94.4023H160.501C162.046 94.4869 163.622 94.5177 165.29 94.5484C170.986 94.6484 176.881 94.7483 182.139 97.1933V99.2847C176.873 101.73 170.986 101.83 165.29 101.93C163.622 101.96 162.046 101.983 160.501 102.076H160.37ZM142.491 98.239C146.627 99.4692 151.185 99.5461 155.62 99.623C157.288 99.6537 158.864 99.6768 160.432 99.769C162 99.6845 163.576 99.6537 165.244 99.623C169.679 99.5461 174.237 99.4692 178.372 98.239C174.237 97.0088 169.679 96.9319 165.244 96.855C163.576 96.8243 162 96.8012 160.432 96.7089C158.864 96.7935 157.288 96.8243 155.62 96.855C151.185 96.9319 146.627 97.0088 142.491 98.239V98.239Z" fill="black"/>
<path d="M159.656 163.496H257.56C259.882 163.496 261.765 161.612 261.765 159.29V47.8659C261.765 45.5439 259.882 43.6602 257.56 43.6602H159.656C157.334 43.6602 155.451 45.5439 155.451 47.8659V159.29C155.451 161.612 157.334 163.496 159.656 163.496Z" fill="white"/>
<path d="M170.65 163.496H257.684C259.937 163.496 261.765 161.612 261.765 159.29V47.8659C261.765 45.5439 259.937 43.6602 257.684 43.6602H170.65C168.396 43.6602 166.568 45.5439 166.568 47.8659V159.29C166.568 161.612 168.396 163.496 170.65 163.496Z" fill="#C9CFEA"/>
<path d="M257.406 91.3828H266.115V116.479H257.406V91.3828Z" fill="white"/>
</g>
<path d="M208.189 96.4792H209.657C211.705 96.4792 213.365 94.6937 213.365 92.4911V81.0663C213.365 78.8637 211.705 77.0781 209.657 77.0781H208.189C206.141 77.0781 204.481 78.8637 204.481 81.0663V92.4911C204.481 94.6937 206.141 96.4792 208.189 96.4792Z" fill="white"/>
<path d="M208.189 133.979H209.657C211.705 133.979 213.365 132.194 213.365 129.991V118.566C213.365 116.364 211.705 114.578 209.657 114.578H208.189C206.141 114.578 204.481 116.364 204.481 118.566V129.991C204.481 132.194 206.141 133.979 208.189 133.979Z" fill="white"/>
<path d="M200.855 105.716V104.137C200.855 101.934 199.195 100.148 197.148 100.148H186.526C184.478 100.148 182.818 101.934 182.818 104.137V105.716C182.818 107.919 184.478 109.704 186.526 109.704H197.148C199.195 109.704 200.855 107.919 200.855 105.716Z" fill="white"/>
<path d="M235.719 105.716V104.137C235.719 101.934 234.059 100.148 232.011 100.148H221.389C219.342 100.148 217.681 101.934 217.681 104.137V105.716C217.681 107.919 219.342 109.704 221.389 109.704H232.011C234.059 109.704 235.719 107.919 235.719 105.716Z" fill="white"/>
<path d="M214.854 98.0118L215.892 99.1285C217.34 100.686 219.688 100.686 221.136 99.1285L228.646 91.05C230.094 89.4926 230.094 86.9674 228.646 85.4099L227.608 84.2931C226.16 82.7356 223.812 82.7356 222.365 84.2931L214.854 92.3716C213.406 93.9291 213.406 96.4543 214.854 98.0118Z" fill="white"/>
<path d="M190.114 124.434L191.152 125.55C192.6 127.108 194.948 127.108 196.396 125.55L203.906 117.472C205.354 115.914 205.354 113.389 203.906 111.832L202.868 110.715C201.42 109.158 199.072 109.158 197.624 110.715L190.114 118.793C188.666 120.351 188.666 122.876 190.114 124.434Z" fill="white"/>
<path d="M203.449 98.0118L202.411 99.1285C200.963 100.686 198.615 100.686 197.167 99.1285L189.657 91.05C188.209 89.4926 188.209 86.9674 189.657 85.4099L190.695 84.2931C192.143 82.7356 194.491 82.7356 195.939 84.2931L203.449 92.3716C204.897 93.9291 204.897 96.4543 203.449 98.0118Z" fill="white"/>
<path d="M228.189 124.434L227.151 125.55C225.703 127.108 223.355 127.108 221.907 125.55L214.397 117.472C212.949 115.914 212.949 113.389 214.397 111.832L215.435 110.715C216.883 109.158 219.231 109.158 220.679 110.715L228.189 118.793C229.637 120.351 229.637 122.876 228.189 124.434Z" fill="white"/>
<path d="M208.923 124.314C198.966 124.314 190.894 115.633 190.894 104.923C190.894 94.2132 198.966 85.5312 208.923 85.5312C218.88 85.5312 226.951 94.2132 226.951 104.923C226.951 115.633 218.88 124.314 208.923 124.314Z" fill="white"/>
<path d="M208.924 114.426C204.045 114.426 200.09 110.172 200.09 104.924C200.09 99.6761 204.045 95.4219 208.924 95.4219C213.803 95.4219 217.758 99.6761 217.758 104.924C217.758 110.172 213.803 114.426 208.924 114.426Z" fill="black"/>
<defs>
<clipPath id="clip0_8513_87578">
<rect width="177" height="163" fill="white" transform="translate(108.232 22.0781)"/>
</clipPath>
</defs>
</svg>
