<svg width="178" height="163" viewBox="0 0 178 163" fill="none" xmlns="http://www.w3.org/2000/svg">
<g clip-path="url(#clip0_8378_74501)">
<path d="M5.8573 161.848H172.142C174.464 161.848 176.347 159.964 176.347 157.642V5.36C176.347 3.03802 174.464 1.1543 172.142 1.1543H5.8573C3.53593 1.1543 1.65271 3.03802 1.65271 5.36V157.642C1.65271 159.964 3.53593 161.848 5.8573 161.848Z" fill="#C9CFEA"/>
<path d="M27.9557 141.418H149.827C152.149 141.418 154.032 139.534 154.032 137.212V25.7877C154.032 23.4658 152.149 21.582 149.827 21.582H27.9557C25.6343 21.582 23.7511 23.4658 23.7511 25.7877V137.212C23.7511 139.534 25.6343 141.418 27.9557 141.418Z" fill="black"/>
<path d="M149.828 142.572H27.9563C25.0047 142.572 22.5988 140.165 22.5988 137.213V25.7887C22.5988 22.8362 25.0047 20.4297 27.9563 20.4297H149.828C152.779 20.4297 155.185 22.8362 155.185 25.7887V137.213C155.185 140.165 152.779 142.572 149.828 142.572ZM27.9563 22.7363C26.273 22.7363 24.9047 24.1049 24.9047 25.7887V137.213C24.9047 138.897 26.273 140.265 27.9563 140.265H149.828C151.511 140.265 152.879 138.897 152.879 137.213V25.7887C152.879 24.1049 151.511 22.7363 149.828 22.7363H27.9563Z" fill="black"/>
<path d="M73.9223 123.326L73.3381 116.545L73.9838 116.238L74.0991 107.818C60.2247 108.887 44.6285 111.409 31.0463 106.488C31.1308 109.502 31.0155 112.885 31.0847 115.899L31.0232 115.876C31.1385 119.275 31.0232 123.15 31.0847 126.533H31.0616C31.0386 127.217 31.0155 128.632 31.0155 129.324H31.077C31.0924 132.115 31.0232 135.321 31.1001 138.12C37.357 141.157 45.966 140.541 52.5457 140.872C59.1178 140.534 67.7115 141.157 73.9684 138.12C74.0145 134.544 73.9991 130.715 73.953 127.14L74.0683 127.094L73.9223 123.326Z" fill="#FCD400"/>
<path d="M52.76 141.993H52.6293C51.0843 141.909 49.5086 141.878 47.8406 141.847C42.1448 141.747 36.2491 141.647 30.9915 139.202L30.3227 138.187C30.2843 136.603 30.292 134.904 30.2997 133.267C30.3074 131.644 30.3227 129.968 30.2766 128.415L32.5826 128.354C32.621 129.937 32.6133 131.637 32.6057 133.274C32.598 134.643 32.5903 136.058 32.6057 137.395C37.2791 139.356 42.6598 139.448 47.8713 139.541C49.5393 139.571 51.1151 139.594 52.6831 139.687C54.2512 139.602 55.827 139.571 57.495 139.541C62.7065 139.448 68.0871 139.356 72.7606 137.395C72.7837 136.081 72.776 134.697 72.7606 133.351C72.7529 131.737 72.7375 130.06 72.7837 128.5L75.0897 128.561C75.0512 130.083 75.0589 131.737 75.0666 133.336C75.0743 134.95 75.0897 136.627 75.0435 138.187L74.3748 139.202C69.1095 141.647 63.2215 141.747 57.5257 141.847C55.8577 141.878 54.2819 141.901 52.7369 141.993H52.76Z" fill="black"/>
<path d="M52.7603 141.992H52.6296C51.0846 141.907 49.5088 141.877 47.8408 141.846C42.145 141.746 36.2494 141.646 30.9917 139.201L30.323 138.232C30.2615 137.371 30.2922 133.065 30.323 128.737C30.323 127.783 30.3384 127.053 30.3384 126.722H32.6443C32.6443 127.053 32.6443 127.791 32.629 128.752C32.6136 131.266 32.5752 135.618 32.6059 137.394C37.2794 139.355 42.6677 139.447 47.8792 139.539C49.5472 139.57 51.123 139.593 52.6911 139.685C54.2591 139.601 55.8349 139.57 57.5029 139.539C62.7144 139.447 68.0951 139.355 72.7609 137.402C72.7916 134.457 72.7916 130.874 72.7916 127.691V124.754H75.0976V127.691C75.0976 131.159 75.0976 135.095 75.0592 138.178L74.3904 139.209C69.1251 141.654 63.2371 141.754 57.5413 141.854C55.8733 141.884 54.2976 141.907 52.7526 142L52.7603 141.992Z" fill="black"/>
<path d="M52.76 131.013H52.6293C51.0843 130.928 49.5086 130.898 47.8406 130.867C42.1448 130.767 36.2491 130.667 30.9915 128.222L30.3227 127.199C30.2843 125.246 30.292 123.048 30.2997 120.925C30.3074 118.796 30.315 116.597 30.2766 114.644L32.5826 114.598C32.621 116.581 32.6133 118.796 32.6057 120.933C32.6057 122.778 32.5903 124.678 32.6133 126.415C37.2868 128.376 42.6675 128.468 47.879 128.56C49.547 128.591 51.1227 128.614 52.6908 128.706C54.2589 128.622 55.8347 128.591 57.5027 128.56C62.7142 128.468 68.0948 128.376 72.7683 126.415C72.7914 124.777 72.7837 123.017 72.776 121.302C72.7683 119.303 72.7606 117.235 72.799 115.351L75.105 115.397C75.0666 117.25 75.0743 119.303 75.082 121.287C75.0897 123.27 75.0973 125.323 75.0589 127.192L74.3902 128.214C69.1248 130.659 63.2369 130.759 57.5411 130.859C55.8731 130.89 54.2973 130.913 52.7523 131.005L52.76 131.013Z" fill="black"/>
<path d="M52.7601 120.412H52.6294C51.0844 120.328 49.5087 120.297 47.8407 120.266C42.1449 120.166 36.2492 120.066 30.9916 117.621L30.3228 116.606C30.2767 115.122 30.2921 113.538 30.2998 112.008C30.3075 110.348 30.3228 108.625 30.2614 107.049L31.2376 105.865L34.343 105.373L34.7042 107.657L32.5981 107.987C32.6211 109.31 32.6135 110.686 32.6058 112.016C32.5981 113.277 32.5904 114.576 32.6058 115.807C37.2792 117.767 42.6599 117.859 47.8714 117.952C49.5394 117.982 51.1152 118.006 52.6832 118.098C54.2513 118.013 55.8271 117.982 57.4951 117.952C62.7066 117.859 68.0873 117.767 72.753 115.814C72.753 115.23 72.7607 114.615 72.7684 114C72.7838 112.108 72.7915 110.155 72.853 108.372L72.238 108.387L72.1919 106.08L74.0367 106.042L75.2128 107.257C75.1051 109.31 75.0898 111.701 75.0744 114.023C75.0744 114.915 75.059 115.784 75.0513 116.599L74.3826 117.629C69.1173 120.074 63.2293 120.174 57.5335 120.274C55.8655 120.304 54.2898 120.328 52.7447 120.42L52.7601 120.412Z" fill="black"/>
<path d="M73.9212 107.172C67.3798 104.135 59.5164 104.865 52.7061 104.488C45.888 104.865 38.0323 104.135 31.491 107.172C38.0323 110.209 45.8957 109.478 52.7061 109.855C59.5241 109.478 67.3798 110.209 73.9212 107.172Z" fill="black"/>
<path d="M52.6374 111.007C51.0924 110.923 49.5166 110.892 47.8486 110.861C42.1528 110.761 36.2572 110.661 30.9995 108.216V106.125C36.2649 103.68 42.1528 103.58 47.8486 103.48C49.5166 103.449 51.0924 103.426 52.6374 103.334H52.768C54.3131 103.419 55.8888 103.449 57.5568 103.48C63.2526 103.58 69.1482 103.68 74.4059 106.125V108.216C69.1406 110.661 63.2526 110.761 57.5568 110.861C55.8888 110.892 54.3131 110.915 52.768 111.007H52.6374ZM34.7583 107.171C38.8937 108.401 43.4518 108.478 47.887 108.555C49.555 108.585 51.1308 108.608 52.6989 108.701C54.2669 108.616 55.8427 108.585 57.5107 108.555C61.9459 108.478 66.504 108.401 70.6395 107.171C66.504 105.94 61.9459 105.864 57.5107 105.787C55.8427 105.756 54.2669 105.733 52.6989 105.641C51.1308 105.725 49.555 105.756 47.887 105.787C43.4518 105.864 38.8937 105.94 34.7583 107.171Z" fill="black"/>
<path d="M73.9223 92.3089L73.3381 85.5275L73.9838 85.2199L74.0991 76.8008C60.2247 77.8696 44.6285 80.3915 31.0463 75.4707C31.1308 78.4847 31.0155 81.8677 31.0847 84.8816L31.0232 84.8586C31.1385 88.257 31.0232 92.1321 31.0847 95.5151H31.0616C31.0386 96.1994 31.0155 97.6141 31.0155 98.3061H31.077C31.0924 101.097 31.0232 104.303 31.1001 107.102C37.357 110.139 45.966 109.524 52.5457 109.854C59.1178 109.516 67.7115 110.139 73.9684 107.102C74.0145 103.527 73.9991 99.6977 73.953 96.1225L74.0683 96.0764L73.9223 92.3089Z" fill="#FCD400"/>
<path d="M52.7607 110.987H52.6301C51.085 110.903 49.5093 110.872 47.8413 110.841C42.1455 110.741 36.2499 110.641 30.9922 108.196L30.3235 107.181C30.285 105.598 30.2927 103.898 30.3004 102.261C30.3081 100.638 30.3235 98.9623 30.2773 97.4092L32.5833 97.3477C32.6218 98.9315 32.6141 100.631 32.6064 102.268C32.5987 103.637 32.591 105.052 32.6064 106.39C37.2799 108.35 42.6605 108.442 47.872 108.535C49.54 108.565 51.1158 108.589 52.6839 108.681C54.2519 108.596 55.8277 108.565 57.4957 108.535C62.7072 108.442 68.0879 108.35 72.7613 106.39C72.7844 105.075 72.7767 103.691 72.7613 102.345C72.7537 100.731 72.7383 99.0545 72.7844 97.4937L75.0904 97.5552C75.052 99.0776 75.0596 100.731 75.0673 102.33C75.075 103.945 75.0904 105.621 75.0443 107.181L74.3755 108.196C69.1102 110.641 63.2222 110.741 57.5264 110.841C55.8584 110.872 54.2827 110.895 52.7377 110.987H52.7607Z" fill="black"/>
<path d="M52.761 110.986H52.6303C51.0853 110.901 49.5095 110.871 47.8415 110.84C42.1458 110.74 36.2501 110.64 30.9924 108.195L30.3237 107.226C30.2622 106.365 30.293 102.06 30.3237 97.7308C30.3237 96.7774 30.3391 96.047 30.3391 95.7163H32.6451C32.6451 96.047 32.6451 96.7851 32.6297 97.7462C32.6143 100.26 32.5759 104.612 32.6066 106.388C37.2801 108.349 42.6684 108.441 47.88 108.533C49.548 108.564 51.1237 108.587 52.6918 108.679C54.2599 108.595 55.8356 108.564 57.5036 108.533C62.7152 108.441 68.0958 108.349 72.7616 106.396C72.7923 103.451 72.7923 99.8682 72.7923 96.6851V93.748H75.0983V96.6851C75.0983 100.153 75.0983 104.089 75.0599 107.172L74.3912 108.203C69.1258 110.648 63.2379 110.748 57.5421 110.848C55.8741 110.878 54.2983 110.901 52.7533 110.994L52.761 110.986Z" fill="black"/>
<path d="M52.7607 99.9993H52.6301C51.085 99.9147 49.5093 99.884 47.8413 99.8532C42.1455 99.7533 36.2499 99.6533 30.9922 97.2083L30.3235 96.1857C30.285 94.2328 30.2927 92.0338 30.3004 89.9118C30.3081 87.782 30.3158 85.583 30.2773 83.6301L32.5833 83.584C32.6218 85.5677 32.6141 87.782 32.6064 89.9195C32.6064 91.7647 32.591 93.6638 32.6141 95.4015C37.2875 97.3621 42.6682 97.4544 47.8797 97.5466C49.5477 97.5774 51.1235 97.6004 52.6916 97.6927C54.2596 97.6081 55.8354 97.5774 57.5034 97.5466C62.7149 97.4544 68.0956 97.3621 72.769 95.4015C72.7921 93.7638 72.7844 92.0031 72.7767 90.2885C72.769 88.2895 72.7613 86.2212 72.7998 84.3375L75.1058 84.3836C75.0673 86.2366 75.075 88.2895 75.0827 90.2731C75.0904 92.2568 75.0981 94.3097 75.0596 96.178L74.3909 97.2006C69.1256 99.6456 63.2376 99.7456 57.5418 99.8455C55.8738 99.8763 54.2981 99.8994 52.753 99.9916L52.7607 99.9993Z" fill="black"/>
<path d="M52.7608 89.3965H52.6302C51.0852 89.3119 49.5094 89.2812 47.8414 89.2504C42.1456 89.1504 36.25 89.0505 30.9923 86.6055L30.3236 85.5906C30.2775 84.1067 30.2928 82.5228 30.3005 80.9928C30.3082 79.332 30.3236 77.6097 30.2621 76.0336L31.2383 74.8495L34.3437 74.3574L34.705 76.641L32.5988 76.9716C32.6219 78.294 32.6142 79.6703 32.6065 81.0004C32.5988 82.2614 32.5911 83.5608 32.6065 84.791C37.28 86.7516 42.6606 86.8438 47.8722 86.9361C49.5402 86.9669 51.1159 86.9899 52.684 87.0822C54.2521 86.9976 55.8278 86.9669 57.4958 86.9361C62.7073 86.8438 68.088 86.7516 72.7538 84.7987C72.7538 84.2143 72.7615 83.5992 72.7691 82.9764C72.7845 81.085 72.7922 79.1321 72.8537 77.3483L72.2388 77.3637L72.1926 75.0571L74.0374 75.0186L75.2135 76.2335C75.1059 78.2863 75.0905 80.6775 75.0751 82.9995C75.0751 83.8914 75.0598 84.7679 75.0521 85.5752L74.3833 86.6055C69.118 89.0505 63.23 89.1504 57.5342 89.2504C55.8662 89.2812 54.2905 89.3119 52.7455 89.3965H52.7608Z" fill="black"/>
<path d="M73.9218 76.1658C67.3804 73.1287 59.517 73.8592 52.7067 73.4824C45.8886 73.8592 38.0329 73.1287 31.4916 76.1658C38.0329 79.2028 45.8963 78.4724 52.7067 78.8491C59.5247 78.4724 67.3804 79.2028 73.9218 76.1658Z" fill="white"/>
<path d="M52.6381 79.9995C51.0931 79.9149 49.5173 79.8841 47.8493 79.8534C42.1535 79.7534 36.2579 79.6535 31.0002 77.2085V75.1172C36.2656 72.6722 42.1535 72.5722 47.8493 72.4723C49.5173 72.4415 51.0931 72.4184 52.6381 72.3262H52.7688C54.3138 72.4107 55.8895 72.4415 57.5575 72.4723C63.2533 72.5722 69.149 72.6722 74.4066 75.1172V77.2085C69.1413 79.6535 63.2533 79.7534 57.5575 79.8534C55.8895 79.8841 54.3138 79.9072 52.7688 79.9995H52.6381ZM34.759 76.1628C38.8944 77.393 43.4526 77.4699 47.8878 77.5468C49.5558 77.5775 51.1315 77.6006 52.6996 77.6929C54.2677 77.6083 55.8434 77.5775 57.5114 77.5468C61.9466 77.4699 66.5048 77.393 70.6402 76.1628C66.5048 74.9326 61.9466 74.8557 57.5114 74.7789C55.8434 74.7481 54.2677 74.725 52.6996 74.6328C51.1315 74.7174 49.5558 74.7481 47.8878 74.7789C43.4526 74.8557 38.8944 74.9326 34.759 76.1628Z" fill="black"/>
<circle cx="6.26141" cy="6.26141" r="6.26141" transform="matrix(0.247051 0.969003 0.969003 -0.247051 29.131 61.209)" fill="#C9CFEA"/>
<circle cx="6.26141" cy="6.26141" r="6.26141" transform="matrix(-0.247051 -0.969003 -0.969003 0.247051 75.5861 88.4238)" fill="#C9CFEA"/>
<path d="M65.4005 82.3926C65.0988 83.0195 64.8717 84.4543 66.3762 85.1783" stroke="black" stroke-width="1.15317"/>
<path d="M39.437 81.6555C44.7449 81.6555 49.0477 85.9584 49.0477 91.2662C49.0477 96.5741 44.7449 100.877 39.437 100.877C34.1292 100.877 29.8263 96.5741 29.8263 91.2662C29.8263 85.9584 34.1292 81.6555 39.437 81.6555Z" fill="#FCD400"/>
<path d="M39.2545 88.8021C38.8249 88.7948 38.4074 88.9439 38.0796 89.2217C37.4125 89.8199 37.0711 90.7008 37.1607 91.5924C37.2971 92.7567 37.9495 93.4595 39.0992 93.6903C39.802 93.8267 40.7776 93.8414 41.4363 93.4805C41.6379 93.3646 41.7075 93.1073 41.5916 92.9057C41.4757 92.7041 41.2184 92.6346 41.0167 92.7504C40.5972 92.9896 39.8062 92.9833 39.2524 92.8763C38.4614 92.7231 38.0817 92.314 37.9936 91.5105C37.941 90.8998 38.1733 90.299 38.623 89.8825C39.1517 89.442 39.9132 89.7273 40.851 90.149L41.1447 90.279C41.2837 90.3467 41.4486 90.3325 41.574 90.242C41.6993 90.1516 41.7647 89.9995 41.7443 89.8463C41.7239 89.6931 41.6209 89.5635 41.4762 89.5091L41.193 89.3832C40.6538 89.1189 39.9468 88.8021 39.2545 88.8021Z" fill="#E2B420"/>
<path d="M39.8661 86.9805C39.6408 86.9803 39.4555 87.1581 39.4465 87.3833C39.4465 87.3938 39.4046 88.405 39.3311 89.0302C39.3135 89.1801 39.3772 89.328 39.4982 89.4182C39.6193 89.5084 39.7792 89.5272 39.9178 89.4675C40.0565 89.4078 40.1527 89.2787 40.1703 89.1288C40.2479 88.4721 40.2899 87.4609 40.292 87.4168C40.2965 87.3055 40.2566 87.197 40.1811 87.1151C40.1055 87.0333 40.0005 86.9848 39.8892 86.9805L39.8661 86.9805Z" fill="#E2B420"/>
<path d="M39.4962 92.8984C39.2716 92.8982 39.0867 93.0748 39.0766 93.2991C39.0451 94.004 39.0766 95.1013 39.0766 95.1474C39.0804 95.2973 39.1638 95.4338 39.2955 95.5055C39.4272 95.5772 39.5871 95.5732 39.7151 95.495C39.843 95.4169 39.9195 95.2763 39.9158 95.1264C39.9158 95.1159 39.8885 94.0103 39.9158 93.3348C39.9253 93.1038 39.7461 92.9086 39.5151 92.8984L39.4962 92.8984Z" fill="#E2B420"/>
<path d="M42.1795 83.6768C41.9707 83.6768 41.7937 83.8304 41.7641 84.0371C41.7346 84.2438 41.8616 84.4408 42.062 84.4992C43.5977 84.9524 44.867 86.0412 45.7292 87.6461C46.7782 89.6161 47.051 92.0917 46.4069 93.9526C46.331 94.1716 46.447 94.4106 46.666 94.4865C46.885 94.5624 47.124 94.4464 47.1999 94.2274C47.9174 92.1546 47.63 89.4147 46.4698 87.2496C45.4985 85.437 44.0551 84.2055 42.2991 83.6831C42.2597 83.6759 42.2195 83.6738 42.1795 83.6768Z" fill="#E2B420"/>
<path d="M39.6909 82.9614C39.4593 82.9389 39.2532 83.1083 39.2307 83.3399C39.2081 83.5716 39.3775 83.7776 39.6092 83.8002L39.7455 83.8275C39.8939 83.8612 40.049 83.8118 40.1506 83.6984C40.2523 83.5849 40.2844 83.4254 40.2347 83.2815C40.1849 83.1376 40.0611 83.0319 39.9111 83.0055L39.7727 82.9782C39.7462 82.9695 39.7187 82.9639 39.6909 82.9614Z" fill="#E2B420"/>
<path d="M32.8155 95.1348C32.6622 95.1351 32.5212 95.2189 32.4478 95.3535C32.3744 95.488 32.3803 95.6519 32.463 95.781C33.2789 96.9577 34.3404 97.9433 35.5743 98.6698C36.7418 99.2658 38.0242 99.6029 39.3338 99.658C39.5656 99.6655 39.7595 99.4838 39.7671 99.252C39.7746 99.0203 39.5928 98.8263 39.3611 98.8188C38.1844 98.7668 37.0323 98.465 35.9813 97.9335C34.8691 97.2753 33.9106 96.3869 33.1701 95.3278C33.0926 95.2071 32.9589 95.1343 32.8155 95.1348Z" fill="#E2B420"/>
<path d="M38.4044 96.6569C41.763 96.9368 43.7221 99.7356 44.2817 101.975C44.8417 99.1758 47.3606 97.2166 49.8795 96.377C46.2411 95.8172 44.5618 92.7386 44.2817 90.2196C44.002 92.7386 42.0429 95.8172 38.4044 96.6569Z" fill="white"/>
<ellipse cx="68.978" cy="50.2593" rx="17.4057" ry="17.7783" transform="rotate(-104.303 68.978 50.2593)" fill="#FCD400"/>
<ellipse cx="68.9767" cy="50.2496" rx="13.0543" ry="13.3337" transform="rotate(-104.303 68.9767 50.2496)" stroke="white" stroke-width="1.15317"/>
<path d="M65.7521 37.6051C58.6164 39.4244 54.2756 46.5626 56.0568 53.5488" stroke="#E2B420" stroke-width="1.15317" stroke-linecap="round"/>
<path d="M81.8966 46.9567C83.6778 53.9429 79.337 61.0811 72.2013 62.9004" stroke="#E2B420" stroke-width="1.15317" stroke-linecap="round"/>
<path d="M81.2844 41.9277C80.8475 47.1711 76.478 50.2297 72.9824 51.1033C77.3519 51.9775 80.4105 55.9101 81.7214 59.8426C82.5953 54.1623 87.4017 51.5406 91.3342 51.1033C87.4017 50.6667 82.5953 47.6081 81.2844 41.9277Z" fill="white"/>
<ellipse cx="33.0889" cy="40.8701" rx="8.08777" ry="8.2609" transform="rotate(-104.303 33.0889 40.8701)" fill="#FCD400"/>
<ellipse cx="33.0892" cy="40.8591" rx="6.06583" ry="6.19568" transform="rotate(-104.303 33.0892 40.8591)" stroke="white" stroke-width="1.15317"/>
<path d="M31.5892 34.9763C28.2735 35.8217 26.2565 39.1385 27.0841 42.3848" stroke="#E2B420" stroke-width="1.15317" stroke-linecap="round"/>
<path d="M39.0931 39.3318C39.9207 42.578 37.9037 45.8949 34.588 46.7402" stroke="#E2B420" stroke-width="1.15317" stroke-linecap="round"/>
<path d="M33.6171 42.4161C34.0223 44.8271 32.406 46.7059 30.9323 47.5005C33.0001 47.3926 34.8287 48.8121 35.8704 50.4323C35.6118 47.7743 37.4749 46.0421 39.1954 45.3938C37.3746 45.6487 34.8594 44.8232 33.6171 42.4161Z" fill="white"/>
<path d="M30.0309 141H147.969C151.023 141 153.5 139.129 153.5 136.824V26.1764C153.5 23.8706 151.023 22 147.969 22H30.0309C26.9773 22 24.5 23.8706 24.5 26.1764V136.824C24.5 139.129 26.9773 141 30.0309 141Z" fill="#C9CFEA"/>
<path d="M149.674 69.3066H158.383V94.4025H149.674V69.3066Z" fill="white"/>
<path d="M50.6702 118.151H47.1958C45.1742 118.151 43.5293 116.506 43.5293 114.484V49.2222C43.5293 47.2001 45.1742 45.5547 47.1958 45.5547H50.6702C52.6918 45.5547 54.3367 47.2001 54.3367 49.2222V114.476C54.3367 116.498 52.6918 118.144 50.6702 118.144V118.151Z" fill="white"/>
</g>
<defs>
<clipPath id="clip0_8378_74501">
<rect width="177" height="163" fill="white" transform="translate(0.5)"/>
</clipPath>
</defs>
</svg>
