<svg width="412" height="411" viewBox="0 0 412 411" fill="none" xmlns="http://www.w3.org/2000/svg">
<g opacity="0.5" filter="url(#filter0_f_8385_75371)">
<path d="M311.781 205.5C311.781 263.766 264.547 311 206.281 311C148.015 311 100.781 263.766 100.781 205.5C100.781 147.234 148.015 100 206.281 100C264.547 100 311.781 147.234 311.781 205.5Z" fill="#EAF1FF"/>
</g>
<g clip-path="url(#clip0_8385_75371)">
<path d="M151.271 285.848H317.556C319.878 285.848 321.761 283.964 321.761 281.642V129.36C321.761 127.038 319.878 125.154 317.556 125.154H151.271C148.95 125.154 147.067 127.038 147.067 129.36V281.642C147.067 283.964 148.95 285.848 151.271 285.848Z" fill="#C9CFEA"/>
<path d="M173.37 265.418H295.241C297.563 265.418 299.446 263.534 299.446 261.212V149.788C299.446 147.466 297.563 145.582 295.241 145.582H173.37C171.048 145.582 169.165 147.466 169.165 149.788V261.212C169.165 263.534 171.048 265.418 173.37 265.418Z" fill="black"/>
<path d="M295.242 266.572H173.37C170.419 266.572 168.013 264.165 168.013 261.213V149.789C168.013 146.836 170.419 144.43 173.37 144.43H295.242C298.194 144.43 300.599 146.836 300.599 149.789V261.213C300.599 264.165 298.194 266.572 295.242 266.572ZM173.37 146.736C171.687 146.736 170.319 148.105 170.319 149.789V261.213C170.319 262.897 171.687 264.265 173.37 264.265H295.242C296.925 264.265 298.293 262.897 298.293 261.213V149.789C298.293 148.105 296.925 146.736 295.242 146.736H173.37Z" fill="black"/>
<path d="M219.336 247.326L218.752 240.545L219.398 240.238L219.513 231.818C205.639 232.887 190.043 235.409 176.46 230.488C176.545 233.502 176.43 236.885 176.499 239.899L176.437 239.876C176.553 243.275 176.437 247.15 176.499 250.533H176.476C176.453 251.217 176.43 252.632 176.43 253.324H176.491C176.506 256.115 176.437 259.321 176.514 262.12C182.771 265.157 191.38 264.541 197.96 264.872C204.532 264.534 213.126 265.157 219.382 262.12C219.429 258.544 219.413 254.715 219.367 251.14L219.482 251.094L219.336 247.326Z" fill="#FCD400"/>
<path d="M198.174 265.993H198.043C196.498 265.909 194.923 265.878 193.255 265.847C187.559 265.747 181.663 265.647 176.406 263.202L175.737 262.187C175.698 260.603 175.706 258.904 175.714 257.267C175.721 255.644 175.737 253.968 175.691 252.415L177.997 252.354C178.035 253.937 178.027 255.637 178.02 257.274C178.012 258.643 178.004 260.058 178.02 261.395C182.693 263.356 188.074 263.448 193.285 263.541C194.953 263.571 196.529 263.594 198.097 263.687C199.665 263.602 201.241 263.571 202.909 263.541C208.121 263.448 213.501 263.356 218.175 261.395C218.198 260.081 218.19 258.697 218.175 257.351C218.167 255.737 218.152 254.06 218.198 252.5L220.504 252.561C220.465 254.083 220.473 255.737 220.481 257.336C220.488 258.95 220.504 260.627 220.458 262.187L219.789 263.202C214.524 265.647 208.636 265.747 202.94 265.847C201.272 265.878 199.696 265.901 198.151 265.993H198.174Z" fill="black"/>
<path d="M198.174 265.992H198.044C196.499 265.907 194.923 265.877 193.255 265.846C187.559 265.746 181.663 265.646 176.406 263.201L175.737 262.232C175.676 261.371 175.706 257.065 175.737 252.737C175.737 251.783 175.752 251.053 175.752 250.722H178.058C178.058 251.053 178.058 251.791 178.043 252.752C178.028 255.266 177.989 259.618 178.02 261.394C182.693 263.355 188.082 263.447 193.293 263.539C194.961 263.57 196.537 263.593 198.105 263.685C199.673 263.601 201.249 263.57 202.917 263.539C208.129 263.447 213.509 263.355 218.175 261.402C218.206 258.457 218.206 254.874 218.206 251.691V248.754H220.512V251.691C220.512 255.159 220.512 259.095 220.473 262.178L219.804 263.209C214.539 265.654 208.651 265.754 202.955 265.854C201.287 265.884 199.712 265.907 198.167 266L198.174 265.992Z" fill="black"/>
<path d="M198.174 255.013H198.043C196.498 254.928 194.923 254.898 193.255 254.867C187.559 254.767 181.663 254.667 176.406 252.222L175.737 251.199C175.698 249.246 175.706 247.048 175.714 244.925C175.721 242.796 175.729 240.597 175.691 238.644L177.997 238.598C178.035 240.581 178.027 242.796 178.02 244.933C178.02 246.778 178.004 248.678 178.027 250.415C182.701 252.376 188.082 252.468 193.293 252.56C194.961 252.591 196.537 252.614 198.105 252.706C199.673 252.622 201.249 252.591 202.917 252.56C208.128 252.468 213.509 252.376 218.182 250.415C218.205 248.777 218.198 247.017 218.19 245.302C218.182 243.303 218.175 241.235 218.213 239.351L220.519 239.397C220.481 241.25 220.488 243.303 220.496 245.287C220.504 247.27 220.511 249.323 220.473 251.192L219.804 252.214C214.539 254.659 208.651 254.759 202.955 254.859C201.287 254.89 199.711 254.913 198.166 255.005L198.174 255.013Z" fill="black"/>
<path d="M198.174 244.412H198.044C196.498 244.328 194.923 244.297 193.255 244.266C187.559 244.166 181.663 244.066 176.406 241.621L175.737 240.606C175.691 239.122 175.706 237.538 175.714 236.008C175.722 234.348 175.737 232.625 175.675 231.049L176.652 229.865L179.757 229.373L180.118 231.657L178.012 231.987C178.035 233.31 178.028 234.686 178.02 236.016C178.012 237.277 178.004 238.576 178.02 239.807C182.693 241.767 188.074 241.859 193.285 241.952C194.953 241.982 196.529 242.006 198.097 242.098C199.665 242.013 201.241 241.982 202.909 241.952C208.121 241.859 213.501 241.767 218.167 239.814C218.167 239.23 218.175 238.615 218.182 238C218.198 236.108 218.206 234.155 218.267 232.372L217.652 232.387L217.606 230.08L219.451 230.042L220.627 231.257C220.519 233.31 220.504 235.701 220.488 238.023C220.488 238.915 220.473 239.784 220.465 240.599L219.797 241.629C214.531 244.074 208.643 244.174 202.948 244.274C201.28 244.304 199.704 244.328 198.159 244.42L198.174 244.412Z" fill="black"/>
<path d="M219.335 231.172C212.794 228.135 204.93 228.865 198.12 228.488C191.302 228.865 183.446 228.135 176.905 231.172C183.446 234.209 191.31 233.478 198.12 233.855C204.938 233.478 212.794 234.209 219.335 231.172Z" fill="black"/>
<path d="M198.051 235.007C196.506 234.923 194.931 234.892 193.263 234.861C187.567 234.761 181.671 234.661 176.414 232.216V230.125C181.679 227.68 187.567 227.58 193.263 227.48C194.931 227.449 196.506 227.426 198.051 227.334H198.182C199.727 227.419 201.303 227.449 202.971 227.48C208.667 227.58 214.562 227.68 219.82 230.125V232.216C214.555 234.661 208.667 234.761 202.971 234.861C201.303 234.892 199.727 234.915 198.182 235.007H198.051ZM180.172 231.171C184.308 232.401 188.866 232.478 193.301 232.555C194.969 232.585 196.545 232.608 198.113 232.701C199.681 232.616 201.257 232.585 202.925 232.555C207.36 232.478 211.918 232.401 216.054 231.171C211.918 229.94 207.36 229.864 202.925 229.787C201.257 229.756 199.681 229.733 198.113 229.641C196.545 229.725 194.969 229.756 193.301 229.787C188.866 229.864 184.308 229.94 180.172 231.171Z" fill="black"/>
<path d="M219.336 216.309L218.752 209.527L219.398 209.22L219.513 200.801C205.639 201.87 190.043 204.391 176.46 199.471C176.545 202.485 176.43 205.868 176.499 208.882L176.437 208.859C176.553 212.257 176.437 216.132 176.499 219.515H176.476C176.453 220.199 176.43 221.614 176.43 222.306H176.491C176.506 225.097 176.437 228.303 176.514 231.102C182.771 234.139 191.38 233.524 197.96 233.854C204.532 233.516 213.126 234.139 219.382 231.102C219.429 227.527 219.413 223.698 219.367 220.122L219.482 220.076L219.336 216.309Z" fill="#FCD400"/>
<path d="M198.175 234.987H198.044C196.499 234.903 194.923 234.872 193.255 234.841C187.56 234.741 181.664 234.641 176.406 232.196L175.738 231.181C175.699 229.598 175.707 227.898 175.714 226.261C175.722 224.638 175.738 222.962 175.691 221.409L177.997 221.348C178.036 222.932 178.028 224.631 178.02 226.268C178.013 227.637 178.005 229.052 178.02 230.39C182.694 232.35 188.075 232.442 193.286 232.535C194.954 232.565 196.53 232.589 198.098 232.681C199.666 232.596 201.242 232.565 202.91 232.535C208.121 232.442 213.502 232.35 218.175 230.39C218.198 229.075 218.191 227.691 218.175 226.345C218.168 224.731 218.152 223.055 218.198 221.494L220.504 221.555C220.466 223.078 220.474 224.731 220.481 226.33C220.489 227.945 220.504 229.621 220.458 231.181L219.79 232.196C214.524 234.641 208.636 234.741 202.941 234.841C201.273 234.872 199.697 234.895 198.152 234.987H198.175Z" fill="black"/>
<path d="M198.175 234.986H198.044C196.499 234.901 194.924 234.871 193.256 234.84C187.56 234.74 181.664 234.64 176.407 232.195L175.738 231.226C175.676 230.365 175.707 226.06 175.738 221.731C175.738 220.777 175.753 220.047 175.753 219.716H178.059C178.059 220.047 178.059 220.785 178.044 221.746C178.028 224.26 177.99 228.612 178.021 230.388C182.694 232.349 188.083 232.441 193.294 232.533C194.962 232.564 196.538 232.587 198.106 232.679C199.674 232.595 201.25 232.564 202.918 232.533C208.129 232.441 213.51 232.349 218.176 230.396C218.206 227.451 218.206 223.868 218.206 220.685V217.748H220.512V220.685C220.512 224.153 220.512 228.089 220.474 231.172L219.805 232.203C214.54 234.648 208.652 234.748 202.956 234.848C201.288 234.878 199.712 234.901 198.167 234.994L198.175 234.986Z" fill="black"/>
<path d="M198.175 223.999H198.044C196.499 223.915 194.923 223.884 193.255 223.853C187.56 223.753 181.664 223.653 176.406 221.208L175.738 220.186C175.699 218.233 175.707 216.034 175.714 213.912C175.722 211.782 175.73 209.583 175.691 207.63L177.997 207.584C178.036 209.568 178.028 211.782 178.02 213.919C178.02 215.765 178.005 217.664 178.028 219.401C182.702 221.362 188.082 221.454 193.294 221.547C194.962 221.577 196.538 221.6 198.106 221.693C199.674 221.608 201.249 221.577 202.917 221.547C208.129 221.454 213.51 221.362 218.183 219.401C218.206 217.764 218.198 216.003 218.191 214.289C218.183 212.289 218.175 210.221 218.214 208.337L220.52 208.384C220.481 210.237 220.489 212.289 220.497 214.273C220.504 216.257 220.512 218.31 220.474 220.178L219.805 221.201C214.54 223.646 208.652 223.746 202.956 223.846C201.288 223.876 199.712 223.899 198.167 223.992L198.175 223.999Z" fill="black"/>
<path d="M198.175 213.396H198.044C196.499 213.312 194.923 213.281 193.255 213.25C187.56 213.15 181.664 213.05 176.406 210.605L175.738 209.591C175.692 208.107 175.707 206.523 175.715 204.993C175.722 203.332 175.738 201.61 175.676 200.034L176.652 198.849L179.758 198.357L180.119 200.641L178.013 200.972C178.036 202.294 178.028 203.67 178.021 205C178.013 206.261 178.005 207.561 178.021 208.791C182.694 210.752 188.075 210.844 193.286 210.936C194.954 210.967 196.53 210.99 198.098 211.082C199.666 210.998 201.242 210.967 202.91 210.936C208.121 210.844 213.502 210.752 218.168 208.799C218.168 208.214 218.176 207.599 218.183 206.976C218.199 205.085 218.206 203.132 218.268 201.348L217.653 201.364L217.607 199.057L219.451 199.019L220.628 200.233C220.52 202.286 220.505 204.678 220.489 206.999C220.489 207.891 220.474 208.768 220.466 209.575L219.797 210.605C214.532 213.05 208.644 213.15 202.948 213.25C201.28 213.281 199.705 213.312 198.16 213.396H198.175Z" fill="black"/>
<path d="M219.336 200.166C212.795 197.129 204.931 197.859 198.121 197.482C191.303 197.859 183.447 197.129 176.906 200.166C183.447 203.203 191.31 202.472 198.121 202.849C204.939 202.472 212.795 203.203 219.336 200.166Z" fill="white"/>
<path d="M198.052 203.999C196.507 203.915 194.931 203.884 193.263 203.853C187.568 203.753 181.672 203.653 176.414 201.208V199.117C181.68 196.672 187.568 196.572 193.263 196.472C194.931 196.442 196.507 196.418 198.052 196.326H198.183C199.728 196.411 201.304 196.442 202.972 196.472C208.667 196.572 214.563 196.672 219.821 199.117V201.208C214.555 203.653 208.667 203.753 202.972 203.853C201.304 203.884 199.728 203.907 198.183 203.999H198.052ZM180.173 200.163C184.308 201.393 188.867 201.47 193.302 201.547C194.97 201.578 196.546 201.601 198.114 201.693C199.682 201.608 201.257 201.578 202.925 201.547C207.361 201.47 211.919 201.393 216.054 200.163C211.919 198.933 207.361 198.856 202.925 198.779C201.257 198.748 199.682 198.725 198.114 198.633C196.546 198.717 194.97 198.748 193.302 198.779C188.867 198.856 184.308 198.933 180.173 200.163Z" fill="black"/>
<path d="M197.338 265.418H295.243C297.564 265.418 299.447 263.534 299.447 261.212V149.788C299.447 147.466 297.564 145.582 295.243 145.582H197.338C195.017 145.582 193.134 147.466 193.134 149.788V261.212C193.134 263.534 195.017 265.418 197.338 265.418Z" fill="white"/>
<path d="M208.332 265.418H295.365C297.619 265.418 299.447 263.534 299.447 261.212V149.788C299.447 147.466 297.619 145.582 295.365 145.582H208.332C206.078 145.582 204.25 147.466 204.25 149.788V261.212C204.25 263.534 206.078 265.418 208.332 265.418Z" fill="#C9CFEA"/>
<path d="M295.089 193.307H303.797V218.402H295.089V193.307Z" fill="white"/>
<path d="M236.085 242.151H232.611C230.589 242.151 228.944 240.506 228.944 238.484V173.222C228.944 171.2 230.589 169.555 232.611 169.555H236.085C238.107 169.555 239.752 171.2 239.752 173.222V238.476C239.752 240.498 238.107 242.144 236.085 242.144V242.151Z" fill="white"/>
<path d="M218.299 177.896H227.876V180.203H218.299V177.896Z" fill="black"/>
<path d="M218.299 231.504H227.876V233.811H218.299V231.504Z" fill="black"/>
</g>
<g style="mix-blend-mode:multiply">
<circle cx="6.18474" cy="6.18474" r="6.18474" transform="matrix(-0.24705 -0.969003 -0.969003 0.24705 158.536 258.135)" fill="#C9CFEA"/>
</g>
<circle cx="6.26141" cy="6.26141" r="6.26141" transform="matrix(-0.24705 -0.969003 -0.969003 0.24705 156.993 257)" fill="#D0D6F1"/>
<circle cx="6.26141" cy="6.26141" r="6.26141" transform="matrix(0.24705 0.969003 0.969003 -0.24705 113.538 229.551)" fill="#C9CFEA"/>
<path d="M123.723 235.582C124.025 234.955 124.252 233.52 122.748 232.796" stroke="black" stroke-width="1.15317"/>
<path d="M149.687 217.099C154.995 217.099 159.298 221.402 159.298 226.71C159.298 232.017 154.995 236.32 149.687 236.32C144.379 236.32 140.076 232.017 140.076 226.71C140.076 221.402 144.379 217.099 149.687 217.099Z" fill="#FCD400"/>
<path d="M149.504 224.245C149.075 224.238 148.657 224.387 148.329 224.665C147.662 225.263 147.321 226.144 147.411 227.036C147.547 228.2 148.199 228.903 149.349 229.134C150.052 229.27 151.027 229.285 151.686 228.924C151.888 228.808 151.957 228.551 151.841 228.349C151.726 228.147 151.468 228.078 151.267 228.194C150.847 228.433 150.056 228.427 149.502 228.32C148.711 228.167 148.332 227.757 148.243 226.954C148.191 226.343 148.423 225.742 148.873 225.326C149.402 224.885 150.163 225.171 151.101 225.592L151.395 225.722C151.534 225.79 151.698 225.776 151.824 225.685C151.949 225.595 152.015 225.443 151.994 225.29C151.974 225.136 151.871 225.007 151.726 224.952L151.443 224.827C150.904 224.562 150.197 224.245 149.504 224.245Z" fill="#E2B420"/>
<path d="M150.116 222.424C149.891 222.424 149.705 222.601 149.696 222.827C149.696 222.837 149.654 223.848 149.581 224.474C149.563 224.623 149.627 224.771 149.748 224.862C149.869 224.952 150.029 224.971 150.168 224.911C150.306 224.851 150.403 224.722 150.42 224.572C150.498 223.915 150.54 222.904 150.542 222.86C150.546 222.749 150.507 222.64 150.431 222.559C150.355 222.477 150.25 222.428 150.139 222.424H150.116Z" fill="#E2B420"/>
<path d="M149.746 228.342C149.522 228.342 149.337 228.518 149.326 228.742C149.295 229.447 149.326 230.545 149.326 230.591C149.33 230.741 149.414 230.877 149.545 230.949C149.677 231.021 149.837 231.017 149.965 230.938C150.093 230.86 150.169 230.72 150.166 230.57C150.166 230.559 150.138 229.454 150.166 228.778C150.175 228.547 149.996 228.352 149.765 228.342H149.746Z" fill="#E2B420"/>
<path d="M152.429 219.12C152.221 219.12 152.044 219.274 152.014 219.48C151.984 219.687 152.111 219.884 152.312 219.943C153.848 220.396 155.117 221.485 155.979 223.09C157.028 225.059 157.301 227.535 156.657 229.396C156.581 229.615 156.697 229.854 156.916 229.93C157.135 230.006 157.374 229.89 157.45 229.671C158.167 227.598 157.88 224.858 156.72 222.693C155.748 220.88 154.305 219.649 152.549 219.126C152.51 219.119 152.469 219.117 152.429 219.12Z" fill="#E2B420"/>
<path d="M149.941 218.405C149.709 218.382 149.503 218.552 149.481 218.783C149.458 219.015 149.627 219.221 149.859 219.244L149.995 219.271C150.144 219.305 150.299 219.255 150.401 219.142C150.502 219.028 150.534 218.869 150.485 218.725C150.435 218.581 150.311 218.475 150.161 218.449L150.023 218.422C149.996 218.413 149.969 218.407 149.941 218.405Z" fill="#E2B420"/>
<path d="M143.065 230.578C142.912 230.578 142.771 230.662 142.698 230.797C142.624 230.931 142.63 231.095 142.713 231.224C143.529 232.401 144.59 233.387 145.824 234.113C146.992 234.709 148.274 235.046 149.584 235.101C149.815 235.109 150.009 234.927 150.017 234.695C150.024 234.464 149.843 234.27 149.611 234.262C148.434 234.21 147.282 233.908 146.231 233.377C145.119 232.719 144.16 231.83 143.42 230.771C143.342 230.65 143.209 230.578 143.065 230.578Z" fill="#E2B420"/>
<path d="M150.719 221.318C147.361 221.038 145.402 218.239 144.842 216C144.282 218.799 141.763 220.758 139.244 221.598C142.883 222.157 144.562 225.236 144.842 227.755C145.122 225.236 147.081 222.157 150.719 221.318Z" fill="white"/>
<ellipse cx="120.146" cy="267.715" rx="17.4057" ry="17.7783" transform="rotate(75.697 120.146 267.715)" fill="#FCD400"/>
<ellipse cx="120.147" cy="267.725" rx="13.0543" ry="13.3337" transform="rotate(75.697 120.147 267.725)" stroke="white" stroke-width="1.15317"/>
<path d="M123.372 280.37C130.507 278.55 134.848 271.412 133.067 264.426" stroke="#E2B420" stroke-width="1.15317" stroke-linecap="round"/>
<path d="M107.227 271.018C105.446 264.032 109.787 256.894 116.922 255.074" stroke="#E2B420" stroke-width="1.15317" stroke-linecap="round"/>
<path d="M107.839 276.047C108.276 270.804 112.646 267.745 116.141 266.871C111.772 265.997 108.713 262.065 107.402 258.132C106.529 263.812 101.722 266.434 97.7896 266.871C101.722 267.308 106.529 270.367 107.839 276.047Z" fill="white"/>
<ellipse cx="156.035" cy="277.104" rx="8.08777" ry="8.2609" transform="rotate(75.697 156.035 277.104)" fill="#FCD400"/>
<ellipse cx="156.035" cy="277.115" rx="6.06583" ry="6.19568" transform="rotate(75.697 156.035 277.115)" stroke="white" stroke-width="1.15317"/>
<path d="M157.535 282.998C160.85 282.153 162.867 278.836 162.04 275.59" stroke="#E2B420" stroke-width="1.15317" stroke-linecap="round"/>
<path d="M150.031 278.643C149.203 275.397 151.22 272.08 154.536 271.234" stroke="#E2B420" stroke-width="1.15317" stroke-linecap="round"/>
<path d="M155.507 275.558C155.102 273.147 156.718 271.269 158.191 270.474C156.124 270.582 154.295 269.163 153.253 267.542C153.512 270.2 151.649 271.932 149.928 272.581C151.749 272.326 154.264 273.151 155.507 275.558Z" fill="white"/>
<defs>
<filter id="filter0_f_8385_75371" x="0.78125" y="0" width="411" height="411" filterUnits="userSpaceOnUse" color-interpolation-filters="sRGB">
<feFlood flood-opacity="0" result="BackgroundImageFix"/>
<feBlend mode="normal" in="SourceGraphic" in2="BackgroundImageFix" result="shape"/>
<feGaussianBlur stdDeviation="50" result="effect1_foregroundBlur_8385_75371"/>
</filter>
<clipPath id="clip0_8385_75371">
<rect width="177" height="163" fill="white" transform="translate(145.914 124)"/>
</clipPath>
</defs>
</svg>
