<svg width="339" height="261" viewBox="0 0 339 261" fill="none" xmlns="http://www.w3.org/2000/svg">
<g filter="url(#filter0_f_7933_120368)">
<circle cx="156.692" cy="130.764" r="100.022" fill="#EAF1FF"/>
</g>
<g clip-path="url(#clip0_7933_120368)">
<path d="M76.9849 206.717H243.27C245.591 206.717 247.474 204.833 247.474 202.511V50.2291C247.474 47.9072 245.591 46.0234 243.27 46.0234H76.9849C74.6635 46.0234 72.7803 47.9072 72.7803 50.2291V202.511C72.7803 204.833 74.6635 206.717 76.9849 206.717Z" fill="#C9CFEA"/>
<path d="M99.0835 186.285H220.955C223.276 186.285 225.16 184.401 225.16 182.079V70.6549C225.16 68.3329 223.276 66.4492 220.955 66.4492H99.0835C96.7621 66.4492 94.8789 68.3329 94.8789 70.6549V182.079C94.8789 184.401 96.7621 186.285 99.0835 186.285Z" fill="black"/>
<path d="M220.956 187.439H99.0841C96.1325 187.439 93.7266 185.033 93.7266 182.08V70.6559C93.7266 67.7034 96.1325 65.2969 99.0841 65.2969H220.956C223.907 65.2969 226.313 67.7034 226.313 70.6559V182.08C226.313 185.033 223.907 187.439 220.956 187.439ZM99.0841 67.6035C97.4008 67.6035 96.0326 68.9721 96.0326 70.6559V182.08C96.0326 183.764 97.4008 185.133 99.0841 185.133H220.956C222.639 185.133 224.007 183.764 224.007 182.08V70.6559C224.007 68.9721 222.639 67.6035 220.956 67.6035H99.0841Z" fill="black"/>
<path d="M145.05 168.194L144.466 161.412L145.112 161.105L145.227 152.686C131.353 153.754 115.757 156.276 102.174 151.355C102.259 154.369 102.144 157.752 102.213 160.766L102.151 160.743C102.267 164.142 102.151 168.017 102.213 171.4H102.19C102.167 172.084 102.144 173.499 102.144 174.191H102.205C102.22 176.982 102.151 180.188 102.228 182.987C108.485 186.024 117.094 185.409 123.674 185.739C130.246 185.401 138.84 186.024 145.096 182.987C145.143 179.411 145.127 175.583 145.081 172.007L145.196 171.961L145.05 168.194Z" fill="#FCD400"/>
<path d="M123.889 186.858H123.758C122.213 186.774 120.637 186.743 118.969 186.712C113.273 186.612 107.378 186.512 102.12 184.067L101.451 183.053C101.413 181.469 101.421 179.77 101.428 178.132C101.436 176.51 101.451 174.833 101.405 173.28L103.711 173.219C103.75 174.803 103.742 176.502 103.734 178.14C103.727 179.508 103.719 180.923 103.734 182.261C108.408 184.221 113.788 184.314 119 184.406C120.668 184.437 122.244 184.46 123.812 184.552C125.38 184.467 126.956 184.437 128.624 184.406C133.835 184.314 139.216 184.221 143.889 182.261C143.912 180.946 143.905 179.562 143.889 178.216C143.882 176.602 143.866 174.926 143.912 173.365L146.218 173.426C146.18 174.949 146.188 176.602 146.195 178.201C146.203 179.816 146.218 181.492 146.172 183.053L145.503 184.067C140.238 186.512 134.35 186.612 128.654 186.712C126.986 186.743 125.411 186.766 123.866 186.858H123.889Z" fill="black"/>
<path d="M123.889 186.859H123.758C122.213 186.775 120.637 186.744 118.969 186.713C113.274 186.613 107.378 186.513 102.12 184.068L101.452 183.099C101.39 182.238 101.421 177.933 101.452 173.604C101.452 172.65 101.467 171.92 101.467 171.589H103.773C103.773 171.92 103.773 172.658 103.758 173.619C103.742 176.133 103.704 180.485 103.734 182.261C108.408 184.222 113.796 184.314 119.008 184.406C120.676 184.437 122.252 184.46 123.82 184.553C125.388 184.468 126.963 184.437 128.631 184.406C133.843 184.314 139.224 184.222 143.889 182.269C143.92 179.324 143.92 175.741 143.92 172.558V169.621H146.226V172.558C146.226 176.026 146.226 179.962 146.188 183.046L145.519 184.076C140.254 186.521 134.366 186.621 128.67 186.721C127.002 186.751 125.426 186.775 123.881 186.867L123.889 186.859Z" fill="black"/>
<path d="M123.889 175.88H123.758C122.213 175.796 120.637 175.765 118.969 175.734C113.273 175.634 107.378 175.534 102.12 173.089L101.451 172.067C101.413 170.114 101.421 167.915 101.428 165.793C101.436 163.663 101.444 161.464 101.405 159.511L103.711 159.465C103.75 161.449 103.742 163.663 103.734 165.8C103.734 167.646 103.719 169.545 103.742 171.282C108.415 173.243 113.796 173.335 119.008 173.427C120.676 173.458 122.251 173.481 123.819 173.574C125.388 173.489 126.963 173.458 128.631 173.427C133.843 173.335 139.223 173.243 143.897 171.282C143.92 169.645 143.912 167.884 143.905 166.169C143.897 164.17 143.889 162.102 143.928 160.218L146.234 160.264C146.195 162.117 146.203 164.17 146.211 166.154C146.218 168.138 146.226 170.191 146.188 172.059L145.519 173.081C140.253 175.526 134.366 175.626 128.67 175.726C127.002 175.757 125.426 175.78 123.881 175.872L123.889 175.88Z" fill="black"/>
<path d="M123.888 165.277H123.758C122.213 165.193 120.637 165.162 118.969 165.131C113.273 165.031 107.378 164.931 102.12 162.486L101.451 161.471C101.405 159.988 101.42 158.404 101.428 156.874C101.436 155.213 101.451 153.491 101.39 151.914L102.366 150.73L105.471 150.238L105.833 152.522L103.726 152.852C103.749 154.175 103.742 155.551 103.734 156.881C103.726 158.142 103.719 159.442 103.734 160.672C108.408 162.632 113.788 162.725 119 162.817C120.668 162.848 122.243 162.871 123.812 162.963C125.38 162.878 126.955 162.848 128.623 162.817C133.835 162.725 139.216 162.632 143.881 160.68C143.881 160.095 143.889 159.48 143.897 158.865C143.912 156.974 143.92 155.021 143.981 153.237L143.366 153.252L143.32 150.946L145.165 150.907L146.341 152.122C146.233 154.175 146.218 156.566 146.203 158.888C146.203 159.78 146.187 160.649 146.18 161.464L145.511 162.494C140.246 164.939 134.358 165.039 128.662 165.139C126.994 165.17 125.418 165.193 123.873 165.285L123.888 165.277Z" fill="black"/>
<path d="M145.049 152.035C138.508 148.998 130.645 149.728 123.834 149.352C117.016 149.728 109.16 148.998 102.619 152.035C109.16 155.072 117.024 154.342 123.834 154.718C130.652 154.342 138.508 155.072 145.049 152.035Z" fill="black"/>
<path d="M123.766 155.873C122.221 155.788 120.645 155.757 118.977 155.726C113.281 155.626 107.386 155.527 102.128 153.082V150.99C107.393 148.545 113.281 148.445 118.977 148.345C120.645 148.315 122.221 148.291 123.766 148.199H123.896C125.441 148.284 127.017 148.315 128.685 148.345C134.381 148.445 140.277 148.545 145.534 150.99V153.082C140.269 155.527 134.381 155.626 128.685 155.726C127.017 155.757 125.441 155.78 123.896 155.873H123.766ZM105.887 152.036C110.022 153.266 114.58 153.343 119.015 153.42C120.683 153.451 122.259 153.474 123.827 153.566C125.395 153.481 126.971 153.451 128.639 153.42C133.074 153.343 137.632 153.266 141.768 152.036C137.632 150.806 133.074 150.729 128.639 150.652C126.971 150.621 125.395 150.598 123.827 150.506C122.259 150.59 120.683 150.621 119.015 150.652C114.58 150.729 110.022 150.806 105.887 152.036Z" fill="black"/>
<path d="M145.05 137.174L144.466 130.393L145.112 130.085L145.227 121.666C131.353 122.735 115.757 125.257 102.174 120.336C102.259 123.35 102.144 126.733 102.213 129.747L102.151 129.724C102.267 133.122 102.151 136.997 102.213 140.38H102.19C102.167 141.065 102.144 142.479 102.144 143.171H102.205C102.22 145.962 102.151 149.168 102.228 151.967C108.485 155.004 117.094 154.389 123.674 154.72C130.246 154.381 138.84 155.004 145.096 151.967C145.143 148.392 145.127 144.563 145.081 140.988L145.196 140.942L145.05 137.174Z" fill="#FCD400"/>
<path d="M123.889 155.855H123.758C122.213 155.77 120.637 155.739 118.969 155.708C113.273 155.609 107.378 155.509 102.12 153.064L101.451 152.049C101.413 150.465 101.421 148.766 101.428 147.128C101.436 145.506 101.451 143.829 101.405 142.276L103.711 142.215C103.75 143.799 103.742 145.498 103.734 147.136C103.727 148.504 103.719 149.919 103.734 151.257C108.408 153.217 113.788 153.31 119 153.402C120.668 153.433 122.244 153.456 123.812 153.548C125.38 153.463 126.956 153.433 128.624 153.402C133.835 153.31 139.216 153.217 143.889 151.257C143.912 149.942 143.905 148.558 143.889 147.212C143.882 145.598 143.866 143.922 143.912 142.361L146.218 142.422C146.18 143.945 146.188 145.598 146.195 147.197C146.203 148.812 146.218 150.488 146.172 152.049L145.503 153.064C140.238 155.509 134.35 155.609 128.654 155.708C126.986 155.739 125.411 155.762 123.866 155.855H123.889Z" fill="black"/>
<path d="M123.889 155.855H123.758C122.213 155.771 120.637 155.74 118.969 155.709C113.274 155.609 107.378 155.509 102.12 153.064L101.452 152.095C101.39 151.234 101.421 146.929 101.452 142.6C101.452 141.647 101.467 140.916 101.467 140.585H103.773C103.773 140.916 103.773 141.654 103.758 142.615C103.742 145.129 103.704 149.481 103.734 151.257C108.408 153.218 113.796 153.31 119.008 153.403C120.676 153.433 122.252 153.456 123.82 153.549C125.388 153.464 126.963 153.433 128.631 153.403C133.843 153.31 139.224 153.218 143.889 151.265C143.92 148.32 143.92 144.737 143.92 141.554V138.617H146.226V141.554C146.226 145.022 146.226 148.958 146.188 152.042L145.519 153.072C140.254 155.517 134.366 155.617 128.67 155.717C127.002 155.748 125.426 155.771 123.881 155.863L123.889 155.855Z" fill="black"/>
<path d="M123.889 144.865H123.758C122.213 144.78 120.637 144.749 118.969 144.718C113.273 144.619 107.378 144.519 102.12 142.074L101.451 141.051C101.413 139.098 101.421 136.899 101.428 134.777C101.436 132.647 101.444 130.448 101.405 128.495L103.711 128.449C103.75 130.433 103.742 132.647 103.734 134.785C103.734 136.63 103.719 138.529 103.742 140.267C108.415 142.227 113.796 142.32 119.008 142.412C120.676 142.443 122.251 142.466 123.819 142.558C125.388 142.473 126.963 142.443 128.631 142.412C133.843 142.32 139.223 142.227 143.897 140.267C143.92 138.629 143.912 136.868 143.905 135.154C143.897 133.155 143.889 131.086 143.928 129.203L146.234 129.249C146.195 131.102 146.203 133.155 146.211 135.138C146.218 137.122 146.226 139.175 146.188 141.043L145.519 142.066C140.253 144.511 134.366 144.611 128.67 144.711C127.002 144.742 125.426 144.765 123.881 144.857L123.889 144.865Z" fill="black"/>
<path d="M123.888 134.266H123.758C122.213 134.181 120.637 134.15 118.969 134.12C113.273 134.02 107.378 133.92 102.12 131.475L101.451 130.46C101.405 128.976 101.42 127.392 101.428 125.862C101.436 124.201 101.451 122.479 101.39 120.903L102.366 119.719L105.471 119.227L105.833 121.51L103.726 121.841C103.749 123.163 103.742 124.539 103.734 125.87C103.726 127.131 103.719 128.43 103.734 129.66C108.408 131.621 113.788 131.713 119 131.805C120.668 131.836 122.243 131.859 123.812 131.951C125.38 131.867 126.955 131.836 128.623 131.805C133.835 131.713 139.216 131.621 143.881 129.668C143.881 129.083 143.889 128.468 143.897 127.846C143.912 125.954 143.92 124.001 143.981 122.217L143.366 122.233L143.32 119.926L145.165 119.888L146.341 121.103C146.233 123.155 146.218 125.547 146.203 127.869C146.203 128.761 146.187 129.637 146.18 130.444L145.511 131.475C140.246 133.92 134.358 134.02 128.662 134.12C126.994 134.15 125.418 134.181 123.873 134.266H123.888Z" fill="black"/>
<path d="M145.049 121.031C138.508 117.994 130.645 118.724 123.834 118.348C117.016 118.724 109.16 117.994 102.619 121.031C109.16 124.068 117.024 123.338 123.834 123.714C130.652 123.338 138.508 124.068 145.049 121.031Z" fill="white"/>
<path d="M123.766 124.865C122.221 124.78 120.645 124.749 118.977 124.719C113.281 124.619 107.386 124.519 102.128 122.074V119.982C107.393 117.537 113.281 117.437 118.977 117.337C120.645 117.307 122.221 117.284 123.766 117.191H123.896C125.441 117.276 127.017 117.307 128.685 117.337C134.381 117.437 140.277 117.537 145.534 119.982V122.074C140.269 124.519 134.381 124.619 128.685 124.719C127.017 124.749 125.441 124.772 123.896 124.865H123.766ZM105.887 121.028C110.022 122.258 114.58 122.335 119.015 122.412C120.683 122.443 122.259 122.466 123.827 122.558C125.395 122.474 126.971 122.443 128.639 122.412C133.074 122.335 137.632 122.258 141.768 121.028C137.632 119.798 133.074 119.721 128.639 119.644C126.971 119.613 125.395 119.59 123.827 119.498C122.259 119.583 120.683 119.613 119.015 119.644C114.58 119.721 110.022 119.798 105.887 121.028Z" fill="black"/>
<path d="M123.052 186.285H220.957C223.278 186.285 225.161 184.401 225.161 182.079V70.6549C225.161 68.3329 223.278 66.4492 220.957 66.4492H123.052C120.731 66.4492 118.848 68.3329 118.848 70.6549V182.079C118.848 184.401 120.731 186.285 123.052 186.285Z" fill="white"/>
<path d="M131.299 186.285H220.956C223.278 186.285 225.161 184.401 225.161 182.079V70.6549C225.161 68.3329 223.278 66.4492 220.956 66.4492H131.299C128.978 66.4492 127.095 68.3329 127.095 70.6549V182.079C127.095 184.401 128.978 186.285 131.299 186.285Z" fill="#C9CFEA"/>
<path d="M220.803 114.172H229.512V139.268H220.803V114.172Z" fill="white"/>
<path d="M161.799 163.018H158.325C156.303 163.018 154.658 161.373 154.658 159.351V94.0894C154.658 92.0672 156.303 90.4219 158.325 90.4219H161.799C163.821 90.4219 165.466 92.0672 165.466 94.0894V159.343C165.466 161.365 163.821 163.011 161.799 163.011V163.018Z" fill="white"/>
<path d="M144.013 98.7617H153.59V101.068H144.013V98.7617Z" fill="black"/>
<path d="M144.013 152.371H153.59V154.678H144.013V152.371Z" fill="black"/>
</g>
<circle cx="6.26141" cy="6.26141" r="6.26141" transform="matrix(0.247051 0.969003 0.969003 -0.247051 264.633 45.2578)" fill="#C9CFEA"/>
<circle cx="6.26141" cy="6.26141" r="6.26141" transform="matrix(-0.247051 -0.969003 -0.969003 0.247051 311.088 72.4727)" fill="#C9CFEA"/>
<path d="M300.903 66.4414C300.602 67.0683 300.374 68.5031 301.879 69.2271" stroke="black" stroke-width="1.15317"/>
<path d="M274.939 65.7044C280.247 65.7044 284.55 70.0072 284.55 75.3151C284.55 80.6229 280.247 84.9258 274.939 84.9258C269.631 84.9258 265.328 80.6229 265.328 75.3151C265.328 70.0072 269.631 65.7044 274.939 65.7044Z" fill="#FCD400"/>
<path d="M274.756 72.8509C274.327 72.8436 273.909 72.9927 273.581 73.2705C272.914 73.8688 272.573 74.7496 272.663 75.6412C272.799 76.8055 273.451 77.5084 274.601 77.7391C275.304 77.8755 276.279 77.8902 276.938 77.5293C277.14 77.4135 277.209 77.1561 277.093 76.9545C276.978 76.7529 276.72 76.6834 276.519 76.7992C276.099 77.0384 275.308 77.0321 274.754 76.9251C273.963 76.772 273.584 76.3629 273.495 75.5594C273.443 74.9487 273.675 74.3479 274.125 73.9313C274.653 73.4908 275.415 73.7761 276.353 74.1978L276.647 74.3279C276.786 74.3955 276.95 74.3813 277.076 74.2909C277.201 74.2004 277.267 74.0484 277.246 73.8951C277.226 73.7419 277.123 73.6124 276.978 73.5579L276.695 73.432C276.156 73.1677 275.449 72.8509 274.756 72.8509Z" fill="#E2B420"/>
<path d="M275.367 71.0293C275.142 71.0291 274.956 71.207 274.947 71.4321C274.947 71.4426 274.905 72.4538 274.832 73.079C274.814 73.2289 274.878 73.3768 274.999 73.467C275.12 73.5572 275.28 73.576 275.419 73.5163C275.557 73.4566 275.654 73.3275 275.671 73.1776C275.749 72.5209 275.791 71.5097 275.793 71.4657C275.797 71.3544 275.757 71.2458 275.682 71.164C275.606 71.0821 275.501 71.0337 275.39 71.0293L275.367 71.0293Z" fill="#E2B420"/>
<path d="M274.999 76.9472C274.774 76.947 274.59 77.1236 274.579 77.3479C274.548 78.0529 274.579 79.1501 274.579 79.1962C274.583 79.3461 274.667 79.4827 274.798 79.5544C274.93 79.6261 275.09 79.6221 275.218 79.5439C275.346 79.4657 275.422 79.3252 275.419 79.1753C275.419 79.1648 275.391 78.0591 275.419 77.3836C275.428 77.1526 275.249 76.9574 275.018 76.9472L274.999 76.9472Z" fill="#E2B420"/>
<path d="M277.68 67.7257C277.472 67.7257 277.295 67.8792 277.265 68.0859C277.235 68.2926 277.362 68.4896 277.563 68.548C279.099 69.0012 280.368 70.09 281.23 71.695C282.279 73.665 282.552 76.1405 281.908 78.0014C281.832 78.2204 281.948 78.4595 282.167 78.5353C282.386 78.6112 282.625 78.4952 282.701 78.2762C283.418 76.2035 283.131 73.4635 281.971 71.2985C280.999 69.4858 279.556 68.2543 277.8 67.7319C277.761 67.7248 277.72 67.7226 277.68 67.7257Z" fill="#E2B420"/>
<path d="M275.193 67.0103C274.961 66.9877 274.755 67.1571 274.732 67.3888C274.71 67.6204 274.879 67.8265 275.111 67.849L275.247 67.8763C275.396 67.91 275.551 67.8606 275.652 67.7472C275.754 67.6338 275.786 67.4742 275.736 67.3303C275.687 67.1864 275.563 67.0807 275.413 67.0543L275.275 67.027C275.248 67.0183 275.221 67.0127 275.193 67.0103Z" fill="#E2B420"/>
<path d="M268.317 79.1836C268.164 79.1839 268.023 79.2677 267.95 79.4023C267.876 79.5369 267.882 79.7008 267.965 79.8298C268.781 81.0065 269.842 81.9921 271.076 82.7187C272.244 83.3146 273.526 83.6517 274.836 83.7068C275.067 83.7143 275.261 83.5326 275.269 83.3009C275.276 83.0691 275.095 82.8752 274.863 82.8676C273.686 82.8157 272.534 82.5139 271.483 81.9823C270.371 81.3242 269.412 80.4357 268.672 79.3766C268.594 79.2559 268.461 79.1831 268.317 79.1836Z" fill="#E2B420"/>
<path d="M273.907 80.7057C277.266 80.9856 279.225 83.7844 279.785 86.0234C280.344 83.2246 282.863 81.2655 285.382 80.4258C281.744 79.8661 280.065 76.7874 279.785 74.2685C279.505 76.7874 277.546 79.8661 273.907 80.7057Z" fill="white"/>
<ellipse cx="304.478" cy="34.2964" rx="17.4057" ry="17.7783" transform="rotate(-104.303 304.478 34.2964)" fill="#FCD400"/>
<ellipse cx="304.477" cy="34.2867" rx="13.0543" ry="13.3337" transform="rotate(-104.303 304.477 34.2867)" stroke="white" stroke-width="1.15317"/>
<path d="M301.252 21.6422C294.116 23.4615 289.775 30.5997 291.557 37.5859" stroke="#E2B420" stroke-width="1.15317" stroke-linecap="round"/>
<path d="M317.398 30.9938C319.179 37.98 314.838 45.1182 307.702 46.9375" stroke="#E2B420" stroke-width="1.15317" stroke-linecap="round"/>
<path d="M316.783 25.9688C316.347 31.2121 311.977 34.2708 308.481 35.1444C312.851 36.0185 315.91 39.9511 317.22 43.8836C318.094 38.2033 322.901 35.5816 326.833 35.1444C322.901 34.7077 318.094 31.6491 316.783 25.9688Z" fill="white"/>
<ellipse cx="268.589" cy="24.9268" rx="8.08777" ry="8.2609" transform="rotate(-104.303 268.589 24.9268)" fill="#FCD400"/>
<ellipse cx="268.588" cy="24.9158" rx="6.06583" ry="6.19568" transform="rotate(-104.303 268.588 24.9158)" stroke="white" stroke-width="1.15317"/>
<path d="M267.089 19.033C263.773 19.8783 261.756 23.1952 262.584 26.4414" stroke="#E2B420" stroke-width="1.15317" stroke-linecap="round"/>
<path d="M274.593 23.3884C275.421 26.6346 273.404 29.9515 270.088 30.7969" stroke="#E2B420" stroke-width="1.15317" stroke-linecap="round"/>
<path d="M269.116 26.4728C269.521 28.8838 267.905 30.7626 266.431 31.5572C268.499 31.4492 270.328 32.8687 271.369 34.4889C271.111 31.831 272.974 30.0988 274.694 29.4505C272.874 29.7053 270.358 28.8799 269.116 26.4728Z" fill="white"/>
<defs>
<filter id="filter0_f_7933_120368" x="26.6699" y="0.742188" width="260.043" height="260.043" filterUnits="userSpaceOnUse" color-interpolation-filters="sRGB">
<feFlood flood-opacity="0" result="BackgroundImageFix"/>
<feBlend mode="normal" in="SourceGraphic" in2="BackgroundImageFix" result="shape"/>
<feGaussianBlur stdDeviation="15" result="effect1_foregroundBlur_7933_120368"/>
</filter>
<clipPath id="clip0_7933_120368">
<rect width="177" height="163" fill="white" transform="translate(71.6279 44.8672)"/>
</clipPath>
</defs>
</svg>
