<svg width="120" height="31" viewBox="0 0 120 31" fill="none" xmlns="http://www.w3.org/2000/svg">
<path d="M48.1285 28.4949C49.2615 28.4949 50.319 28.2619 51.301 27.7959C52.2938 27.319 53.1678 26.6471 53.9232 25.7801V27.9747H58.8924V11.3283H53.9232V13.3604C53.2649 12.5584 52.4286 11.9352 51.4143 11.4909C50.4 11.0357 49.3047 10.8081 48.1285 10.8081C46.5314 10.8081 45.1124 11.1983 43.8714 11.9786C42.6413 12.748 41.6755 13.7993 40.9741 15.1323C40.2727 16.4545 39.922 17.95 39.922 19.619C39.922 21.3313 40.2889 22.8594 41.0226 24.2033C41.7564 25.5363 42.7384 26.5875 43.9686 27.357C45.2095 28.1156 46.5962 28.4949 48.1285 28.4949ZM49.6014 24.252C48.3173 24.252 47.2544 23.8185 46.4127 22.9515C45.571 22.0845 45.1502 20.9845 45.1502 19.6515C45.1502 18.3185 45.571 17.2185 46.4127 16.3515C47.2652 15.4845 48.3281 15.051 49.6014 15.051C50.8855 15.051 51.9431 15.4845 52.774 16.3515C53.6156 17.2077 54.0365 18.3077 54.0365 19.6515C54.0365 20.9954 53.621 22.1008 52.7901 22.9678C51.9592 23.8239 50.8963 24.252 49.6014 24.252Z" fill="black"/>
<path d="M63.1191 27.9747H68.0883V0.0140155H63.1191V27.9747Z" fill="black"/>
<path d="M72.3124 27.9747H77.2816V0.0140155H72.3124V27.9747Z" fill="black"/>
<path d="M89.6313 28.4949C92.6636 28.4949 94.8434 27.8988 96.1706 26.7067C97.5087 25.5038 98.1777 23.5313 98.1777 20.7895V11.3283H93.2085V19.619C93.2085 21.3747 92.9388 22.6156 92.3992 23.3417C91.8705 24.0678 90.9478 24.4308 89.6313 24.4308C88.3256 24.4308 87.403 24.0678 86.8635 23.3417C86.3239 22.6156 86.0542 21.3747 86.0542 19.619V11.3283H81.0849V20.7895C81.0849 23.5313 81.754 25.5038 83.092 26.7067C84.4301 27.8988 86.6099 28.4949 89.6313 28.4949Z" fill="black"/>
<path d="M110.272 28.4949C112.106 28.4949 113.757 28.121 115.225 27.3732C116.693 26.6146 117.853 25.5742 118.705 24.252C119.568 22.919 120 21.3855 120 19.6515C120 17.9175 119.568 16.3894 118.705 15.0673C117.853 13.7343 116.693 12.6939 115.225 11.9461C113.757 11.1875 112.106 10.8081 110.272 10.8081C108.448 10.8081 106.797 11.1875 105.319 11.9461C103.851 12.6939 102.686 13.7343 101.823 15.0673C100.97 16.3894 100.544 17.9175 100.544 19.6515C100.544 21.3855 100.97 22.919 101.823 24.252C102.686 25.5742 103.851 26.6146 105.319 27.3732C106.797 28.121 108.448 28.4949 110.272 28.4949ZM110.272 24.2358C109.43 24.2358 108.664 24.0407 107.974 23.6505C107.294 23.2604 106.754 22.7239 106.355 22.0412C105.956 21.3476 105.756 20.551 105.756 19.6515C105.756 18.752 105.956 17.9609 106.355 17.2781C106.754 16.5845 107.294 16.0426 107.974 15.6525C108.664 15.2623 109.43 15.0673 110.272 15.0673C111.124 15.0673 111.891 15.2623 112.57 15.6525C113.261 16.0426 113.806 16.5845 114.205 17.2781C114.615 17.9609 114.82 18.752 114.82 19.6515C114.82 20.551 114.615 21.3476 114.205 22.0412C113.806 22.7239 113.261 23.2604 112.57 23.6505C111.891 24.0407 111.124 24.2358 110.272 24.2358Z" fill="black"/>
<path d="M29.9858 19.4718V8.199L18.9182 19.4718H29.9858Z" fill="#2A73FF"/>
<path d="M29.9858 19.471V31L18.6608 19.471H29.9858Z" fill="#2A73FF"/>
<path d="M21.7491 0L0 21.6489L8.75113 29.8473L30.1142 8.0703L21.7491 0Z" fill="black"/>
</svg>
