<svg width="217" height="95" viewBox="0 0 217 95" fill="none" xmlns="http://www.w3.org/2000/svg">
<circle cx="13.2831" cy="13.2831" r="13.2831" transform="matrix(0.247051 0.969003 0.969003 -0.247051 57.6055 68.3359)" fill="#C9CFEA"/>
<circle cx="13.2831" cy="13.2831" r="13.2831" transform="matrix(-0.247051 -0.969003 -0.969003 0.247051 206.156 86.0625)" fill="#C9CFEA"/>
<path d="M184.549 73.2656C183.909 74.5956 183.427 77.6394 186.619 79.1753" stroke="black" stroke-width="2.44637"/>
<path d="M20.4685 41.7017C31.7287 41.7017 40.8569 50.8299 40.8569 62.0901C40.8569 73.3503 31.7287 82.4785 20.4685 82.4785C9.20828 82.4785 0.0800781 73.3503 0.0800781 62.0901C0.0800781 50.8299 9.20828 41.7017 20.4685 41.7017Z" fill="#FCD400"/>
<path d="M20.083 56.8572C19.1717 56.8417 18.2859 57.1581 17.5906 57.7473C16.1753 59.0165 15.4511 60.8851 15.6413 62.7766C15.9305 65.2467 17.3147 66.7376 19.7536 67.2272C21.2446 67.5165 23.3142 67.5477 24.7117 66.7822C25.1394 66.5364 25.2868 65.9904 25.041 65.5627C24.7952 65.135 24.2492 64.9875 23.8215 65.2333C22.9314 65.7407 21.2535 65.7274 20.0785 65.5004C18.4007 65.1755 17.5951 64.3076 17.4082 62.603C17.2966 61.3074 17.7893 60.0329 18.7434 59.1493C19.8649 58.2147 21.4805 58.8199 23.4699 59.7145L24.093 59.9905C24.3878 60.134 24.7377 60.1039 25.0036 59.912C25.2695 59.7201 25.4084 59.3975 25.365 59.0725C25.3217 58.7475 25.1031 58.4726 24.7962 58.3571L24.1954 58.09C23.0516 57.5293 21.5517 56.8572 20.083 56.8572Z" fill="#E2B420"/>
<path d="M21.3793 53.0044C20.9013 53.004 20.5083 53.3813 20.4892 53.8589C20.4892 53.8812 20.4002 56.0264 20.2444 57.3527C20.2071 57.6707 20.3422 57.9845 20.5989 58.1758C20.8556 58.3672 21.1949 58.4071 21.489 58.2804C21.7831 58.1538 21.9873 57.8799 22.0247 57.5618C22.1894 56.1688 22.2784 54.0236 22.2828 53.9301C22.2924 53.694 22.2078 53.4637 22.0475 53.2901C21.8872 53.1164 21.6644 53.0136 21.4283 53.0044H21.3793Z" fill="#E2B420"/>
<path d="M26.2867 45.9894C25.8437 45.9894 25.4681 46.3152 25.4055 46.7537C25.3429 47.1922 25.6122 47.6101 26.0375 47.7341C29.2953 48.6954 31.988 51.0053 33.8172 54.4101C36.0425 58.5892 36.6211 63.841 35.2547 67.7887C35.0937 68.2533 35.3398 68.7604 35.8044 68.9214C36.269 69.0824 36.7761 68.8363 36.9371 68.3717C38.4592 63.9745 37.8495 58.1619 35.3883 53.5689C33.3276 49.7235 30.2656 47.111 26.5404 46.0028C26.4567 45.9875 26.3715 45.983 26.2867 45.9894Z" fill="#E2B420"/>
<path d="M21.0081 44.4786C20.5167 44.4307 20.0795 44.7902 20.0316 45.2815C19.9837 45.7729 20.3432 46.2101 20.8346 46.258L21.1237 46.3158C21.4387 46.3873 21.7678 46.2825 21.9833 46.0419C22.1989 45.8013 22.2671 45.4628 22.1616 45.1575C22.056 44.8522 21.7933 44.6281 21.4752 44.572L21.1816 44.5142C21.1253 44.4956 21.0671 44.4837 21.0081 44.4786Z" fill="#E2B420"/>
<path d="M25.2793 68.5333C32.4042 69.127 36.5605 75.0645 37.7476 79.8145C38.9354 73.877 44.2791 69.7208 49.6229 67.9395C41.9042 66.752 38.3417 60.2208 37.7476 54.8771C37.1542 60.2208 32.998 66.752 25.2793 68.5333Z" fill="white"/>
<path d="M202.965 30.8469C208.193 30.8469 212.43 35.0846 212.43 40.3121C212.43 45.5396 208.193 49.7773 202.965 49.7773C197.738 49.7773 193.5 45.5396 193.5 40.3121C193.5 35.0846 197.738 30.8469 202.965 30.8469Z" fill="#FCD400"/>
<path d="M205.666 32.8389C205.461 32.8389 205.286 32.9901 205.257 33.1937C205.228 33.3972 205.353 33.5912 205.551 33.6488C207.063 34.0951 208.313 35.1675 209.162 36.7481C210.195 38.6883 210.464 41.1264 209.83 42.9591C209.755 43.1747 209.869 43.4102 210.085 43.4849C210.301 43.5597 210.536 43.4454 210.611 43.2297C211.317 41.1883 211.034 38.4899 209.892 36.3576C208.935 34.5724 207.513 33.3595 205.784 32.8451C205.745 32.838 205.706 32.8359 205.666 32.8389Z" fill="#E2B420"/>
<path d="M203.216 32.1368C202.988 32.1146 202.785 32.2815 202.762 32.5096C202.74 32.7377 202.907 32.9407 203.135 32.9629L203.269 32.9897C203.416 33.0229 203.568 32.9743 203.668 32.8626C203.769 32.7509 203.8 32.5937 203.751 32.452C203.702 32.3103 203.58 32.2062 203.433 32.1802L203.296 32.1533C203.27 32.1447 203.243 32.1392 203.216 32.1368Z" fill="#E2B420"/>
<path d="M205.199 43.3038C208.506 43.5794 210.436 46.3359 210.987 48.541C211.538 45.7846 214.019 43.8551 216.5 43.0281C212.917 42.4769 211.263 39.4448 210.987 36.964C210.711 39.4448 208.782 42.4769 205.199 43.3038Z" fill="white"/>
<ellipse cx="132.139" cy="45.0974" rx="36.9249" ry="37.7153" transform="rotate(-104.303 132.139 45.0974)" fill="#FCD400"/>
<ellipse cx="132.136" cy="45.0828" rx="27.6937" ry="28.2865" transform="rotate(-104.303 132.136 45.0828)" stroke="white" stroke-width="2.44637"/>
<path d="M125.295 18.2547C110.157 22.1142 100.948 37.2574 104.727 52.0781" stroke="#E2B420" stroke-width="2.44637" stroke-linecap="round"/>
<path d="M159.545 38.0906C163.323 52.9113 154.115 68.0546 138.977 71.9141" stroke="#E2B420" stroke-width="2.44637" stroke-linecap="round"/>
<path d="M158.245 27.4297C157.318 38.5531 148.048 45.0418 140.633 46.8951C149.902 48.7496 156.391 57.0921 159.172 65.4347C161.026 53.3843 171.222 47.8226 179.565 46.8951C171.222 45.9687 161.026 39.4801 158.245 27.4297Z" fill="white"/>
<ellipse cx="65.0026" cy="25.1853" rx="17.1576" ry="17.5249" transform="rotate(-104.303 65.0026 25.1853)" fill="#FCD400"/>
<ellipse cx="65.0025" cy="25.1742" rx="12.8682" ry="13.1437" transform="rotate(-104.303 65.0025 25.1742)" stroke="white" stroke-width="2.44637"/>
<path d="M61.8208 12.6898C54.7868 14.4831 50.5079 21.5196 52.2637 28.4062" stroke="#E2B420" stroke-width="2.44637" stroke-linecap="round"/>
<path d="M77.7388 21.9242C79.4946 28.8108 75.2157 35.8473 68.1816 37.6406" stroke="#E2B420" stroke-width="2.44637" stroke-linecap="round"/>
<path d="M75.1234 12.4626C75.9829 17.5774 72.5541 21.5631 69.4279 23.2488C73.8145 23.0197 77.6937 26.0312 79.9035 29.4683C79.3549 23.8297 83.3075 20.155 86.9573 18.7796C83.0947 19.3202 77.7588 17.5692 75.1234 12.4626Z" fill="white"/>
</svg>
