<svg width="180" height="61" viewBox="0 0 180 61" fill="none" xmlns="http://www.w3.org/2000/svg">
<g clip-path="url(#clip0_7324_75756)">
<path d="M165.202 0.85957H14.302C13.752 0.85957 13.2085 0.85957 12.6599 0.86257C12.2007 0.86557 11.7451 0.874285 11.2815 0.88162C10.2743 0.893473 9.26941 0.982084 8.27565 1.14669C7.28329 1.31487 6.32201 1.63194 5.42433 2.08718C4.52775 2.54628 3.70852 3.14282 2.99635 3.85518C2.28045 4.56553 1.68369 5.38659 1.22902 6.28681C0.7731 7.18523 0.456961 8.14798 0.291525 9.14179C0.124516 10.1343 0.0346476 11.1384 0.022725 12.1448C0.008805 12.6047 0.007335 13.0661 0 13.5261V48.1975C0.007335 48.6632 0.008805 49.1144 0.022725 49.5803C0.0346512 50.5867 0.12452 51.5907 0.291525 52.5832C0.456504 53.5776 0.772662 54.5409 1.22902 55.4396C1.68349 56.3369 2.28033 57.1547 2.99635 57.8611C3.70582 58.5766 4.52558 59.1735 5.42433 59.6291C6.322 60.0856 7.28317 60.4045 8.27565 60.5753C9.26958 60.7386 10.2743 60.8273 11.2815 60.8405C11.7451 60.8507 12.2007 60.8566 12.6599 60.8566C13.2085 60.8596 13.752 60.8596 14.302 60.8596H165.202C165.741 60.8596 166.289 60.8596 166.828 60.8566C167.285 60.8566 167.754 60.8507 168.211 60.8405C169.216 60.828 170.219 60.7393 171.211 60.5753C172.207 60.4033 173.171 60.0845 174.073 59.6291C174.971 59.1733 175.79 58.5763 176.499 57.8611C177.213 57.1519 177.811 56.3348 178.271 55.4396C178.724 54.5402 179.038 53.577 179.2 52.5832C179.367 51.5905 179.46 50.5868 179.479 49.5803C179.484 49.1144 179.484 48.6632 179.484 48.1975C179.496 47.6525 179.496 47.1106 179.496 46.5568V15.1638C179.496 14.6144 179.496 14.0695 179.484 13.5261C179.484 13.0661 179.484 12.6047 179.479 12.1447C179.46 11.1382 179.367 10.1344 179.2 9.14173C179.037 8.14849 178.724 7.18582 178.271 6.28675C177.346 4.48236 175.877 3.01361 174.073 2.08705C173.171 1.63292 172.207 1.31593 171.211 1.14655C170.219 0.981224 169.216 0.892582 168.211 0.88141C167.754 0.87409 167.285 0.8653 166.828 0.862375C166.289 0.859375 165.741 0.859375 165.202 0.859375V0.85957Z" fill="#A6A6A6"/>
<path d="M12.6644 59.5469C12.2074 59.5469 11.7614 59.541 11.3079 59.5308C10.3686 59.5186 9.43148 59.4368 8.50423 59.2862C7.63961 59.1373 6.80203 58.8603 6.01912 58.4643C5.24338 58.0717 4.53584 57.5568 3.92362 56.9394C3.30253 56.3293 2.78544 55.6217 2.39285 54.8447C1.99593 54.0626 1.72124 53.2242 1.57835 52.3589C1.42404 51.4291 1.34055 50.4888 1.3286 49.5464C1.31909 49.23 1.30664 48.1767 1.30664 48.1767V13.5259C1.30664 13.5259 1.3199 12.4888 1.32868 12.1841C1.34011 11.2431 1.42312 10.3044 1.57697 9.37597C1.72013 8.50825 1.99503 7.6675 2.39216 6.88282C2.78331 6.10629 3.29752 5.39817 3.91487 4.7859C4.53153 4.16781 5.24132 3.65028 6.01838 3.25219C6.7995 2.85752 7.63549 2.58247 8.49836 2.43628C9.42866 2.28413 10.369 2.20187 11.3116 2.19019L12.6651 2.17188H166.818L168.188 2.19093C169.122 2.20202 170.053 2.28355 170.975 2.43481C171.847 2.58284 172.692 2.8598 173.482 3.25659C175.038 4.05885 176.305 5.32812 177.104 6.88648C177.495 7.66574 177.766 8.49964 177.907 9.35986C178.063 10.2959 178.15 11.242 178.168 12.1907C178.172 12.6155 178.172 13.0718 178.172 13.5259C178.184 14.0884 178.184 14.6238 178.184 15.1636V46.5566C178.184 47.1015 178.184 47.6333 178.172 48.1694C178.172 48.6572 178.172 49.104 178.166 49.5639C178.149 50.4957 178.063 51.4249 177.91 52.3442C177.77 53.2158 177.497 54.0606 177.1 54.8492C176.704 55.6178 176.19 56.3193 175.576 56.9277C174.964 57.5484 174.255 58.0663 173.477 58.4615C172.689 58.8605 171.846 59.1385 170.975 59.2862C170.048 59.4376 169.111 59.5194 168.171 59.5308C167.732 59.541 167.272 59.5469 166.825 59.5469L165.199 59.5499L12.6644 59.5469Z" fill="black"/>
<path d="M37.155 31.3099C37.1711 30.0579 37.5036 28.8303 38.1217 27.7414C38.7397 26.6524 39.6232 25.7375 40.6898 25.0818C40.0122 24.114 39.1183 23.3176 38.079 22.7558C37.0398 22.194 35.8839 21.8822 34.7031 21.8453C32.1842 21.5809 29.7423 23.3525 28.4587 23.3525C27.1503 23.3525 25.174 21.8715 23.046 21.9153C21.6694 21.9598 20.3279 22.36 19.1521 23.0771C17.9763 23.7942 17.0063 24.8037 16.3366 26.0071C13.4356 31.0297 15.5995 38.4113 18.3784 42.4712C19.7687 44.4592 21.3936 46.6799 23.5198 46.6012C25.6004 46.5149 26.3775 45.2744 28.8889 45.2744C31.3771 45.2744 32.1061 46.6012 34.2754 46.5511C36.508 46.5149 37.9146 44.5542 39.2562 42.5474C40.2551 41.1308 41.0238 39.5653 41.5338 37.9086C40.2368 37.36 39.1299 36.4418 38.3512 35.2683C37.5725 34.0949 37.1565 32.7182 37.155 31.3099Z" fill="white"/>
<path d="M33.0593 19.1754C34.2766 17.7141 34.8763 15.8358 34.7311 13.9395C32.8713 14.1348 31.1534 15.0236 29.9197 16.4289C29.3165 17.1154 28.8545 17.914 28.5601 18.7792C28.2658 19.6443 28.1448 20.559 28.2041 21.471C29.1343 21.4805 30.0546 21.2789 30.8956 20.8813C31.7366 20.4836 32.4764 19.9004 33.0593 19.1754Z" fill="white"/>
<path d="M63.4512 41.5689H56.3511L54.646 46.6036H51.6387L58.3638 27.9766H61.4883L68.2134 46.6036H65.1548L63.4512 41.5689ZM57.0864 39.2456H62.7144L59.94 31.0747H59.8624L57.0864 39.2456Z" fill="white"/>
<path d="M82.7359 39.8145C82.7359 44.0347 80.4771 46.7462 77.0684 46.7462C76.2049 46.7913 75.3462 46.5924 74.5905 46.1722C73.8348 45.752 73.2127 45.1275 72.7955 44.3702H72.731V51.0967H69.9434V33.0235H72.6416V35.2823H72.6929C73.1293 34.5286 73.7619 33.9073 74.5234 33.4845C75.2848 33.0618 76.1467 32.8533 77.0171 32.8814C80.4639 32.8814 82.7359 35.606 82.7359 39.8145ZM79.8706 39.8145C79.8706 37.065 78.4497 35.2574 76.2818 35.2574C74.1519 35.2574 72.7193 37.1031 72.7193 39.8145C72.7193 42.5509 74.1519 44.3834 76.2818 44.3834C78.4498 44.3834 79.8706 42.5889 79.8706 39.8145Z" fill="white"/>
<path d="M97.6831 39.8145C97.6831 44.0347 95.4244 46.7462 92.0157 46.7462C91.1522 46.7913 90.2934 46.5924 89.5377 46.1722C88.7821 45.752 88.16 45.1275 87.7427 44.3702H87.6782V51.0967H84.8906V33.0235H87.5889V35.2823H87.6401C88.0766 34.5286 88.7092 33.9073 89.4706 33.4845C90.232 33.0618 91.0939 32.8533 91.9644 32.8814C95.4112 32.8814 97.6831 35.606 97.6831 39.8145ZM94.8179 39.8145C94.8179 37.065 93.397 35.2574 91.229 35.2574C89.0992 35.2574 87.6665 37.1031 87.6665 39.8145C87.6665 42.5508 89.0992 44.3834 91.229 44.3834C93.397 44.3834 94.8179 42.5889 94.8179 39.8145H94.8179Z" fill="white"/>
<path d="M107.564 41.4137C107.771 43.2608 109.565 44.4736 112.018 44.4736C114.367 44.4736 116.058 43.2608 116.058 41.5952C116.058 40.1494 115.038 39.2837 112.624 38.6904L110.21 38.1089C106.79 37.2827 105.202 35.6831 105.202 33.0874C105.202 29.8735 108.002 27.666 111.98 27.666C115.916 27.666 118.614 29.8735 118.705 33.0874H115.891C115.722 31.2285 114.186 30.1065 111.94 30.1065C109.694 30.1065 108.158 31.2417 108.158 32.8941C108.158 34.2109 109.139 34.9859 111.54 35.5791L113.592 36.083C117.414 36.9868 119.002 38.522 119.002 41.2465C119.002 44.7314 116.226 46.914 111.811 46.914C107.68 46.914 104.891 44.7827 104.711 41.4135L107.564 41.4137Z" fill="white"/>
<path d="M125.016 29.8096V33.0234H127.598V35.231H125.016V42.7178C125.016 43.8809 125.533 44.4229 126.668 44.4229C126.975 44.4175 127.281 44.396 127.585 44.3584V46.5527C127.075 46.6481 126.556 46.6912 126.037 46.6816C123.287 46.6816 122.215 45.6489 122.215 43.0151V35.231H120.24V33.0234H122.215V29.8096H125.016Z" fill="white"/>
<path d="M129.098 39.8145C129.098 35.5415 131.614 32.8564 135.539 32.8564C139.476 32.8564 141.981 35.5414 141.981 39.8145C141.981 44.0991 139.489 46.7725 135.539 46.7725C131.589 46.7725 129.098 44.0991 129.098 39.8145ZM139.141 39.8145C139.141 36.8833 137.797 35.1533 135.539 35.1533C133.28 35.1533 131.938 36.8965 131.938 39.8145C131.938 42.7573 133.28 44.4741 135.539 44.4741C137.797 44.4741 139.141 42.7573 139.141 39.8145H139.141Z" fill="white"/>
<path d="M144.277 33.0234H146.936V35.3349H147.001C147.18 34.6129 147.603 33.975 148.198 33.5281C148.793 33.0813 149.524 32.8529 150.267 32.8813C150.588 32.8801 150.909 32.915 151.222 32.9853V35.5927C150.817 35.4688 150.394 35.4119 149.97 35.4242C149.565 35.4078 149.161 35.4792 148.786 35.6336C148.412 35.7879 148.075 36.0215 147.799 36.3183C147.523 36.6152 147.314 36.9682 147.188 37.3532C147.061 37.7382 147.019 38.1461 147.065 38.5487V46.6039H144.277L144.277 33.0234Z" fill="white"/>
<path d="M164.073 42.6152C163.698 45.0806 161.297 46.7725 158.225 46.7725C154.274 46.7725 151.822 44.1255 151.822 39.8789C151.822 35.6191 154.288 32.8564 158.108 32.8564C161.865 32.8564 164.228 35.4375 164.228 39.5552V40.5103H154.636V40.6787C154.592 41.1785 154.655 41.682 154.82 42.1558C154.985 42.6295 155.249 43.0627 155.595 43.4265C155.94 43.7903 156.359 44.0765 156.824 44.2659C157.289 44.4554 157.788 44.5438 158.29 44.5254C158.948 44.5871 159.609 44.4345 160.174 44.0904C160.74 43.7462 161.178 43.2288 161.426 42.6152L164.073 42.6152ZM154.649 38.562H161.439C161.464 38.1126 161.396 37.6629 161.239 37.2411C161.082 36.8193 160.839 36.4345 160.527 36.1108C160.214 35.7872 159.837 35.5317 159.421 35.3603C159.005 35.189 158.558 35.1056 158.108 35.1152C157.654 35.1125 157.204 35.1997 156.784 35.3719C156.364 35.544 155.982 35.7976 155.66 36.118C155.339 36.4385 155.084 36.8194 154.911 37.2389C154.737 37.6584 154.648 38.1081 154.649 38.562V38.562Z" fill="white"/>
<path d="M56.7407 13.9555C57.3251 13.9135 57.9116 14.0018 58.4577 14.214C59.0039 14.4261 59.4962 14.7568 59.8991 15.1823C60.302 15.6077 60.6054 16.1173 60.7875 16.6742C60.9696 17.2311 61.0258 17.8215 60.9521 18.4027C60.9521 21.2621 59.4067 22.9057 56.7407 22.9057H53.5078V13.9555H56.7407ZM54.8979 21.64H56.5854C57.003 21.6649 57.421 21.5965 57.8088 21.4395C58.1966 21.2826 58.5445 21.0412 58.8273 20.7328C59.11 20.4245 59.3204 20.057 59.4432 19.6571C59.566 19.2571 59.5981 18.8349 59.5371 18.421C59.5937 18.0087 59.5583 17.5891 59.4337 17.1921C59.309 16.7951 59.098 16.4306 58.8159 16.1247C58.5338 15.8188 58.1876 15.5791 57.802 15.4227C57.4163 15.2664 57.0009 15.1972 56.5854 15.2203H54.8979V21.64Z" fill="white"/>
<path d="M62.519 19.5261C62.4765 19.0822 62.5273 18.6343 62.6681 18.2112C62.8088 17.7881 63.0364 17.3991 63.3364 17.0691C63.6363 16.7392 64.0018 16.4755 64.4096 16.2951C64.8174 16.1147 65.2584 16.0215 65.7043 16.0215C66.1502 16.0215 66.5912 16.1147 66.9989 16.2951C67.4067 16.4755 67.7723 16.7392 68.0722 17.0691C68.3721 17.3991 68.5997 17.7881 68.7405 18.2112C68.8813 18.6343 68.932 19.0822 68.8896 19.5261C68.9328 19.9704 68.8827 20.4189 68.7423 20.8426C68.6019 21.2664 68.3744 21.6562 68.0744 21.9868C67.7744 22.3174 67.4086 22.5816 67.0004 22.7624C66.5922 22.9432 66.1507 23.0366 65.7043 23.0366C65.2578 23.0366 64.8163 22.9432 64.4082 22.7624C64 22.5816 63.6341 22.3174 63.3341 21.9868C63.0342 21.6562 62.8067 21.2664 62.6663 20.8426C62.5259 20.4189 62.4757 19.9704 62.519 19.5261ZM67.5185 19.5261C67.5185 18.0619 66.8608 17.2057 65.7065 17.2057C64.5478 17.2057 63.896 18.0619 63.896 19.5261C63.896 21.0019 64.5478 21.8515 65.7065 21.8515C66.8608 21.8515 67.5185 20.996 67.5185 19.5261H67.5185Z" fill="white"/>
<path d="M77.3613 22.9058H75.9785L74.5825 17.9311H74.4771L73.0869 22.9058H71.7173L69.8555 16.1514H71.2075L72.4175 21.3054H72.5171L73.9058 16.1514H75.1846L76.5732 21.3054H76.6787L77.8828 16.1514H79.2158L77.3613 22.9058Z" fill="white"/>
<path d="M80.7832 16.1517H82.0664V17.2247H82.166C82.335 16.8393 82.62 16.5162 82.9813 16.3005C83.3426 16.0848 83.7622 15.9872 84.1816 16.0213C84.5103 15.9966 84.8403 16.0461 85.1472 16.1663C85.4541 16.2864 85.73 16.4741 85.9545 16.7154C86.1791 16.9566 86.3464 17.2453 86.4442 17.56C86.542 17.8748 86.5678 18.2075 86.5195 18.5335V22.906H85.1865V18.8682C85.1865 17.7828 84.7149 17.243 83.729 17.243C83.5059 17.2326 83.2831 17.2706 83.076 17.3543C82.869 17.4381 82.6824 17.5656 82.5292 17.7282C82.3761 17.8908 82.2598 18.0845 82.1885 18.2962C82.1172 18.5079 82.0926 18.7325 82.1162 18.9547V22.9061H80.7832L80.7832 16.1517Z" fill="white"/>
<path d="M88.6426 13.5146H89.9756V22.9058H88.6426V13.5146Z" fill="white"/>
<path d="M91.8295 19.5262C91.7871 19.0823 91.8379 18.6344 91.9787 18.2113C92.1195 17.7882 92.3471 17.3991 92.6471 17.0691C92.947 16.7392 93.3126 16.4755 93.7204 16.2951C94.1282 16.1147 94.5692 16.0215 95.0152 16.0215C95.4611 16.0215 95.9021 16.1147 96.3099 16.2951C96.7177 16.4755 97.0833 16.7392 97.3832 17.0691C97.6832 17.3991 97.9109 17.7882 98.0516 18.2113C98.1924 18.6344 98.2433 19.0823 98.2008 19.5262C98.244 19.9705 98.1938 20.419 98.0534 20.8428C97.913 21.2666 97.6854 21.6563 97.3854 21.9869C97.0854 22.3175 96.7195 22.5817 96.3113 22.7625C95.9031 22.9433 95.4616 23.0367 95.0152 23.0367C94.5687 23.0367 94.1272 22.9433 93.719 22.7625C93.3108 22.5817 92.9449 22.3175 92.6449 21.9869C92.3449 21.6563 92.1174 21.2666 91.9769 20.8428C91.8365 20.419 91.7863 19.9705 91.8295 19.5262ZM96.829 19.5262C96.829 18.0621 96.1713 17.2059 95.017 17.2059C93.8583 17.2059 93.2065 18.0621 93.2065 19.5262C93.2065 21.002 93.8583 21.8516 95.017 21.8516C96.1713 21.8516 96.829 20.9961 96.829 19.5262H96.829Z" fill="white"/>
<path d="M99.6016 20.9961C99.6016 19.7803 100.507 19.0793 102.114 18.9797L103.943 18.8743V18.2913C103.943 17.5779 103.472 17.175 102.561 17.175C101.816 17.175 101.301 17.4482 101.153 17.9258H99.8623C99.9985 16.7656 101.09 16.0215 102.622 16.0215C104.315 16.0215 105.271 16.8645 105.271 18.2913V22.9062H103.987V21.957H103.882C103.668 22.2975 103.367 22.5751 103.011 22.7614C102.654 22.9477 102.255 23.0361 101.853 23.0175C101.569 23.047 101.283 23.0168 101.012 22.9287C100.741 22.8407 100.491 22.6968 100.279 22.5063C100.067 22.3159 99.8968 22.0831 99.7802 21.823C99.6635 21.5628 99.6027 21.2812 99.6016 20.9961ZM103.943 20.4189V19.8542L102.294 19.9597C101.364 20.022 100.942 20.3384 100.942 20.9338C100.942 21.5417 101.469 21.8955 102.194 21.8955C102.407 21.917 102.621 21.8955 102.825 21.8324C103.029 21.7693 103.219 21.6657 103.382 21.528C103.545 21.3902 103.679 21.221 103.775 21.0305C103.872 20.84 103.929 20.632 103.943 20.4189Z" fill="white"/>
<path d="M107.023 19.5257C107.023 17.3914 108.121 16.0393 109.827 16.0393C110.249 16.0199 110.668 16.121 111.035 16.3308C111.402 16.5407 111.701 16.8506 111.898 17.2243H111.998V13.5146H113.331V22.9058H112.054V21.8386H111.948C111.736 22.2098 111.426 22.5159 111.052 22.7236C110.678 22.9313 110.255 23.0328 109.827 23.0171C108.109 23.0171 107.023 21.6651 107.023 19.5257ZM108.4 19.5257C108.4 20.9583 109.076 21.8203 110.205 21.8203C111.329 21.8203 112.023 20.9458 112.023 19.5315C112.023 18.1238 111.321 17.2368 110.205 17.2368C109.083 17.2368 108.4 18.1048 108.4 19.5257H108.4Z" fill="white"/>
<path d="M118.847 19.5261C118.805 19.0822 118.855 18.6343 118.996 18.2112C119.137 17.7881 119.365 17.3991 119.664 17.0691C119.964 16.7392 120.33 16.4755 120.738 16.2951C121.146 16.1147 121.586 16.0215 122.032 16.0215C122.478 16.0215 122.919 16.1147 123.327 16.2951C123.735 16.4755 124.1 16.7392 124.4 17.0691C124.7 17.3991 124.928 17.7881 125.069 18.2112C125.209 18.6343 125.26 19.0822 125.218 19.5261C125.261 19.9704 125.211 20.4189 125.07 20.8426C124.93 21.2664 124.703 21.6562 124.403 21.9868C124.103 22.3174 123.737 22.5816 123.329 22.7624C122.92 22.9432 122.479 23.0366 122.032 23.0366C121.586 23.0366 121.144 22.9432 120.736 22.7624C120.328 22.5816 119.962 22.3174 119.662 21.9868C119.362 21.6562 119.135 21.2664 118.994 20.8426C118.854 20.4189 118.804 19.9704 118.847 19.5261ZM123.847 19.5261C123.847 18.0619 123.189 17.2057 122.035 17.2057C120.876 17.2057 120.224 18.0619 120.224 19.5261C120.224 21.0019 120.876 21.8515 122.035 21.8515C123.189 21.8515 123.847 20.996 123.847 19.5261Z" fill="white"/>
<path d="M127.004 16.1517H128.287V17.2247H128.387C128.556 16.8393 128.841 16.5162 129.202 16.3005C129.563 16.0848 129.983 15.9872 130.402 16.0213C130.731 15.9966 131.061 16.0461 131.368 16.1663C131.675 16.2864 131.951 16.4741 132.175 16.7154C132.4 16.9566 132.567 17.2453 132.665 17.56C132.763 17.8748 132.788 18.2075 132.74 18.5335V22.906H131.407V18.8682C131.407 17.7828 130.936 17.243 129.95 17.243C129.727 17.2326 129.504 17.2706 129.297 17.3543C129.09 17.4381 128.903 17.5656 128.75 17.7282C128.597 17.8908 128.481 18.0845 128.409 18.2962C128.338 18.5079 128.313 18.7325 128.337 18.9547V22.9061H127.004V16.1517Z" fill="white"/>
<path d="M140.276 14.4697V16.1821H141.739V17.3049H140.276V20.7781C140.276 21.4856 140.567 21.7954 141.231 21.7954C141.401 21.7949 141.571 21.7846 141.739 21.7646V22.875C141.5 22.9178 141.257 22.9406 141.014 22.9431C139.532 22.9431 138.941 22.4216 138.941 21.1194V17.3049H137.869V16.1821H138.941V14.4697H140.276Z" fill="white"/>
<path d="M143.559 13.5146H144.88V17.2368H144.985C145.163 16.8478 145.455 16.523 145.824 16.3064C146.192 16.0899 146.619 15.9923 147.045 16.0269C147.372 16.0091 147.699 16.0637 148.002 16.1867C148.305 16.3098 148.578 16.4983 148.8 16.7388C149.022 16.9793 149.189 17.2659 149.287 17.5781C149.386 17.8903 149.415 18.2204 149.371 18.5449V22.9058H148.037V18.8738C148.037 17.7949 147.534 17.2485 146.592 17.2485C146.363 17.2297 146.133 17.2612 145.917 17.3408C145.701 17.4204 145.506 17.5461 145.344 17.7092C145.182 17.8723 145.057 18.0689 144.979 18.2851C144.901 18.5013 144.871 18.7319 144.892 18.9609V22.9057H143.559L143.559 13.5146Z" fill="white"/>
<path d="M157.146 21.0817C156.965 21.699 156.572 22.2329 156.037 22.5902C155.502 22.9474 154.859 23.1051 154.219 23.0357C153.774 23.0475 153.332 22.9623 152.923 22.786C152.515 22.6097 152.149 22.3465 151.852 22.0148C151.555 21.6831 151.334 21.2908 151.204 20.8651C151.074 20.4393 151.038 19.9904 151.099 19.5494C151.04 19.1071 151.076 18.6572 151.206 18.2302C151.336 17.8032 151.556 17.409 151.851 17.0744C152.146 16.7398 152.51 16.4726 152.918 16.2907C153.325 16.1089 153.767 16.0168 154.213 16.0206C156.093 16.0206 157.227 17.3046 157.227 19.4256V19.8908H152.457V19.9655C152.436 20.2133 152.467 20.4628 152.548 20.6979C152.63 20.9331 152.759 21.1486 152.928 21.3308C153.098 21.513 153.303 21.6578 153.532 21.7559C153.761 21.854 154.007 21.9032 154.256 21.9005C154.575 21.9387 154.898 21.8813 155.184 21.7355C155.47 21.5897 155.706 21.3621 155.863 21.0816L157.146 21.0817ZM152.457 18.9049H155.869C155.885 18.6782 155.855 18.4505 155.778 18.2364C155.702 18.0224 155.581 17.8266 155.425 17.6618C155.268 17.4971 155.079 17.3669 154.869 17.2796C154.659 17.1923 154.433 17.1499 154.206 17.1551C153.975 17.1522 153.747 17.1955 153.533 17.2825C153.32 17.3694 153.126 17.4982 152.963 17.6612C152.8 17.8243 152.671 18.0183 152.584 18.2319C152.497 18.4455 152.454 18.6743 152.457 18.9049H152.457Z" fill="white"/>
</g>
<defs>
<clipPath id="clip0_7324_75756">
<rect width="179.496" height="60" fill="white" transform="translate(0 0.859375)"/>
</clipPath>
</defs>
</svg>
