<svg width="10" height="7" viewBox="0 0 10 7" fill="none" xmlns="http://www.w3.org/2000/svg">
<path fill-rule="evenodd" clip-rule="evenodd" d="M5.96052 0.191732C5.73504 0.434558 5.7491 0.814197 5.99192 1.03968L7.67227 2.6L0.800195 2.6C0.468825 2.6 0.200195 2.86863 0.200195 3.2C0.200195 3.53137 0.468825 3.8 0.800195 3.8L7.67227 3.8L5.99192 5.36033C5.7491 5.58581 5.73504 5.96545 5.96052 6.20827C6.186 6.4511 6.56564 6.46516 6.80847 6.23968L9.60847 3.63968C9.73073 3.52615 9.80019 3.36684 9.80019 3.2C9.80019 3.03316 9.73073 2.87385 9.60847 2.76033L6.80847 0.160326C6.56564 -0.0651552 6.186 -0.0510945 5.96052 0.191732Z" fill="black"/>
</svg>
