<svg width="124" height="124" viewBox="0 0 124 124" fill="none" xmlns="http://www.w3.org/2000/svg">
<circle cx="62" cy="62.0312" r="61.8047" fill="#EFFAFF"/>
<g style="mix-blend-mode:multiply">
<path fill-rule="evenodd" clip-rule="evenodd" d="M57.5605 74.533C58.7626 75.6716 60.3492 76.3072 61.9989 76.3109C63.6485 76.3072 65.2351 75.6716 66.4372 74.533C67.6393 73.3944 68.3669 71.8378 68.4726 70.1787L70.6676 34.9258C70.7431 33.7311 70.5751 32.5334 70.1738 31.4067C69.7725 30.2799 69.1464 29.2479 68.3342 28.3743C67.522 27.5007 66.5409 26.804 65.4513 26.3271C64.3617 25.8502 63.1868 25.6033 61.9989 25.6016C60.811 25.6033 59.636 25.8502 58.5464 26.3271C57.4568 26.804 56.4757 27.5007 55.6635 28.3743C54.8513 29.2479 54.2252 30.2799 53.8239 31.4067C53.4226 32.5334 53.2546 33.7311 53.3301 34.9258L55.5251 70.1787C55.6308 71.8378 56.3584 73.3944 57.5605 74.533ZM57.5863 97.1082C58.8931 97.9882 60.4294 98.4578 62.001 98.4578C63.0446 98.458 64.078 98.2511 65.0422 97.8487C66.0064 97.4463 66.8825 96.8564 67.6205 96.1128C68.3584 95.3691 68.9437 94.4862 69.343 93.5145C69.7422 92.5428 69.9476 91.5013 69.9474 90.4496C69.9474 88.8657 69.4814 87.3174 68.6082 86.0005C67.735 84.6836 66.494 83.6571 65.042 83.051C63.59 82.4449 61.9922 82.2863 60.4508 82.5953C58.9093 82.9043 57.4934 83.667 56.3821 84.787C55.2708 85.9069 54.514 87.3339 54.2074 88.8873C53.9008 90.4407 54.0581 92.0509 54.6596 93.5142C55.261 94.9775 56.2795 96.2282 57.5863 97.1082Z" fill="black"/>
</g>
<path d="M117.68 61.6484C117.68 88.1187 99.1951 110.272 74.4298 115.903M71.3189 116.517C69.8257 116.768 68.3123 116.959 66.7812 117.088" stroke="#E2F4FC" stroke-width="2" stroke-linecap="round"/>
<path d="M6.39647 61.6484C6.39647 43.1055 15.4674 26.6811 29.4141 16.5708" stroke="white" stroke-width="2" stroke-linecap="round"/>
</svg>
