<svg width="311" height="315" viewBox="0 0 311 315" fill="none" xmlns="http://www.w3.org/2000/svg">
<path d="M179.854 184.767C172.146 184.7 157.222 189.698 159.191 210.222" stroke="black" stroke-width="2"/>
<path d="M149.458 85.0394C149.458 81.8646 152.032 79.291 155.206 79.291C158.381 79.291 160.955 81.8646 160.955 85.0394V245.171H149.458V85.0394Z" fill="black"/>
<path d="M154.376 108.844C167.982 108.844 179.012 97.8139 179.012 84.208C179.012 70.6021 167.982 59.5723 154.376 59.5723C140.77 59.5723 129.74 70.6021 129.74 84.208C129.74 97.8139 140.77 108.844 154.376 108.844Z" fill="#FCD400"/>
<path d="M153.916 90.5279C152.815 90.5466 151.744 90.1644 150.904 89.4524C149.194 87.9188 148.319 85.661 148.549 83.3755C148.898 80.3908 150.571 78.5892 153.518 77.9977C155.32 77.6481 157.82 77.6105 159.509 78.5354C160.026 78.8324 160.204 79.4922 159.907 80.009C159.61 80.5257 158.95 80.7039 158.433 80.4069C157.358 79.7938 155.33 79.81 153.911 80.0842C151.883 80.4768 150.91 81.5255 150.684 83.5852C150.549 85.1507 151.144 86.6907 152.297 87.7584C153.652 88.8877 155.605 88.1563 158.008 87.0754L158.761 86.742C159.118 86.5685 159.54 86.605 159.862 86.8368C160.183 87.0687 160.351 87.4584 160.298 87.8512C160.246 88.2439 159.982 88.5761 159.611 88.7156L158.885 89.0383C157.503 89.7159 155.691 90.5279 153.916 90.5279Z" fill="#E2B420"/>
<path d="M155.476 95.19C154.899 95.1905 154.424 94.7346 154.401 94.1575C154.401 94.1306 154.293 91.5385 154.105 89.9359C154.06 89.5516 154.223 89.1725 154.533 88.9413C154.844 88.71 155.254 88.6618 155.609 88.8149C155.964 88.9679 156.211 89.2989 156.256 89.6832C156.455 91.3664 156.563 93.9585 156.568 94.0714C156.58 94.3568 156.477 94.635 156.284 94.8448C156.09 95.0546 155.821 95.1788 155.536 95.19H155.476Z" fill="#E2B420"/>
<path d="M154.529 80.0425C153.954 80.0431 153.48 79.5904 153.454 79.0154C153.373 77.2084 153.454 74.3958 153.454 74.2775C153.463 73.8933 153.677 73.5433 154.015 73.3595C154.352 73.1757 154.762 73.1859 155.09 73.3864C155.418 73.5868 155.615 73.947 155.605 74.3313C155.605 74.3582 155.535 77.1923 155.605 78.9239C155.629 79.5161 155.17 80.0164 154.578 80.0425H154.529Z" fill="#E2B420"/>
<path d="M161.411 103.659C160.875 103.659 160.422 103.266 160.346 102.736C160.27 102.206 160.596 101.701 161.109 101.551C165.046 100.39 168.3 97.5986 170.51 93.4846C173.199 88.4348 173.898 82.089 172.247 77.3189C172.052 76.7575 172.35 76.1448 172.911 75.9502C173.472 75.7557 174.085 76.053 174.28 76.6144C176.119 81.9277 175.382 88.9511 172.408 94.501C169.918 99.1474 166.218 102.304 161.717 103.643C161.616 103.662 161.513 103.667 161.411 103.659Z" fill="#E2B420"/>
<path d="M155.034 105.494C154.44 105.552 153.912 105.117 153.854 104.523C153.796 103.929 154.23 103.401 154.825 103.343L155.174 103.273C155.555 103.186 155.953 103.313 156.213 103.604C156.474 103.895 156.556 104.304 156.429 104.673C156.301 105.042 155.983 105.313 155.599 105.381L155.244 105.451C155.176 105.473 155.106 105.488 155.034 105.494Z" fill="#E2B420"/>
<path d="M137.384 74.2904C136.991 74.2898 136.63 74.0749 136.442 73.7299C136.254 73.3849 136.269 72.9648 136.481 72.6341C138.572 69.6177 141.293 67.0912 144.456 65.2288C147.449 63.7011 150.736 62.8372 154.093 62.6959C154.687 62.6766 155.184 63.1425 155.204 63.7365C155.223 64.3305 154.757 64.8277 154.163 64.847C151.147 64.9802 148.194 65.7538 145.499 67.1164C142.649 68.8035 140.191 71.0809 138.293 73.7957C138.095 74.1051 137.752 74.2917 137.384 74.2904Z" fill="#E2B420"/>
<path d="M153.561 66.1495C163.415 65.3283 169.163 57.1164 170.805 50.5469C172.448 58.7588 179.839 64.5071 187.229 66.9707C176.554 68.6131 171.627 77.6462 170.805 85.0369C169.984 77.6462 164.236 68.6131 153.561 66.1495Z" fill="white"/>
<path d="M105.114 145.115C117.8 144.079 144.758 148.844 151.101 176.192" stroke="black" stroke-width="2"/>
<path d="M187.231 133.489C172.449 128.561 156.685 143.666 158.488 163.051" stroke="black" stroke-width="2"/>
<path d="M151.919 226.287C153.562 217.253 146.171 204.936 131.39 204.936" stroke="black" stroke-width="2"/>
<path d="M43.4316 165.271L111.058 97.6445" stroke="black"/>
<path d="M191.249 196.48L258.875 128.854" stroke="black"/>
<path d="M248.823 157.305L285.153 120.643" stroke="black"/>
<path d="M24.1016 44.6732C52.2266 17.4962 126.995 -21.626 201.068 39.301C232.669 16.2322 284.179 34.8768 276.911 82.5945C305.352 82.5945 309.776 102.503 309.776 108.823" stroke="black"/>
<path d="M6.08496 88.9156C10.8251 76.6965 28.901 48.2766 63.283 32.3496" stroke="black"/>
<path d="M41.8838 114.605L122.574 37.168" stroke="black"/>
<circle cx="203.031" cy="70.4534" r="7.58427" fill="#C9CFEA"/>
<circle cx="46.7697" cy="127.703" r="46.7697" fill="#C9CFEA"/>
<path fill-rule="evenodd" clip-rule="evenodd" d="M69.833 129.196C69.3127 129.235 68.8434 129.49 68.582 129.709L67.9392 128.943C68.3232 128.621 68.9848 128.257 69.7589 128.199C70.5644 128.139 71.4505 128.417 72.2052 129.316L71.4392 129.959C70.8939 129.309 70.322 129.16 69.833 129.196ZM31.8728 135.421C32.0012 135.926 32.3335 136.344 32.595 136.564L31.9522 137.33C31.5681 137.007 31.0946 136.419 30.9036 135.667C30.7048 134.884 30.8242 133.963 31.579 133.064L32.345 133.706C31.7997 134.356 31.7521 134.945 31.8728 135.421ZM59.9568 152.63C60.3305 152.266 60.5263 151.77 60.5855 151.434L61.5703 151.607C61.4833 152.101 61.2106 152.805 60.6545 153.347C60.0759 153.91 59.2188 154.267 58.0624 154.063L58.2361 153.079C59.0715 153.226 59.6055 152.973 59.9568 152.63ZM45.2259 150.311C45.5621 150.371 46.0588 150.566 46.4228 150.94C46.765 151.291 47.0184 151.825 46.8711 152.661L47.8559 152.835C48.0598 151.678 47.7027 150.821 47.1392 150.242C46.5976 149.686 45.8933 149.414 45.3996 149.327L45.2259 150.311ZM72.9608 154.386C73.0892 154.892 73.4215 155.31 73.6829 155.529L73.0402 156.295C72.6561 155.973 72.1826 155.385 71.9915 154.632C71.7928 153.85 71.9122 152.929 72.6669 152.029L73.433 152.672C72.8877 153.322 72.8401 153.911 72.9608 154.386ZM22.482 148.572C22.2206 148.353 21.8883 147.935 21.7599 147.429C21.6392 146.954 21.6868 146.365 22.2321 145.715L21.466 145.072C20.7113 145.972 20.5919 146.892 20.7906 147.675C20.9817 148.428 21.4552 149.016 21.8393 149.338L22.482 148.572ZM36.9323 162.598C37.0607 163.103 37.393 163.521 37.6545 163.741L37.0117 164.507C36.6276 164.184 36.1541 163.596 35.9631 162.844C35.7643 162.061 35.8837 161.14 36.6385 160.241L37.4045 160.883C36.8592 161.533 36.8116 162.122 36.9323 162.598ZM58.863 138.73C58.6015 138.95 58.1323 139.204 57.612 139.243C57.123 139.279 56.551 139.13 56.0058 138.48L55.2397 139.123C55.9945 140.023 56.8806 140.3 57.686 140.24C58.4601 140.183 59.1217 139.819 59.5058 139.496L58.863 138.73ZM34.369 147.84C34.8389 148.067 35.3726 148.081 35.7088 148.022L35.8824 149.007C35.3887 149.094 34.6336 149.078 33.9345 148.741C33.2071 148.39 32.5784 147.707 32.3745 146.55L33.3593 146.377C33.5066 147.212 33.9274 147.627 34.369 147.84ZM85.4067 142.525C85.1452 142.745 84.676 143 84.1557 143.038C83.6667 143.074 83.0947 142.925 82.5495 142.275L81.7834 142.918C82.5382 143.818 83.4243 144.095 84.2297 144.035C85.0038 143.978 85.6654 143.614 86.0495 143.291L85.4067 142.525ZM49.3936 162.627C49.9139 162.588 50.3831 162.333 50.6446 162.114L51.2874 162.88C50.9033 163.202 50.2417 163.567 49.4676 163.624C48.6622 163.684 47.7761 163.406 47.0213 162.507L47.7874 161.864C48.3326 162.514 48.9046 162.663 49.3936 162.627ZM71.1127 141.712C71.3742 141.492 71.8434 141.237 72.3638 141.199C72.8528 141.163 73.4247 141.312 73.97 141.962L74.736 141.319C73.9813 140.419 73.0951 140.142 72.2897 140.202C71.5156 140.259 70.854 140.623 70.4699 140.945L71.1127 141.712ZM19.9046 134.881C19.3842 134.92 18.915 135.174 18.6535 135.394L18.0107 134.628C18.3948 134.305 19.0564 133.941 19.8305 133.884C20.6359 133.824 21.5221 134.101 22.2768 135.001L21.5108 135.644C20.9655 134.994 20.3936 134.845 19.9046 134.881ZM21.3482 159.982C21.4075 159.646 21.6032 159.15 21.977 158.785C22.3283 158.443 22.8623 158.19 23.6977 158.337L23.8713 157.352C22.715 157.149 21.8578 157.506 21.2793 158.069C20.7232 158.611 20.4505 159.315 20.3634 159.809L21.3482 159.982ZM60.3676 166.362C60.6291 166.142 61.0983 165.888 61.6186 165.849C62.1076 165.813 62.6796 165.962 63.2248 166.612L63.9909 165.969C63.2361 165.069 62.35 164.792 61.5446 164.852C60.7705 164.909 60.1089 165.273 59.7248 165.596L60.3676 166.362Z" fill="black"/>
<circle cx="248.003" cy="98.9957" r="19.7086" fill="#C9CFEA"/>
<path fill-rule="evenodd" clip-rule="evenodd" d="M245.033 89.6154C245.294 89.396 245.764 89.1413 246.284 89.1027C246.773 89.0664 247.345 89.2155 247.89 89.8654L248.656 89.2226C247.902 88.3231 247.015 88.0456 246.21 88.1054C245.436 88.1629 244.774 88.5271 244.39 88.8493L245.033 89.6154ZM235.325 100.412C235.846 100.373 236.315 100.118 236.576 99.8989L237.219 100.665C236.835 100.987 236.174 101.351 235.399 101.409C234.594 101.469 233.708 101.191 232.953 100.292L233.719 99.6489C234.264 100.299 234.836 100.448 235.325 100.412ZM248.234 103.423C247.973 103.204 247.641 102.786 247.512 102.28C247.392 101.805 247.439 101.216 247.984 100.566L247.218 99.9229C246.464 100.822 246.344 101.743 246.543 102.526C246.734 103.278 247.208 103.867 247.592 104.189L248.234 103.423ZM237.67 110.711C237.61 111.047 237.415 111.543 237.041 111.908C236.69 112.25 236.156 112.503 235.32 112.356L235.147 113.341C236.303 113.544 237.16 113.187 237.739 112.624C238.295 112.082 238.568 111.378 238.655 110.884L237.67 110.711ZM250.481 113.809C250.22 114.028 249.751 114.283 249.23 114.322C248.741 114.358 248.169 114.209 247.624 113.559L246.858 114.202C247.613 115.101 248.499 115.379 249.304 115.319C250.079 115.261 250.74 114.897 251.124 114.575L250.481 113.809ZM260.822 104.271C260.302 104.31 259.833 104.564 259.571 104.784L258.928 104.018C259.313 103.695 259.974 103.331 260.748 103.274C261.554 103.214 262.44 103.491 263.195 104.391L262.428 105.034C261.883 104.384 261.311 104.235 260.822 104.271Z" fill="black"/>
<circle cx="115.252" cy="200.029" r="23.7008" fill="#C9CFEA"/>
<path fill-rule="evenodd" clip-rule="evenodd" d="M101.144 193.162C100.882 192.943 100.55 192.525 100.422 192.019C100.301 191.544 100.349 190.955 100.894 190.305L100.128 189.662C99.373 190.562 99.2536 191.482 99.4524 192.265C99.6434 193.018 100.117 193.606 100.501 193.928L101.144 193.162ZM116.22 205.284C116.349 205.79 116.681 206.207 116.942 206.427L116.3 207.193C115.915 206.871 115.442 206.282 115.251 205.53C115.052 204.747 115.172 203.826 115.926 202.927L116.692 203.57C116.147 204.219 116.1 204.809 116.22 205.284ZM105.747 214.918C106.121 214.553 106.316 214.057 106.376 213.721L107.361 213.894C107.273 214.388 107.001 215.092 106.445 215.634C105.866 216.197 105.009 216.554 103.853 216.351L104.026 215.366C104.862 215.513 105.396 215.26 105.747 214.918ZM104.033 203.422C104.554 203.383 105.023 203.128 105.284 202.909L105.927 203.675C105.543 203.997 104.881 204.361 104.107 204.419C103.302 204.479 102.416 204.201 101.661 203.302L102.427 202.659C102.972 203.309 103.544 203.458 104.033 203.422ZM119.189 216.813C118.928 217.032 118.459 217.287 117.938 217.326C117.449 217.362 116.877 217.213 116.332 216.563L115.566 217.206C116.321 218.105 117.207 218.383 118.012 218.323C118.787 218.265 119.448 217.901 119.832 217.579L119.189 216.813ZM129.529 207.277C129.009 207.316 128.54 207.57 128.278 207.79L127.635 207.024C128.019 206.701 128.681 206.337 129.455 206.28C130.261 206.22 131.147 206.497 131.901 207.397L131.135 208.04C130.59 207.39 130.018 207.241 129.529 207.277ZM113.743 192.619C114.004 192.4 114.474 192.145 114.994 192.107C115.483 192.07 116.055 192.219 116.6 192.869L117.366 192.226C116.612 191.327 115.725 191.05 114.92 191.109C114.146 191.167 113.484 191.531 113.1 191.853L113.743 192.619Z" fill="black"/>
<circle cx="280.218" cy="7.58427" r="7.58427" fill="#C9CFEA"/>
<path d="M282.765 10.1484C282.119 10.6901 280.503 11.3861 279.203 9.83683" stroke="black"/>
<circle cx="191.028" cy="184.921" r="12.0084" fill="#C9CFEA"/>
<path d="M189.168 183.043C188.522 182.501 187.556 181.031 188.856 179.481" stroke="black"/>
<path d="M194.076 189.631C193.431 190.173 191.815 190.869 190.515 189.319" stroke="black"/>
<path d="M218.437 135.113C219.082 134.572 220.698 133.876 221.998 135.425" stroke="black"/>
<path d="M99.3628 163.058C110.701 163.058 119.893 153.866 119.893 142.528C119.893 131.19 110.701 121.998 99.3628 121.998C88.0245 121.998 78.833 131.19 78.833 142.528C78.833 153.866 88.0245 163.058 99.3628 163.058Z" fill="#FCD400"/>
<path d="M98.9753 147.792C98.0577 147.808 97.1658 147.489 96.4657 146.896C95.0406 145.618 94.3113 143.736 94.5028 141.832C94.7941 139.345 96.1878 137.843 98.6437 137.35C100.145 137.059 102.229 137.028 103.636 137.798C104.067 138.046 104.215 138.596 103.968 139.026C103.72 139.457 103.17 139.605 102.74 139.358C101.843 138.847 100.154 138.861 98.9708 139.089C97.2813 139.416 96.4702 140.29 96.2819 142.007C96.1696 143.311 96.6658 144.594 97.6264 145.484C98.7557 146.425 100.383 145.816 102.386 144.915L103.013 144.637C103.31 144.493 103.662 144.523 103.93 144.716C104.198 144.909 104.338 145.234 104.294 145.562C104.25 145.889 104.03 146.166 103.721 146.282L103.116 146.551C101.964 147.115 100.454 147.792 98.9753 147.792Z" fill="#E2B420"/>
<path d="M100.282 151.683C99.8004 151.683 99.4047 151.304 99.3855 150.823C99.3855 150.8 99.2958 148.64 99.139 147.305C99.1014 146.984 99.2374 146.668 99.4959 146.476C99.7544 146.283 100.096 146.243 100.392 146.37C100.688 146.498 100.894 146.774 100.932 147.094C101.097 148.497 101.187 150.657 101.192 150.751C101.201 150.989 101.116 151.221 100.955 151.395C100.793 151.57 100.569 151.674 100.331 151.683H100.282Z" fill="#E2B420"/>
<path d="M99.4926 139.053C99.0129 139.054 98.6179 138.677 98.5963 138.197C98.5291 136.692 98.5963 134.348 98.5963 134.249C98.6043 133.929 98.7825 133.637 99.0638 133.484C99.3452 133.331 99.6868 133.34 99.9601 133.507C100.233 133.674 100.397 133.974 100.389 134.294C100.389 134.316 100.331 136.678 100.389 138.121C100.409 138.615 100.026 139.032 99.5329 139.053H99.4926Z" fill="#E2B420"/>
<path d="M105.225 158.742C104.778 158.742 104.4 158.414 104.337 157.973C104.274 157.531 104.545 157.11 104.974 156.985C108.254 156.017 110.965 153.692 112.807 150.263C115.048 146.055 115.631 140.767 114.255 136.792C114.093 136.324 114.34 135.813 114.808 135.651C115.276 135.489 115.787 135.737 115.949 136.205C117.481 140.632 116.867 146.485 114.389 151.11C112.314 154.982 109.231 157.613 105.48 158.729C105.396 158.744 105.31 158.749 105.225 158.742Z" fill="#E2B420"/>
<path d="M99.9138 160.268C99.4188 160.316 98.9784 159.954 98.9301 159.459C98.8818 158.964 99.244 158.523 99.739 158.475L100.03 158.417C100.348 158.345 100.679 158.45 100.896 158.693C101.113 158.935 101.182 159.276 101.076 159.584C100.97 159.891 100.705 160.117 100.384 160.174L100.089 160.232C100.032 160.25 99.9732 160.263 99.9138 160.268Z" fill="#E2B420"/>
<path d="M85.2073 134.262C84.8798 134.262 84.5787 134.083 84.4219 133.795C84.2651 133.508 84.2776 133.158 84.4544 132.882C86.1972 130.368 88.4648 128.263 91.1005 126.711C93.5944 125.438 96.3337 124.718 99.1313 124.6C99.6264 124.584 100.041 124.972 100.057 125.467C100.073 125.962 99.6846 126.377 99.1896 126.393C96.6761 126.504 94.215 127.148 91.9699 128.284C89.5941 129.69 87.5466 131.588 85.9647 133.85C85.7993 134.108 85.5136 134.263 85.2073 134.262Z" fill="#E2B420"/>
<path d="M102.651 152.771C110.159 152.145 114.539 145.888 115.79 140.883C117.042 147.14 122.673 151.519 128.304 153.396C120.17 154.648 116.416 161.53 115.79 167.161C115.165 161.53 110.785 154.648 102.651 152.771Z" fill="white"/>
<path d="M52.5498 228.744C66.1557 228.744 77.1855 217.714 77.1855 204.108C77.1855 190.502 66.1557 179.473 52.5498 179.473C38.9438 179.473 27.9141 190.502 27.9141 204.108C27.9141 217.714 38.9438 228.744 52.5498 228.744Z" fill="#FCD400"/>
<path d="M52.0897 210.428C50.9886 210.447 49.9183 210.065 49.0782 209.353C47.368 207.819 46.4929 205.561 46.7227 203.276C47.0722 200.291 48.7447 198.49 51.6918 197.898C53.4933 197.548 55.994 197.511 57.6826 198.436C58.1994 198.733 58.3776 199.393 58.0806 199.909C57.7836 200.426 57.1239 200.604 56.6071 200.307C55.5315 199.694 53.5041 199.71 52.0844 199.985C50.0569 200.377 49.0835 201.426 48.8577 203.486C48.7229 205.051 49.3183 206.591 50.471 207.659C51.8262 208.788 53.7784 208.057 56.1822 206.976L56.9351 206.642C57.2914 206.469 57.7141 206.505 58.0354 206.737C58.3567 206.969 58.5245 207.359 58.4721 207.752C58.4197 208.144 58.1557 208.476 57.7848 208.616L57.0588 208.939C55.6767 209.616 53.8644 210.428 52.0897 210.428Z" fill="#E2B420"/>
<path d="M53.6502 215.09C53.0726 215.091 52.5978 214.635 52.5747 214.058C52.5747 214.031 52.4671 211.439 52.2789 209.836C52.2337 209.452 52.397 209.073 52.7072 208.842C53.0174 208.61 53.4274 208.562 53.7828 208.715C54.1382 208.868 54.3849 209.199 54.43 209.584C54.629 211.267 54.7366 213.859 54.7419 213.972C54.7536 214.257 54.6513 214.535 54.4576 214.745C54.2639 214.955 53.9947 215.079 53.7094 215.09H53.6502Z" fill="#E2B420"/>
<path d="M52.7032 199.943C52.1276 199.944 51.6536 199.491 51.6276 198.916C51.547 197.109 51.6276 194.296 51.6276 194.178C51.6373 193.794 51.8511 193.444 52.1887 193.26C52.5263 193.076 52.9363 193.086 53.2643 193.287C53.5923 193.487 53.7884 193.847 53.7788 194.232C53.7788 194.259 53.7089 197.093 53.7788 198.824C53.8031 199.417 53.3437 199.917 52.7516 199.943H52.7032Z" fill="#E2B420"/>
<path d="M59.5844 223.56C59.0492 223.56 58.5954 223.166 58.5197 222.636C58.444 222.106 58.7694 221.602 59.2833 221.452C63.2198 220.29 66.4734 217.499 68.6837 213.385C71.3726 208.335 72.0717 201.989 70.4207 197.219C70.2262 196.658 70.5235 196.045 71.0849 195.851C71.6462 195.656 72.259 195.953 72.4535 196.515C74.2927 201.828 73.556 208.851 70.582 214.401C68.0921 219.048 64.3922 222.205 59.891 223.544C59.7899 223.562 59.6869 223.567 59.5844 223.56Z" fill="#E2B420"/>
<path d="M53.2081 225.394C52.6141 225.452 52.0856 225.018 52.0276 224.424C51.9697 223.83 52.4043 223.301 52.9983 223.243L53.3479 223.173C53.7287 223.087 54.1265 223.214 54.3871 223.504C54.6477 223.795 54.7301 224.204 54.6025 224.574C54.4749 224.943 54.1573 225.214 53.7727 225.281L53.4178 225.351C53.3498 225.374 53.2794 225.388 53.2081 225.394Z" fill="#E2B420"/>
<path d="M35.5581 194.191C35.1652 194.19 34.8039 193.975 34.6157 193.63C34.4275 193.285 34.4425 192.865 34.6547 192.534C36.7461 189.518 39.4671 186.992 42.63 185.129C45.6227 183.602 48.9098 182.738 52.267 182.596C52.861 182.577 53.3582 183.043 53.3775 183.637C53.3968 184.231 52.9309 184.728 52.3369 184.747C49.3207 184.881 46.3674 185.654 43.6733 187.017C40.8223 188.704 38.3653 190.981 36.467 193.696C36.2685 194.005 35.9257 194.192 35.5581 194.191Z" fill="#E2B420"/>
<path d="M58.3018 202.038C65.8098 201.412 70.1895 195.156 71.4404 190.15C72.6921 196.407 78.3232 200.787 83.9542 202.664C75.8205 203.915 72.0665 210.797 71.4404 216.428C70.8151 210.797 66.4355 203.915 58.3018 202.038Z" fill="white"/>
<path d="M248.006 223.82C261.612 223.82 272.642 212.79 272.642 199.185C272.642 185.579 261.612 174.549 248.006 174.549C234.4 174.549 223.37 185.579 223.37 199.185C223.37 212.79 234.4 223.82 248.006 223.82Z" fill="#FCD400"/>
<path d="M247.546 205.505C246.445 205.523 245.374 205.141 244.534 204.429C242.824 202.895 241.949 200.638 242.179 198.352C242.528 195.367 244.201 193.566 247.148 192.974C248.949 192.625 251.45 192.587 253.139 193.512C253.655 193.809 253.834 194.469 253.537 194.986C253.24 195.502 252.58 195.68 252.063 195.383C250.988 194.77 248.96 194.787 247.54 195.061C245.513 195.453 244.54 196.502 244.314 198.562C244.179 200.127 244.774 201.667 245.927 202.735C247.282 203.864 249.234 203.133 251.638 202.052L252.391 201.719C252.747 201.545 253.17 201.582 253.491 201.813C253.813 202.045 253.981 202.435 253.928 202.828C253.876 203.22 253.612 203.553 253.241 203.692L252.515 204.015C251.133 204.692 249.32 205.505 247.546 205.505Z" fill="#E2B420"/>
<path d="M249.106 210.167C248.529 210.167 248.054 209.711 248.031 209.134C248.031 209.107 247.923 206.515 247.735 204.912C247.69 204.528 247.853 204.149 248.163 203.918C248.473 203.687 248.883 203.638 249.239 203.791C249.594 203.944 249.841 204.275 249.886 204.66C250.085 206.343 250.193 208.935 250.198 209.048C250.21 209.333 250.107 209.612 249.914 209.821C249.72 210.031 249.451 210.155 249.165 210.167H249.106Z" fill="#E2B420"/>
<path d="M248.159 195.019C247.584 195.02 247.11 194.567 247.084 193.992C247.003 192.185 247.084 189.372 247.084 189.254C247.093 188.87 247.307 188.52 247.645 188.336C247.982 188.152 248.392 188.163 248.72 188.363C249.048 188.563 249.244 188.924 249.235 189.308C249.235 189.335 249.165 192.169 249.235 193.901C249.259 194.493 248.8 194.993 248.208 195.019H248.159Z" fill="#E2B420"/>
<path d="M255.04 218.636C254.505 218.636 254.051 218.242 253.976 217.712C253.9 217.183 254.225 216.678 254.739 216.528C258.676 215.366 261.929 212.575 264.14 208.461C266.829 203.411 267.528 197.066 265.877 192.295C265.682 191.734 265.98 191.121 266.541 190.927C267.102 190.732 267.715 191.03 267.91 191.591C269.749 196.904 269.012 203.928 266.038 209.478C263.548 214.124 259.848 217.281 255.347 218.62C255.246 218.638 255.143 218.644 255.04 218.636Z" fill="#E2B420"/>
<path d="M248.664 220.47C248.07 220.528 247.542 220.094 247.484 219.5C247.426 218.906 247.86 218.377 248.454 218.319L248.804 218.249C249.185 218.163 249.583 218.29 249.843 218.581C250.104 218.871 250.186 219.281 250.059 219.65C249.931 220.019 249.613 220.29 249.229 220.357L248.874 220.427C248.806 220.45 248.735 220.464 248.664 220.47Z" fill="#E2B420"/>
<path d="M231.014 189.267C230.621 189.266 230.26 189.051 230.072 188.706C229.884 188.362 229.899 187.941 230.111 187.611C232.202 184.594 234.923 182.068 238.086 180.205C241.079 178.678 244.366 177.814 247.723 177.672C248.317 177.653 248.814 178.119 248.834 178.713C248.853 179.307 248.387 179.804 247.793 179.824C244.777 179.957 241.823 180.73 239.129 182.093C236.278 183.78 233.821 186.057 231.923 188.772C231.725 189.082 231.382 189.268 231.014 189.267Z" fill="#E2B420"/>
<path d="M248.821 183.974C256.329 183.348 260.709 177.091 261.96 172.086C263.212 178.343 268.843 182.722 274.474 184.599C266.34 185.851 262.586 192.733 261.96 198.364C261.335 192.733 256.955 185.851 248.821 183.974Z" fill="white"/>
<path d="M202.005 149.932C215.611 149.932 226.641 138.902 226.641 125.296C226.641 111.69 215.611 100.66 202.005 100.66C188.399 100.66 177.369 111.69 177.369 125.296C177.369 138.902 188.399 149.932 202.005 149.932Z" fill="#FCD400"/>
<path d="M201.545 131.616C200.444 131.635 199.373 131.252 198.533 130.54C196.823 129.007 195.948 126.749 196.178 124.463C196.527 121.479 198.2 119.677 201.147 119.086C202.948 118.736 205.449 118.698 207.138 119.623C207.655 119.92 207.833 120.58 207.536 121.097C207.239 121.614 206.579 121.792 206.062 121.495C204.987 120.882 202.959 120.898 201.539 121.172C199.512 121.565 198.539 122.613 198.313 124.673C198.178 126.239 198.773 127.779 199.926 128.846C201.281 129.976 203.233 129.244 205.637 128.163L206.39 127.83C206.746 127.656 207.169 127.693 207.49 127.925C207.812 128.157 207.98 128.546 207.927 128.939C207.875 129.332 207.611 129.664 207.24 129.804L206.514 130.126C205.132 130.804 203.319 131.616 201.545 131.616Z" fill="#E2B420"/>
<path d="M203.105 136.278C202.528 136.278 202.053 135.823 202.03 135.245C202.03 135.218 201.922 132.626 201.734 131.024C201.689 130.64 201.852 130.26 202.162 130.029C202.473 129.798 202.883 129.75 203.238 129.903C203.593 130.056 203.84 130.387 203.885 130.771C204.084 132.454 204.192 135.046 204.197 135.159C204.209 135.445 204.106 135.723 203.913 135.933C203.719 136.143 203.45 136.267 203.164 136.278H203.105Z" fill="#E2B420"/>
<path d="M202.158 121.127C201.583 121.127 201.109 120.674 201.083 120.099C201.002 118.292 201.083 115.48 201.083 115.362C201.092 114.977 201.306 114.627 201.644 114.443C201.981 114.26 202.391 114.27 202.719 114.47C203.047 114.671 203.243 115.031 203.234 115.415C203.234 115.442 203.164 118.276 203.234 120.008C203.258 120.6 202.799 121.1 202.207 121.127H202.158Z" fill="#E2B420"/>
<path d="M209.036 144.747C208.5 144.747 208.047 144.354 207.971 143.824C207.895 143.294 208.221 142.789 208.734 142.639C212.671 141.478 215.925 138.686 218.135 134.572C220.824 129.523 221.523 123.177 219.872 118.407C219.677 117.845 219.975 117.233 220.536 117.038C221.097 116.844 221.71 117.141 221.905 117.702C223.744 123.016 223.007 130.039 220.033 135.589C217.543 140.235 213.843 143.392 209.342 144.731C209.241 144.75 209.138 144.755 209.036 144.747Z" fill="#E2B420"/>
<path d="M202.663 146.582C202.069 146.64 201.541 146.205 201.483 145.611C201.425 145.017 201.859 144.489 202.453 144.431L202.803 144.361C203.184 144.274 203.582 144.401 203.842 144.692C204.103 144.983 204.185 145.392 204.058 145.761C203.93 146.13 203.612 146.401 203.228 146.469L202.873 146.539C202.805 146.561 202.734 146.576 202.663 146.582Z" fill="#E2B420"/>
<path d="M185.013 115.378C184.62 115.378 184.259 115.163 184.071 114.818C183.883 114.473 183.898 114.053 184.11 113.722C186.201 110.706 188.922 108.179 192.085 106.317C195.078 104.789 198.365 103.925 201.722 103.784C202.316 103.764 202.813 104.23 202.833 104.824C202.852 105.418 202.386 105.916 201.792 105.935C198.776 106.068 195.822 106.842 193.128 108.204C190.277 109.891 187.82 112.169 185.922 114.884C185.724 115.193 185.381 115.38 185.013 115.378Z" fill="#E2B420"/>
<path d="M206.115 124.851C213.623 124.225 218.003 117.968 219.254 112.963C220.506 119.22 226.137 123.599 231.768 125.476C223.634 126.728 219.88 133.61 219.254 139.241C218.629 133.61 214.249 126.728 206.115 124.851Z" fill="white"/>
<path d="M236.502 305.119C236.502 310.107 212.236 314.152 182.303 314.152C152.37 314.152 128.104 310.107 128.104 305.119C128.104 300.13 152.37 292.801 182.303 292.801C212.236 292.801 236.502 300.13 236.502 305.119Z" fill="black"/>
<rect x="99.0449" y="244.025" width="109.04" height="18.7086" rx="9.35429" fill="white" stroke="black"/>
<path d="M110.54 262.096H196.586V290.867C196.586 301.637 187.856 310.367 177.086 310.367H130.04C119.271 310.367 110.54 301.637 110.54 290.867V262.096Z" fill="white" stroke="black"/>
<path d="M234.859 305.119C234.859 300.13 210.594 292.801 180.66 292.801C150.727 292.801 126.462 300.13 126.462 305.119" stroke="black"/>
</svg>
