<svg width="33" height="33" viewBox="0 0 33 33" fill="none" xmlns="http://www.w3.org/2000/svg">
<g clip-path="url(#clip0_7333_124695)">
<path d="M16.1079 32.7695C24.9445 32.7695 32.1079 25.6061 32.1079 16.7695C32.1079 7.93297 24.9445 0.769531 16.1079 0.769531C7.27135 0.769531 0.10791 7.93297 0.10791 16.7695C0.10791 25.6061 7.27135 32.7695 16.1079 32.7695Z" fill="white"/>
<g clip-path="url(#clip1_7333_124695)">
<path d="M18.6216 10.0586H17.0918V12.372H18.6216V10.0586Z" fill="#1682FE"/>
<path d="M14.231 5.76953H12.7012V8.0829H14.231V5.76953Z" fill="#1682FE"/>
<path d="M9.84083 7.97656H8.31104V10.2899H9.84083V7.97656Z" fill="#60D8A4"/>
<path d="M7.653 16.7695H6.10791V23.3726H7.653V16.7695Z" fill="#F4BB3B"/>
<path d="M7.653 10.168H6.10791V16.771H7.653V10.168Z" fill="#60D8A4"/>
<path d="M20.8091 12.2656H19.2793V14.579H20.8091V12.2656Z" fill="#1682FE"/>
<path d="M20.8091 18.9609H19.2793V21.2743H20.8091V18.9609Z" fill="#FF5A5A"/>
<path d="M18.6216 21.168H17.0918V23.4813H18.6216V21.168Z" fill="#FF5A5A"/>
<path d="M14.231 25.457H12.7012V27.7704H14.231V25.457Z" fill="#FF5A5A"/>
<path d="M9.84083 23.25H8.31104V25.5634H9.84083V23.25Z" fill="#F4BB3B"/>
<path d="M25.1081 14.5634V10.1665H22.9052V7.97566H18.5147V5.76953H14.1242V7.97566H9.73366V10.1818H7.53076V23.3726H9.73366V25.5787H14.1242V27.7849H18.5147V25.5787H22.9052V23.3726H25.1081V18.9603H20.7176V21.1665H18.5147V23.3726H14.1242V21.1665H11.9366V12.3726H14.1395V10.1665H18.53V12.3726H20.7329V14.5787H25.1081V14.5634Z" fill="#3A3A3A"/>
</g>
</g>
<defs>
<clipPath id="clip0_7333_124695">
<rect width="32" height="32" fill="white" transform="translate(0.10791 0.769531)"/>
</clipPath>
<clipPath id="clip1_7333_124695">
<rect width="19" height="22" fill="white" transform="translate(6.10791 5.76953)"/>
</clipPath>
</defs>
</svg>
