<svg width="40" height="40" viewBox="0 0 40 40" fill="none" xmlns="http://www.w3.org/2000/svg">
<path d="M20 40C31.0457 40 40 31.0457 40 20C40 8.9543 31.0457 0 20 0C8.9543 0 0 8.9543 0 20C0 31.0457 8.9543 40 20 40Z" fill="#F4B731"/>
<path fill-rule="evenodd" clip-rule="evenodd" d="M11.5963 10H19.7863C24.7675 10 28.5437 12.645 29.9487 16.4925H32.5V18.8188H30.4862C30.525 19.1863 30.545 19.5612 30.545 19.9412V19.9987C30.545 20.4262 30.52 20.8488 30.47 21.2613H32.5V23.5862H29.9C28.4587 27.3812 24.7125 30 19.7875 30H11.5963V23.5862H8.75V21.2613H11.5963V18.8188H8.75V16.4937H11.5963V10ZM13.885 23.5862V27.9137H19.785C23.4275 27.9137 26.1325 26.18 27.3913 23.5862H13.885ZM28.0925 21.2613H13.885V18.8188H28.0975C28.1488 19.2025 28.1763 19.5962 28.1763 19.9987V20.055C28.1763 20.4663 28.1475 20.8675 28.0925 21.26V21.2613ZM19.7875 12.0812C23.445 12.0812 26.1587 13.8612 27.41 16.4913H13.885V12.0825H19.785L19.7875 12.0812Z" fill="white"/>
</svg>
