<svg width="25" height="24" viewBox="0 0 25 24" fill="none" xmlns="http://www.w3.org/2000/svg">
<path fill-rule="evenodd" clip-rule="evenodd" d="M20.2246 0C21.5806 0 22.6846 1.104 22.6846 2.472V24L20.1046 21.72L18.6526 20.376L17.1166 18.948L17.7526 21.168H4.14457C2.78857 21.168 1.68457 20.064 1.68457 18.696V2.472C1.68457 1.104 2.78857 0 4.14457 0H20.2246V0ZM15.5926 15.672C18.2446 15.588 19.2646 13.848 19.2646 13.848C19.2646 9.984 17.5366 6.852 17.5366 6.852C15.8086 5.556 14.1646 5.592 14.1646 5.592L13.9966 5.784C16.0366 6.408 16.9846 7.308 16.9846 7.308C15.7366 6.624 14.5126 6.288 13.3726 6.156C12.5086 6.06 11.6806 6.084 10.9486 6.18L10.7446 6.204C10.3246 6.24 9.30457 6.396 8.02057 6.96C7.57657 7.164 7.31257 7.308 7.31257 7.308C7.31257 7.308 8.30857 6.36 10.4686 5.736L10.3486 5.592C10.3486 5.592 8.70457 5.556 6.97657 6.852C6.97657 6.852 5.24857 9.984 5.24857 13.848C5.24857 13.848 6.25657 15.588 8.90857 15.672C8.90857 15.672 9.35257 15.132 9.71257 14.676C8.18857 14.22 7.61257 13.26 7.61257 13.26L7.94857 13.464L7.99657 13.5L8.04357 13.527L8.05757 13.533L8.10457 13.56C8.40457 13.728 8.70457 13.86 8.98057 13.968C9.47257 14.16 10.0606 14.352 10.7446 14.484C11.6446 14.652 12.7006 14.712 13.8526 14.496C14.4166 14.4 14.9926 14.232 15.5926 13.98C16.0126 13.824 16.4806 13.596 16.9726 13.272C16.9726 13.272 16.3726 14.256 14.8006 14.7C15.1606 15.156 15.5926 15.672 15.5926 15.672ZM10.0126 10.068C9.32857 10.068 8.78857 10.668 8.78857 11.4C8.78857 12.132 9.34057 12.732 10.0126 12.732C10.6966 12.732 11.2366 12.132 11.2366 11.4C11.2486 10.668 10.6966 10.068 10.0126 10.068ZM14.3926 10.068C13.7086 10.068 13.1686 10.668 13.1686 11.4C13.1686 12.132 13.7206 12.732 14.3926 12.732C15.0766 12.732 15.6166 12.132 15.6166 11.4C15.6166 10.668 15.0766 10.068 14.3926 10.068Z" fill="black"/>
</svg>
