<svg width="17" height="17" viewBox="0 0 17 17" fill="none" xmlns="http://www.w3.org/2000/svg">
<path d="M8.71289 14.3438C12.0266 14.3438 14.7129 11.6575 14.7129 8.34375C14.7129 5.03004 12.0266 2.34375 8.71289 2.34375C5.39918 2.34375 2.71289 5.03004 2.71289 8.34375C2.71289 11.6575 5.39918 14.3438 8.71289 14.3438Z" stroke="#CCCCCC" stroke-miterlimit="10"/>
<path d="M8.71289 4.84375V5.84375" stroke="#CCCCCC" stroke-linecap="round" stroke-linejoin="round"/>
<path d="M8.71289 10.8438V11.8438" stroke="#CCCCCC" stroke-linecap="round" stroke-linejoin="round"/>
<path d="M7.21289 10.8437H9.46289C9.79441 10.8437 10.1124 10.7121 10.3468 10.4776C10.5812 10.2432 10.7129 9.92527 10.7129 9.59375C10.7129 9.26223 10.5812 8.94429 10.3468 8.70987C10.1124 8.47545 9.79441 8.34375 9.46289 8.34375H7.96289C7.63137 8.34375 7.31343 8.21205 7.07901 7.97763C6.84459 7.74321 6.71289 7.42527 6.71289 7.09375C6.71289 6.76223 6.84459 6.44429 7.07901 6.20987C7.31343 5.97545 7.63137 5.84375 7.96289 5.84375H10.2129" stroke="#CCCCCC" stroke-linecap="round" stroke-linejoin="round"/>
</svg>
