<?xml version="1.0" encoding="UTF-8"?>
<svg width="32px" height="32px" viewBox="0 0 32 32" version="1.1" xmlns="http://www.w3.org/2000/svg" xmlns:xlink="http://www.w3.org/1999/xlink">
    <title>logo/colored/32x32/eurs</title>
    <defs>
        <linearGradient x1="35.8693661%" y1="62.7157029%" x2="84.5036634%" y2="18.9010749%" id="linearGradient-1">
            <stop stop-color="#15BCFF" offset="0%"></stop>
            <stop stop-color="#3073EC" offset="49%"></stop>
            <stop stop-color="#B030EC" offset="100%"></stop>
        </linearGradient>
    </defs>
    <g id="logo/colored/32x32/eurs" stroke="none" stroke-width="1" fill="none" fill-rule="evenodd">
        <path d="M1.42108547e-14,16.000201 C1.42108547e-14,24.8367671 7.2647245,32.000001 16.2256311,32.000001 C18.4411425,32.0029212 20.6335863,31.5570106 22.666664,30.6899719 C21.8830656,30.6106605 21.1041789,30.49132 20.3331515,30.3324326 C18.6128504,29.9670216 17.0364219,29.4107572 15.603866,28.6636395 C12.6195614,27.1031163 10.5203677,24.8203333 9.30628498,21.8152904 L3.89423561,21.8152904 L5.5382534,17.9805464 L8.34545165,17.9805464 C8.24712956,17.228978 8.19640963,16.4721106 8.19358614,15.7143353 C8.19358614,14.9840657 8.21882695,14.3283697 8.26930856,13.7472475 L3.89423561,13.7472475 L5.5382534,9.93570415 L9.05345625,9.93570415 C10.1662953,6.71550242 12.2316943,4.23371817 15.2496533,2.49035139 C16.8267209,1.57593149 18.5390113,0.909457178 20.3247379,0.514977622 C18.9862134,0.172101963 17.6086932,-0.000956529348 16.2256311,9.87903997e-07 C7.2647245,9.87903997e-07 1.42108547e-14,7.16363496 1.42108547e-14,16.000201 L1.42108547e-14,16.000201 Z M25.6328199,4.00000052 C20.8600652,4.61816565 16.1110654,6.61603311 14.3447355,10.7214294 L28.7282256,10.7214294 L27.1305969,14.4580386 L13.4303668,14.4580386 C13.3654095,15.0112192 13.333065,15.6866519 13.3333318,16.4843368 C13.3336018,17.2820216 13.3981566,17.9896758 13.5269976,18.6072994 L25.2434785,18.6072994 L23.6450445,22.3666532 L15.0038379,22.3666532 C16.9654425,25.6337493 21.9685006,27.7550873 27.2054857,28.0000005 C30.2729714,25.042368 32.0056414,20.9463648 31.9999962,16.6658872 C31.9999962,11.4638774 29.4928166,6.85363272 25.6328199,4.00000052 Z" id="Shape" fill="url(#linearGradient-1)"></path>
    </g>
</svg>