<?xml version="1.0" encoding="utf-8"?>
<!-- Generator: Adobe Illustrator 27.0.1, SVG Export Plug-In . SVG Version: 6.00 Build 0)  -->
<svg version="1.1" id="Layer_1" xmlns="http://www.w3.org/2000/svg" xmlns:xlink="http://www.w3.org/1999/xlink" x="0px" y="0px"
	 viewBox="0 0 211 211" style="enable-background:new 0 0 211 211;" xml:space="preserve">
<style type="text/css">
	.st0{fill:#C9CFEA;}
	.st1{fill:none;stroke:#000000;stroke-width:2.4464;}
	.st2{fill:#FCD400;}
	.st3{fill:#E2B420;}
	.st4{fill:#FFFFFF;}
	.st5{fill:none;stroke:#FFFFFF;stroke-width:2.4464;}
	.st6{fill:none;stroke:#E2B420;stroke-width:2.4464;stroke-linecap:round;}
</style>
<g>
	
		<image style="overflow:visible;" width="214" height="214" xlink:href="51D73D525B3AB640.png"  transform="matrix(1 0 0 1 -1.281 -1.219)">
	</image>
</g>
<circle class="st0" cx="70" cy="104.9" r="13.3"/>
<circle class="st0" cx="136.2" cy="143.5" r="13.3"/>
<path class="st1" d="M130.8,140.3c-0.6,1.3-1.1,4.4,2.1,5.9"/>
<path class="st2" d="M75.7,138.7c11.3,0,20.4,9.1,20.4,20.4c0,11.3-9.1,20.4-20.4,20.4c-11.3,0-20.4-9.1-20.4-20.4
	C55.3,147.8,64.4,138.7,75.7,138.7z"/>
<path class="st3" d="M75.3,153.9c-0.9,0-1.8,0.3-2.5,0.9c-1.4,1.3-2.1,3.1-1.9,5c0.3,2.5,1.7,4,4.1,4.5c1.5,0.3,3.6,0.3,5-0.4
	c0.4-0.2,0.6-0.8,0.3-1.2c-0.2-0.4-0.8-0.6-1.2-0.3c-0.9,0.5-2.6,0.5-3.7,0.3c-1.7-0.3-2.5-1.2-2.7-2.9c-0.1-1.3,0.4-2.6,1.3-3.5
	c1.1-0.9,2.7-0.3,4.7,0.6l0.6,0.3c0.3,0.1,0.6,0.1,0.9-0.1c0.3-0.2,0.4-0.5,0.4-0.8s-0.3-0.6-0.6-0.7l-0.6-0.3
	C78.3,154.5,76.8,153.9,75.3,153.9z"/>
<path class="st3" d="M76.6,150c-0.5,0-0.9,0.4-0.9,0.9c0,0-0.1,2.2-0.2,3.5c0,0.3,0.1,0.6,0.4,0.8c0.3,0.2,0.6,0.2,0.9,0.1
	c0.3-0.1,0.5-0.4,0.5-0.7c0.2-1.4,0.3-3.5,0.3-3.6c0-0.2-0.1-0.5-0.2-0.6C77.1,150.1,76.9,150,76.6,150L76.6,150z"/>
<path class="st3" d="M81.5,143c-0.4,0-0.8,0.3-0.9,0.8c-0.1,0.4,0.2,0.9,0.6,1c3.3,1,6,3.3,7.8,6.7c2.2,4.2,2.8,9.4,1.4,13.4
	c-0.2,0.5,0.1,1,0.5,1.1c0.5,0.2,1-0.1,1.1-0.5c1.5-4.4,0.9-10.2-1.5-14.8c-2.1-3.8-5.1-6.5-8.8-7.6C81.7,143,81.6,143,81.5,143z"/>
<path class="st3" d="M76.2,141.5c-0.5,0-0.9,0.3-1,0.8c0,0.5,0.3,0.9,0.8,1l0.3,0.1c0.3,0.1,0.6,0,0.9-0.3c0.2-0.2,0.3-0.6,0.2-0.9
	c-0.1-0.3-0.4-0.5-0.7-0.6l-0.3-0.1C76.3,141.5,76.3,141.5,76.2,141.5z"/>
<path class="st4" d="M73.5,170.5c7.1,0.6,11.3,6.5,12.5,11.3c1.2-5.9,6.5-10.1,11.9-11.9c-7.7-1.2-11.3-7.7-11.9-13.1
	C85.4,162.2,81.2,168.8,73.5,170.5z"/>
<ellipse transform="matrix(0.969 -0.247 0.247 0.969 -13.5229 36.4159)" class="st2" cx="138.4" cy="72.1" rx="37.7" ry="36.9"/>
<ellipse transform="matrix(0.969 -0.2471 0.2471 0.969 -13.5196 36.4152)" class="st5" cx="138.4" cy="72.1" rx="28.3" ry="27.7"/>
<path class="st6" d="M131.5,45.3c-15.1,3.9-24.3,19-20.6,33.8"/>
<path class="st6" d="M165.8,65.1c3.8,14.8-5.4,30-20.6,33.8"/>
<path class="st4" d="M164.5,54.4c-0.9,11.1-10.2,17.6-17.6,19.5c9.3,1.9,15.8,10.2,18.5,18.5c1.9-12.1,12-17.6,20.4-18.5
	C177.4,73,167.2,66.5,164.5,54.4z"/>
<ellipse transform="matrix(0.969 -0.247 0.247 0.969 -10.9636 16.9893)" class="st2" cx="62.2" cy="52.2" rx="17.5" ry="17.2"/>
<ellipse transform="matrix(0.969 -0.247 0.247 0.969 -10.9609 16.9889)" class="st5" cx="62.2" cy="52.2" rx="13.1" ry="12.9"/>
<path class="st6" d="M59,39.7c-7,1.8-11.3,8.8-9.6,15.7"/>
<path class="st6" d="M75,48.9c1.8,6.9-2.5,13.9-9.6,15.7"/>
<path class="st4" d="M63.3,55.5c0.9,5.1-2.6,9.1-5.7,10.8C62,66,65.9,69,68.1,72.5c-0.5-5.6,3.4-9.3,7.1-10.7
	C71.3,62.3,66,60.6,63.3,55.5z"/>
</svg>