<svg width="343" height="211" viewBox="0 0 343 211" fill="none" xmlns="http://www.w3.org/2000/svg">
<path d="M122.387 117.841C130.702 115.721 135.724 107.263 133.604 98.948C131.484 90.6335 123.025 85.6117 114.711 87.7315C106.396 89.8513 101.375 98.3101 103.494 106.625C105.614 114.939 114.073 119.961 122.387 117.841Z" fill="#CCCCCC"/>
<path d="M192.193 132.817C183.879 134.937 178.857 143.396 180.977 151.71C183.096 160.025 191.555 165.047 199.87 162.927C208.184 160.807 213.206 152.348 211.086 144.034C208.966 135.719 200.508 130.698 192.193 132.817Z" fill="#999999"/>
<path d="M188.482 145.291C187.734 146.846 187.17 150.406 190.903 152.203" stroke="black" stroke-linecap="round"/>
<path opacity="0.3" fill-rule="evenodd" clip-rule="evenodd" d="M241.274 53.491C235.381 30.378 211.466 16.5205 187.858 22.5394C164.25 28.5583 149.889 52.1743 155.782 75.2874C161.675 98.4004 185.59 112.258 209.198 106.239C232.805 100.22 247.166 76.6041 241.274 53.491ZM230.584 56.1986C226.165 38.8638 208.229 28.4706 190.523 32.9848C172.817 37.499 162.046 55.211 166.466 72.5458C170.885 89.8806 188.821 100.274 206.527 95.7596C224.233 91.2454 235.004 73.5333 230.584 56.1986Z" fill="#FF0000"/>
<path d="M190.523 32.9848C208.228 28.4706 226.165 38.8638 230.584 56.1986C235.004 73.5333 224.233 91.2454 206.527 95.7596C188.821 100.274 170.885 89.8806 166.466 72.5458C162.046 55.211 172.817 37.499 190.523 32.9848Z" stroke="#FF0000"/>
<path d="M209.351 54.1997L198.676 65.0009M198.676 65.0009L188 75.8021M198.676 65.0009L209.351 75.8021M198.676 65.0009L188 54.1997" stroke="#FF0000" stroke-width="1.5" stroke-linecap="round" stroke-linejoin="round"/>
<path d="M104.519 21.6534C115.488 18.8567 126.601 25.2958 129.339 36.0355C132.077 46.7752 125.404 57.7487 114.434 60.5455C103.465 63.3422 92.3524 56.9032 89.6143 46.1634C86.8761 35.4237 93.5491 24.4502 104.519 21.6534Z" fill="#999999"/>
<path d="M105.759 26.5019C113.986 24.4043 122.321 29.2336 124.374 37.2884C126.428 45.3432 121.423 53.5733 113.196 55.6709C104.969 57.7685 96.6343 52.9392 94.5807 44.8843C92.5271 36.8295 97.5319 28.5994 105.759 26.5019Z" stroke="#808080"/>
<path d="M94.5767 44.8667C92.5231 36.8119 97.5278 28.5818 105.755 26.4843M124.374 37.2851C126.428 45.3399 121.423 53.57 113.196 55.6676" stroke="#CCCCCC" stroke-linecap="round"/>
<path d="M125.228 142.29C138.398 142.29 149.075 152.966 149.075 166.136C149.075 179.307 138.398 189.983 125.228 189.983C112.057 189.983 101.381 179.307 101.381 166.136C101.381 152.966 112.057 142.29 125.228 142.29Z" fill="#999999"/>
<path d="M132.584 149.016C142.173 153.19 146.49 164.512 142.227 174.307" stroke="#CCCCCC" stroke-linecap="round"/>
<circle cx="128.518" cy="144.395" r="0.584816" fill="#CCCCCC"/>
</svg>