<svg width="203" height="61" viewBox="0 0 203 61" fill="none" xmlns="http://www.w3.org/2000/svg">
<g clip-path="url(#clip0_7324_75791)">
<path d="M195.496 0.859375H7.99609C3.85396 0.859375 0.496094 4.21724 0.496094 8.35938V53.3594C0.496094 57.5015 3.85396 60.8594 7.99609 60.8594H195.496C199.638 60.8594 202.996 57.5015 202.996 53.3594V8.35938C202.996 4.21724 199.638 0.859375 195.496 0.859375Z" fill="black"/>
<path d="M195.496 2.05938C198.976 2.05938 201.796 4.87937 201.796 8.35938V53.3594C201.796 56.8394 198.976 59.6594 195.496 59.6594H7.99609C4.51609 59.6594 1.69609 56.8394 1.69609 53.3594V8.35938C1.69609 4.87937 4.51609 2.05938 7.99609 2.05938H195.496ZM195.496 0.859375H7.99609C3.87109 0.859375 0.496094 4.23438 0.496094 8.35938V53.3594C0.496094 57.4844 3.87109 60.8594 7.99609 60.8594H195.496C199.621 60.8594 202.996 57.4844 202.996 53.3594V8.35938C202.996 4.23438 199.621 0.859375 195.496 0.859375Z" fill="#A6A6A6"/>
<path d="M70.1162 13.2965C69.8586 12.7547 69.4856 12.3373 68.9972 12.0442C68.5087 11.7423 67.9403 11.5913 67.292 11.5913C66.6437 11.5913 66.0575 11.7423 65.5336 12.0442C65.0185 12.3373 64.6099 12.7636 64.308 13.3231C64.0149 13.8737 63.8684 14.5132 63.8684 15.2414C63.8684 15.9697 64.0149 16.6091 64.308 17.1597C64.6099 17.7103 65.0185 18.1366 65.5336 18.4386C66.0575 18.7317 66.6437 18.8782 67.292 18.8782C68.1979 18.8782 68.9439 18.6073 69.53 18.0656C70.1162 17.5238 70.4581 16.7911 70.5558 15.8675H66.8524V14.8817H71.848V15.8142C71.7769 16.578 71.5371 17.2796 71.1286 17.919C70.7201 18.5496 70.1828 19.0514 69.5167 19.4244C68.8506 19.7885 68.1091 19.9706 67.292 19.9706C66.4305 19.9706 65.6446 19.7707 64.9341 19.3711C64.2236 18.9626 63.6597 18.3986 63.2423 17.6793C62.8337 16.9599 62.6295 16.1473 62.6295 15.2414C62.6295 14.3355 62.8337 13.5229 63.2423 12.8036C63.6597 12.0753 64.2236 11.5114 64.9341 11.1117C65.6446 10.7032 66.4305 10.4989 67.292 10.4989C68.2778 10.4989 69.1481 10.7432 69.903 11.2316C70.6668 11.7201 71.2219 12.4084 71.5682 13.2965H70.1162ZM74.9295 11.5913V14.6952H78.3132V15.6943H74.9295V18.8915H78.7128V19.8906H73.7173V10.5922H78.7128V11.5913H74.9295ZM86.5285 10.6055V11.5913H83.9974V19.8906H82.7852V11.5913H80.2407V10.6055H86.5285ZM93.3174 10.6055V19.8906H92.1051V10.6055H93.3174ZM101.365 10.6055V11.5913H98.8338V19.8906H97.6215V11.5913H95.0771V10.6055H101.365ZM111.151 19.9839C110.29 19.9839 109.504 19.7841 108.793 19.3844C108.083 18.9759 107.519 18.4119 107.101 17.6926C106.693 16.9643 106.489 16.1473 106.489 15.2414C106.489 14.3355 106.693 13.5229 107.101 12.8036C107.519 12.0753 108.083 11.5114 108.793 11.1117C109.504 10.7032 110.29 10.4989 111.151 10.4989C112.021 10.4989 112.812 10.7032 113.522 11.1117C114.233 11.5114 114.792 12.0709 115.201 12.7902C115.609 13.5096 115.814 14.3267 115.814 15.2414C115.814 16.1562 115.609 16.9732 115.201 17.6926C114.792 18.4119 114.233 18.9759 113.522 19.3844C112.812 19.7841 112.021 19.9839 111.151 19.9839ZM111.151 18.9315C111.799 18.9315 112.381 18.7805 112.896 18.4785C113.42 18.1766 113.829 17.7459 114.122 17.1864C114.424 16.6268 114.575 15.9785 114.575 15.2414C114.575 14.4954 114.424 13.8471 114.122 13.2965C113.829 12.737 113.425 12.3062 112.91 12.0043C112.394 11.7023 111.808 11.5513 111.151 11.5513C110.494 11.5513 109.908 11.7023 109.393 12.0043C108.878 12.3062 108.469 12.737 108.167 13.2965C107.874 13.8471 107.727 14.4954 107.727 15.2414C107.727 15.9785 107.874 16.6268 108.167 17.1864C108.469 17.7459 108.878 18.1766 109.393 18.4785C109.917 18.7805 110.503 18.9315 111.151 18.9315ZM124.981 19.8906H123.768L118.893 12.4972V19.8906H117.68V10.5922H118.893L123.768 17.9723V10.5922H124.981V19.8906Z" fill="white"/>
<path d="M102.713 33.4839C99.1881 33.4839 96.3081 36.1689 96.3081 39.8589C96.3081 43.5489 99.1881 46.2339 102.713 46.2339C106.238 46.2339 109.118 43.5339 109.118 39.8589C109.118 36.1839 106.238 33.4839 102.713 33.4839ZM102.713 43.7289C100.778 43.7289 99.1131 42.1389 99.1131 39.8589C99.1131 37.5789 100.778 35.9889 102.713 35.9889C104.648 35.9889 106.313 37.5639 106.313 39.8589C106.313 42.1539 104.648 43.7289 102.713 43.7289ZM88.7481 33.4839C85.2231 33.4839 82.3431 36.1689 82.3431 39.8589C82.3431 43.5489 85.2231 46.2339 88.7481 46.2339C92.2731 46.2339 95.1531 43.5339 95.1531 39.8589C95.1531 36.1839 92.2731 33.4839 88.7481 33.4839ZM88.7481 43.7289C86.8131 43.7289 85.1481 42.1389 85.1481 39.8589C85.1481 37.5789 86.8131 35.9889 88.7481 35.9889C90.6831 35.9889 92.3481 37.5639 92.3481 39.8589C92.3481 42.1539 90.6831 43.7289 88.7481 43.7289ZM72.1281 35.4339V38.1339H78.6081C78.4131 39.6489 77.9031 40.7739 77.1381 41.5389C76.1931 42.4839 74.7231 43.5189 72.1431 43.5189C68.1531 43.5189 65.0331 40.3089 65.0331 36.3189C65.0331 32.3289 68.1531 29.1189 72.1431 29.1189C74.2881 29.1189 75.8631 29.9589 77.0181 31.0539L78.9231 29.1489C77.3031 27.6039 75.1581 26.4189 72.1281 26.4189C66.6681 26.4189 62.0781 30.8589 62.0781 36.3339C62.0781 41.8089 66.6681 46.2489 72.1281 46.2489C75.0831 46.2489 77.3031 45.2889 79.0431 43.4739C80.8281 41.6889 81.3831 39.1689 81.3831 37.1439C81.3831 36.5139 81.3381 35.9289 81.2331 35.4489H72.1281V35.4339ZM140.093 37.5339C139.568 36.1089 137.948 33.4689 134.633 33.4689C131.318 33.4689 128.618 36.0489 128.618 39.8439C128.618 43.4139 131.318 46.2189 134.948 46.2189C137.873 46.2189 139.568 44.4339 140.258 43.3989L138.083 41.9439C137.363 43.0089 136.373 43.7139 134.948 43.7139C133.523 43.7139 132.503 43.0689 131.858 41.7789L140.393 38.2539L140.108 37.5339H140.093ZM131.393 39.6639C131.318 37.2039 133.298 35.9439 134.723 35.9439C135.833 35.9439 136.778 36.4989 137.093 37.2939L131.393 39.6639ZM124.463 45.8439H127.268V27.0939H124.463V45.8439ZM119.873 34.8939H119.783C119.153 34.1439 117.953 33.4689 116.423 33.4689C113.228 33.4689 110.303 36.2739 110.303 39.8739C110.303 43.4739 113.228 46.2339 116.423 46.2339C117.938 46.2339 119.153 45.5589 119.783 44.7789H119.873V45.6939C119.873 48.1389 118.568 49.4439 116.468 49.4439C114.758 49.4439 113.693 48.2139 113.258 47.1789L110.813 48.1989C111.518 49.8939 113.378 51.9639 116.468 51.9639C119.753 51.9639 122.528 50.0289 122.528 45.3189V33.8589H119.873V34.8939ZM116.663 43.7139C114.728 43.7139 113.108 42.0939 113.108 39.8739C113.108 37.6539 114.728 35.9889 116.663 35.9889C118.598 35.9889 120.068 37.6389 120.068 39.8739C120.068 42.1089 118.568 43.7139 116.663 43.7139ZM153.233 27.0939H146.528V45.8439H149.333V38.7339H153.248C156.353 38.7339 159.398 36.4839 159.398 32.9139C159.398 29.3439 156.353 27.0939 153.248 27.0939H153.233ZM153.308 36.1389H149.333V29.7039H153.308C155.408 29.7039 156.593 31.4439 156.593 32.9139C156.593 34.3839 155.408 36.1239 153.308 36.1239V36.1389ZM170.603 33.4389C168.578 33.4389 166.478 34.3389 165.608 36.3039L168.098 37.3389C168.623 36.3039 169.613 35.9589 170.648 35.9589C172.088 35.9589 173.573 36.8289 173.588 38.3739V38.5689C173.078 38.2839 171.998 37.8489 170.663 37.8489C167.978 37.8489 165.263 39.3189 165.263 42.0639C165.263 44.5689 167.453 46.1889 169.913 46.1889C171.788 46.1889 172.838 45.3489 173.483 44.3589H173.573V45.7989H176.273V38.6139C176.273 35.2839 173.783 33.4239 170.573 33.4239L170.603 33.4389ZM170.258 43.7139C169.343 43.7139 168.068 43.2489 168.068 42.1239C168.068 40.6839 169.658 40.1289 171.038 40.1289C172.268 40.1289 172.853 40.3989 173.588 40.7589C173.378 42.4989 171.878 43.7289 170.258 43.7289V43.7139ZM186.128 33.8439L182.918 41.9739H182.828L179.498 33.8439H176.483L181.478 45.2139L178.628 51.5289H181.553L189.248 33.8439H186.143H186.128ZM160.913 45.8439H163.718V27.0939H160.913V45.8439Z" fill="white"/>
<path d="M31.5746 29.9896L15.5996 46.9396C16.0946 48.7846 17.7746 50.1346 19.7696 50.1346C20.5646 50.1346 21.3146 49.9246 21.9596 49.5346L22.0046 49.5046L39.9746 39.1396L31.5596 29.9746L31.5746 29.9896Z" fill="#EA4335"/>
<path d="M47.7298 27.1097H47.7148L39.9598 22.5947L31.2148 30.3797L39.9898 39.1547L47.7148 34.6997C49.0648 33.9647 49.9798 32.5397 49.9798 30.9047C49.9798 29.2697 49.0798 27.8447 47.7298 27.1247V27.1097Z" fill="#FBBC04"/>
<path d="M15.5973 14.7793C15.5073 15.1393 15.4473 15.4993 15.4473 15.8893V45.8293C15.4473 46.2193 15.4923 46.5793 15.5973 46.9393L32.1123 30.4243L15.5973 14.7793Z" fill="#4285F4"/>
<path d="M31.6946 30.8593L39.9596 22.5943L22.0046 12.1843C21.3596 11.7943 20.5946 11.5693 19.7696 11.5693C17.7746 11.5693 16.0946 12.9343 15.5996 14.7643L31.6946 30.8443V30.8593Z" fill="#34A853"/>
</g>
<defs>
<clipPath id="clip0_7324_75791">
<rect width="202.5" height="60" fill="white" transform="translate(0.496094 0.859375)"/>
</clipPath>
</defs>
</svg>
