<svg xmlns="http://www.w3.org/2000/svg" viewBox="0 0 24 24">
  <g>
    <circle cx="12" cy="12" r="11.61538" style="fill:#fc0"/>
    <path d="M12,1a10.94789,10.94789,0,1,0,7.778,3.222A11,11,0,0,0,12,1m0-1A12,12,0,1,1,0,12,12,12,0,0,1,12,0Z" style="fill:#039"/>
    <g>
      <path d="M22,12A10,10,0,1,1,12,2,9.98661,9.98661,0,0,1,22,12" style="fill:#039"/>
      <g>
        <polygon points="12 4.16 12.24 4.88 12.96 4.88 12.4 5.36 12.64 6 12 5.6 11.36 6 11.6 5.36 11.04 4.88 11.76 4.88 12 4.16" style="fill:#fc0"/>
        <polygon points="8.48 5.12 8.72 5.84 9.44 5.84 8.8 6.24 9.04 6.96 8.48 6.56 7.84 6.96 8.08 6.24 7.44 5.84 8.24 5.84 8.48 5.12" style="fill:#fc0"/>
        <polygon points="5.84 7.68 6.08 8.4 6.88 8.4 6.24 8.8 6.48 9.52 5.84 9.04 5.28 9.52 5.52 8.8 4.88 8.4 5.6 8.4 5.84 7.68" style="fill:#fc0"/>
        <polygon points="15.52 5.12 15.76 5.84 16.56 5.84 15.92 6.24 16.16 6.96 15.52 6.56 14.96 6.96 15.2 6.24 14.56 5.84 15.28 5.84 15.52 5.12" style="fill:#fc0"/>
        <polygon points="19.04 8.32 18.4 8.72 18.64 9.44 18 9.04 17.44 9.44 17.68 8.72 17.04 8.32 17.76 8.32 18 7.6 18.24 8.32 19.04 8.32" style="fill:#fc0"/>
        <polygon points="20 11.84 19.36 12.24 19.6 12.96 19.04 12.48 18.4 12.96 18.64 12.24 18 11.84 18.8 11.84 19.04 11.12 19.2 11.84 20 11.84" style="fill:#fc0"/>
        <polygon points="18.72 16.32 18.08 15.84 17.44 16.32 17.68 15.6 17.12 15.2 17.84 15.2 18.08 14.48 18.32 15.2 19.12 15.2 18.48 15.6 18.72 16.32" style="fill:#fc0"/>
        <polygon points="11.44 19.84 11.68 19.12 11.04 18.64 11.84 18.64 12.08 17.92 12.32 18.64 13.04 18.64 12.48 19.12 12.64 19.84 12.08 19.36 11.44 19.84" style="fill:#fc0"/>
        <polygon points="7.92 18.88 8.16 18.16 7.52 17.76 8.24 17.76 8.48 17.04 8.72 17.76 9.52 17.76 8.88 18.16 9.12 18.88 8.48 18.48 7.92 18.88" style="fill:#fc0"/>
        <polygon points="16.08 18.88 15.52 18.4 14.88 18.88 15.12 18.16 14.48 17.76 15.28 17.76 15.52 17.04 15.76 17.76 16.48 17.76 15.84 18.16 16.08 18.88" style="fill:#fc0"/>
        <polygon points="4 11.84 4.8 11.84 4.96 11.12 5.2 11.84 6 11.84 5.36 12.24 5.6 12.96 4.96 12.56 4.4 12.96 4.64 12.24 4 11.84" style="fill:#fc0"/>
        <polygon points="5.28 16.32 5.52 15.6 4.88 15.2 5.68 15.2 5.92 14.48 6.16 15.2 6.88 15.2 6.32 15.6 6.56 16.32 5.92 15.84 5.28 16.32" style="fill:#fc0"/>
      </g>
    </g>
  </g>
</svg>
