<svg width="119" height="32" viewBox="0 0 119 32" fill="none" xmlns="http://www.w3.org/2000/svg">
<path d="M47.509 28.5711C48.6275 28.5711 49.6714 28.3375 50.6407 27.8702C51.6207 27.3921 52.4835 26.7183 53.2291 25.849V28.0495H58.1344V11.3581H53.2291V13.3956C52.5794 12.5915 51.7538 11.9666 50.7526 11.5211C49.7513 11.0647 48.6701 10.8365 47.509 10.8365C45.9325 10.8365 44.5318 11.2277 43.3068 12.0101C42.0925 12.7816 41.1391 13.8357 40.4468 15.1723C39.7544 16.4981 39.4082 17.9977 39.4082 19.6712C39.4082 21.3881 39.7704 22.9204 40.4947 24.2678C41.219 25.6045 42.1884 26.6585 43.4027 27.4301C44.6277 28.1908 45.9965 28.5711 47.509 28.5711ZM48.963 24.3167C47.6954 24.3167 46.6462 23.8821 45.8154 23.0127C44.9845 22.1434 44.5691 21.0404 44.5691 19.7038C44.5691 18.3672 44.9845 17.2642 45.8154 16.3948C46.6569 15.5255 47.7061 15.0908 48.963 15.0908C50.2306 15.0908 51.2745 15.5255 52.0947 16.3948C52.9256 17.2533 53.341 18.3563 53.341 19.7038C53.341 21.0513 52.9309 22.1597 52.1107 23.029C51.2905 23.8875 50.2413 24.3167 48.963 24.3167Z" fill="white"/>
<path d="M62.3066 28.0495H67.2119V0.0131226H62.3066V28.0495Z" fill="white"/>
<path d="M71.3816 28.0495H76.2868V0.0131226H71.3816V28.0495Z" fill="white"/>
<path d="M88.4775 28.5711C91.4707 28.5711 93.6224 27.9734 94.9326 26.7781C96.2535 25.5719 96.9139 23.5941 96.9139 20.8448V11.3581H92.0087V19.6712C92.0087 21.4316 91.7423 22.6759 91.2097 23.4039C90.6878 24.132 89.7771 24.496 88.4775 24.496C87.1886 24.496 86.2779 24.132 85.7453 23.4039C85.2127 22.6759 84.9464 21.4316 84.9464 19.6712V11.3581H80.0412V20.8448C80.0412 23.5941 80.7016 25.5719 82.0224 26.7781C83.3433 27.9734 85.495 28.5711 88.4775 28.5711Z" fill="white"/>
<path d="M108.852 28.5711C110.663 28.5711 112.293 28.1962 113.742 27.4464C115.19 26.6857 116.335 25.6425 117.177 24.3167C118.029 22.9801 118.455 21.4425 118.455 19.7038C118.455 17.9651 118.029 16.4329 117.177 15.1071C116.335 13.7705 115.19 12.7273 113.742 11.9775C112.293 11.2168 110.663 10.8365 108.852 10.8365C107.052 10.8365 105.422 11.2168 103.963 11.9775C102.514 12.7273 101.364 13.7705 100.512 15.1071C99.6704 16.4329 99.2497 17.9651 99.2497 19.7038C99.2497 21.4425 99.6704 22.9801 100.512 24.3167C101.364 25.6425 102.514 26.6857 103.963 27.4464C105.422 28.1962 107.052 28.5711 108.852 28.5711ZM108.852 24.3004C108.022 24.3004 107.265 24.1048 106.584 23.7136C105.912 23.3224 105.38 22.7845 104.986 22.0999C104.592 21.4044 104.395 20.6057 104.395 19.7038C104.395 18.8018 104.592 18.0086 104.986 17.324C105.38 16.6285 105.912 16.0851 106.584 15.6939C107.265 15.3027 108.022 15.1071 108.852 15.1071C109.694 15.1071 110.45 15.3027 111.121 15.6939C111.803 16.0851 112.341 16.6285 112.735 17.324C113.14 18.0086 113.342 18.8018 113.342 19.7038C113.342 20.6057 113.14 21.4044 112.735 22.0999C112.341 22.7845 111.803 23.3224 111.121 23.7136C110.45 24.1048 109.694 24.3004 108.852 24.3004Z" fill="white"/>
<g clip-path="url(#clip0_7985_15377)">
<path d="M29.8226 31.0851V8.14838L18.71 19.6167L29.8226 31.0851Z" fill="white"/>
<path d="M8.66724 30.026L0 21.778L21.5391 0L29.823 8.11831L8.66724 30.026Z" fill="#2A73FF"/>
</g>
<defs>
<clipPath id="clip0_7985_15377">
<rect width="29.823" height="31.0842" fill="white"/>
</clipPath>
</defs>
</svg>
