<svg width="142" height="38" viewBox="0 0 142 38" fill="none" xmlns="http://www.w3.org/2000/svg">
<path d="M56.9239 34.8908C58.2552 34.8908 59.4978 34.6127 60.6516 34.0565C61.8181 33.4873 62.8451 32.6853 63.7327 31.6505V34.2699H69.5715V14.4017H63.7327V16.827C62.9592 15.8698 61.9766 15.126 60.7847 14.5957C59.5929 14.0524 58.3059 13.7808 56.9239 13.7808C55.0473 13.7808 53.38 14.2464 51.9219 15.1778C50.4764 16.0961 49.3416 17.3508 48.5175 18.9419C47.6933 20.5199 47.2812 22.305 47.2812 24.297C47.2812 26.3407 47.7123 28.1645 48.5745 29.7685C49.4367 31.3595 50.5906 32.6142 52.036 33.5326C53.4941 34.438 55.1234 34.8908 56.9239 34.8908ZM58.6546 29.8267C57.1458 29.8267 55.8969 29.3093 54.9079 28.2745C53.9189 27.2397 53.4244 25.9268 53.4244 24.3358C53.4244 22.7448 53.9189 21.4319 54.9079 20.397C55.9095 19.3622 57.1584 18.8448 58.6546 18.8448C60.1634 18.8448 61.406 19.3622 62.3823 20.397C63.3713 21.4189 63.8658 22.7318 63.8658 24.3358C63.8658 25.9397 63.3776 27.2591 62.4013 28.2939C61.425 29.3158 60.1761 29.8267 58.6546 29.8267Z" fill="black"/>
<path d="M74.5378 34.2699H80.3767V0.897461H74.5378V34.2699Z" fill="black"/>
<path d="M85.34 34.2699H91.1789V0.897461H85.34V34.2699Z" fill="black"/>
<path d="M105.69 34.8908C109.253 34.8908 111.814 34.1793 113.373 32.7565C114.946 31.3207 115.732 28.9665 115.732 25.694V14.4017H109.893V24.297C109.893 26.3924 109.576 27.8735 108.942 28.7402C108.321 29.6068 107.237 30.0401 105.69 30.0401C104.156 30.0401 103.071 29.6068 102.438 28.7402C101.804 27.8735 101.487 26.3924 101.487 24.297V14.4017H95.6477V25.694C95.6477 28.9665 96.4338 31.3207 98.0061 32.7565C99.5783 34.1793 102.14 34.8908 105.69 34.8908Z" fill="black"/>
<path d="M129.943 34.8908C132.098 34.8908 134.038 34.4445 135.762 33.552C137.487 32.6465 138.85 31.4048 139.851 29.8267C140.866 28.2357 141.373 26.4054 141.373 24.3358C141.373 22.2662 140.866 20.4423 139.851 18.8642C138.85 17.2732 137.487 16.0315 135.762 15.139C134.038 14.2335 132.098 13.7808 129.943 13.7808C127.8 13.7808 125.86 14.2335 124.123 15.139C122.398 16.0315 121.029 17.2732 120.015 18.8642C119.013 20.4423 118.512 22.2662 118.512 24.3358C118.512 26.4054 119.013 28.2357 120.015 29.8267C121.029 31.4048 122.398 32.6465 124.123 33.552C125.86 34.4445 127.8 34.8908 129.943 34.8908ZM129.943 29.8073C128.954 29.8073 128.053 29.5745 127.242 29.1088C126.443 28.6431 125.809 28.0029 125.34 27.188C124.871 26.3601 124.636 25.4094 124.636 24.3358C124.636 23.2622 124.871 22.3179 125.34 21.503C125.809 20.6752 126.443 20.0284 127.242 19.5627C128.053 19.0971 128.954 18.8642 129.943 18.8642C130.944 18.8642 131.844 19.0971 132.643 19.5627C133.455 20.0284 134.095 20.6752 134.564 21.503C135.046 22.3179 135.287 23.2622 135.287 24.3358C135.287 25.4094 135.046 26.3601 134.564 27.188C134.095 28.0029 133.455 28.6431 132.643 29.1088C131.844 29.5745 130.944 29.8073 129.943 29.8073Z" fill="black"/>
<g clip-path="url(#clip0_7324_74615)">
<path d="M35.8722 37.8812V10.5791L22.6445 24.2302L35.8722 37.8812Z" fill="#2A73FF"/>
<path d="M10.6899 36.6216L0.373047 26.8037L26.0116 0.880859L35.8721 10.5443L10.6899 36.6216Z" fill="black"/>
</g>
<defs>
<clipPath id="clip0_7324_74615">
<rect width="35.4991" height="37.0004" fill="white" transform="translate(0.373047 0.880859)"/>
</clipPath>
</defs>
</svg>
