<svg width="201" height="32" viewBox="0 0 201 32" fill="none" xmlns="http://www.w3.org/2000/svg">
<path d="M47.509 28.5736C48.6275 28.5736 49.6714 28.34 50.6407 27.8727C51.6207 27.3946 52.4835 26.7208 53.2291 25.8515V28.052H58.1344V11.3606H53.2291V13.3981C52.5794 12.594 51.7538 11.9691 50.7526 11.5236C49.7513 11.0672 48.6701 10.839 47.509 10.839C45.9325 10.839 44.5318 11.2302 43.3068 12.0126C42.0925 12.7841 41.1391 13.8382 40.4468 15.1748C39.7544 16.5006 39.4082 18.0002 39.4082 19.6737C39.4082 21.3906 39.7704 22.9229 40.4947 24.2703C41.219 25.607 42.1884 26.661 43.4027 27.4326C44.6277 28.1933 45.9965 28.5736 47.509 28.5736ZM48.963 24.3192C47.6954 24.3192 46.6462 23.8846 45.8154 23.0152C44.9845 22.1459 44.5691 21.0429 44.5691 19.7063C44.5691 18.3697 44.9845 17.2667 45.8154 16.3973C46.6569 15.528 47.7061 15.0933 48.963 15.0933C50.2306 15.0933 51.2745 15.528 52.0947 16.3973C52.9256 17.2558 53.341 18.3588 53.341 19.7063C53.341 21.0538 52.9309 22.1622 52.1107 23.0315C51.2905 23.89 50.2413 24.3192 48.963 24.3192Z" fill="white"/>
<path d="M62.3066 28.052H67.2119V0.015625H62.3066V28.052Z" fill="white"/>
<path d="M71.3816 28.052H76.2868V0.015625H71.3816V28.052Z" fill="white"/>
<path d="M88.4775 28.5736C91.4707 28.5736 93.6224 27.9759 94.9326 26.7806C96.2535 25.5744 96.9139 23.5966 96.9139 20.8473V11.3606H92.0086V19.6737C92.0086 21.4341 91.7423 22.6784 91.2097 23.4064C90.6878 24.1345 89.7771 24.4985 88.4775 24.4985C87.1886 24.4985 86.2779 24.1345 85.7453 23.4064C85.2127 22.6784 84.9464 21.4341 84.9464 19.6737V11.3606H80.0412V20.8473C80.0412 23.5966 80.7016 25.5744 82.0224 26.7806C83.3433 27.9759 85.495 28.5736 88.4775 28.5736Z" fill="white"/>
<path d="M108.852 28.5736C110.663 28.5736 112.293 28.1987 113.742 27.4489C115.19 26.6882 116.335 25.645 117.177 24.3192C118.029 22.9826 118.455 21.445 118.455 19.7063C118.455 17.9676 118.029 16.4354 117.177 15.1096C116.335 13.773 115.19 12.7298 113.742 11.98C112.293 11.2193 110.663 10.839 108.852 10.839C107.052 10.839 105.422 11.2193 103.963 11.98C102.514 12.7298 101.364 13.773 100.512 15.1096C99.6704 16.4354 99.2497 17.9676 99.2497 19.7063C99.2497 21.445 99.6704 22.9826 100.512 24.3192C101.364 25.645 102.514 26.6882 103.963 27.4489C105.422 28.1987 107.052 28.5736 108.852 28.5736ZM108.852 24.3029C108.022 24.3029 107.265 24.1073 106.584 23.7161C105.912 23.3249 105.38 22.787 104.986 22.1024C104.592 21.4069 104.395 20.6082 104.395 19.7063C104.395 18.8043 104.592 18.0111 104.986 17.3265C105.38 16.631 105.912 16.0876 106.584 15.6964C107.265 15.3052 108.022 15.1096 108.852 15.1096C109.694 15.1096 110.45 15.3052 111.121 15.6964C111.803 16.0876 112.341 16.631 112.735 17.3265C113.14 18.0111 113.342 18.8043 113.342 19.7063C113.342 20.6082 113.14 21.4069 112.735 22.1024C112.341 22.787 111.803 23.3249 111.121 23.7161C110.45 24.1073 109.694 24.3029 108.852 24.3029Z" fill="white"/>
<g clip-path="url(#clip0_7196_43707)">
<path d="M29.8226 31.0832V8.14648L18.71 19.6148L29.8226 31.0832Z" fill="white"/>
<path d="M8.66724 30.026L0 21.778L21.5391 0L29.823 8.11831L8.66724 30.026Z" fill="#2A73FF"/>
</g>
<path d="M131.057 8.99805V31.0838" stroke="white" stroke-width="0.840106"/>
<path d="M145.58 28.1484V11.8756H151.172C152.235 11.8756 153.167 12.0867 153.968 12.509C154.769 12.9168 155.388 13.4992 155.825 14.2564C156.276 14.9991 156.502 15.8655 156.502 16.8557C156.502 17.8459 156.276 18.7124 155.825 19.455C155.388 20.1977 154.769 20.7801 153.968 21.2024C153.182 21.6102 152.25 21.814 151.172 21.814H147.328V28.1484H145.58ZM147.328 20.1758H151.259C151.958 20.1758 152.57 20.0448 153.094 19.7827C153.618 19.506 154.026 19.1201 154.317 18.625C154.609 18.1153 154.754 17.5183 154.754 16.8339C154.754 16.1495 154.609 15.5597 154.317 15.0646C154.026 14.5695 153.618 14.1909 153.094 13.9288C152.57 13.6521 151.958 13.5138 151.259 13.5138H147.328V20.1758ZM161.296 28.1484V11.8756H166.888C167.951 11.8756 168.883 12.0867 169.684 12.509C170.485 12.9168 171.104 13.4992 171.541 14.2564C171.992 14.9991 172.218 15.8655 172.218 16.8557C172.218 18.0061 171.912 18.989 171.3 19.8045C170.703 20.62 169.888 21.1952 168.854 21.5301L172.654 28.1484H170.601L166.626 21.1369L167.805 21.814H163.044V28.1484H161.296ZM163.044 20.1758H166.975C167.674 20.1758 168.286 20.0448 168.81 19.7827C169.334 19.506 169.742 19.1201 170.033 18.625C170.325 18.1153 170.47 17.5183 170.47 16.8339C170.47 16.1495 170.325 15.5597 170.033 15.0646C169.742 14.5695 169.334 14.1909 168.81 13.9288C168.286 13.6521 167.674 13.5138 166.975 13.5138H163.044V20.1758ZM184.636 28.4106C183.5 28.4106 182.437 28.2067 181.447 27.799C180.472 27.3767 179.612 26.7942 178.87 26.0515C178.127 25.2943 177.545 24.406 177.122 23.3867C176.7 22.3528 176.489 21.2243 176.489 20.0011C176.489 18.7779 176.7 17.6566 177.122 16.6373C177.545 15.6034 178.127 14.7151 178.87 13.9725C179.612 13.2153 180.472 12.6328 181.447 12.2251C182.437 11.8173 183.5 11.6135 184.636 11.6135C185.772 11.6135 186.828 11.8246 187.803 12.2469C188.794 12.6546 189.66 13.2371 190.403 13.9943C191.145 14.737 191.728 15.618 192.15 16.6373C192.572 17.6566 192.784 18.7779 192.784 20.0011C192.784 21.2243 192.572 22.3528 192.15 23.3867C191.728 24.406 191.145 25.2943 190.403 26.0515C189.66 26.7942 188.794 27.3767 187.803 27.799C186.828 28.2067 185.772 28.4106 184.636 28.4106ZM184.636 26.7723C185.583 26.7723 186.442 26.5976 187.214 26.2481C188 25.8986 188.677 25.4108 189.245 24.7847C189.813 24.1585 190.25 23.4377 190.556 22.6222C190.876 21.8068 191.036 20.933 191.036 20.0011C191.036 19.0837 190.876 18.2173 190.556 17.4018C190.25 16.5863 189.813 15.8655 189.245 15.2394C188.677 14.6132 188 14.1254 187.214 13.7759C186.442 13.4264 185.583 13.2517 184.636 13.2517C183.69 13.2517 182.823 13.4264 182.037 13.7759C181.265 14.1254 180.595 14.6132 180.027 15.2394C179.46 15.8655 179.015 16.5863 178.695 17.4018C178.389 18.2173 178.236 19.0837 178.236 20.0011C178.236 20.933 178.389 21.8068 178.695 22.6222C179.015 23.4377 179.46 24.1585 180.027 24.7847C180.595 25.4108 181.273 25.8986 182.059 26.2481C182.845 26.5976 183.704 26.7723 184.636 26.7723Z" fill="#2A73FF"/>
<defs>
<clipPath id="clip0_7196_43707">
<rect width="29.823" height="31.0842" fill="white"/>
</clipPath>
</defs>
</svg>
