<svg width="142" height="38" viewBox="0 0 142 38" fill="none" xmlns="http://www.w3.org/2000/svg">
<path d="M56.5899 34.7589C57.9212 34.7589 59.1638 34.4808 60.3176 33.9246C61.4841 33.3555 62.5111 32.5535 63.3987 31.5187V34.1381H69.2375V14.2698H63.3987V16.6951C62.6252 15.7379 61.6426 14.9942 60.4507 14.4638C59.2589 13.9206 57.9719 13.6489 56.5899 13.6489C54.7134 13.6489 53.046 14.1146 51.5879 15.0459C50.1425 15.9643 49.0077 17.219 48.1835 18.81C47.3593 20.3881 46.9473 22.1731 46.9473 24.1651C46.9473 26.2089 47.3784 28.0327 48.2406 29.6367C49.1028 31.2277 50.2566 32.4824 51.702 33.4008C53.1601 34.3062 54.7894 34.7589 56.5899 34.7589ZM58.3206 29.6949C56.8118 29.6949 55.5629 29.1775 54.5739 28.1427C53.5849 27.1079 53.0904 25.7949 53.0904 24.2039C53.0904 22.6129 53.5849 21.3 54.5739 20.2652C55.5755 19.2304 56.8245 18.713 58.3206 18.713C59.8295 18.713 61.072 19.2304 62.0483 20.2652C63.0373 21.2871 63.5318 22.6 63.5318 24.2039C63.5318 25.8079 63.0437 27.1273 62.0674 28.1621C61.091 29.1839 59.8421 29.6949 58.3206 29.6949Z" fill="white"/>
<path d="M74.2038 34.1381H80.0427V0.765625H74.2038V34.1381Z" fill="white"/>
<path d="M85.006 34.1381H90.8449V0.765625H85.006V34.1381Z" fill="white"/>
<path d="M105.356 34.7589C108.919 34.7589 111.48 34.0475 113.039 32.6247C114.612 31.1889 115.398 28.8347 115.398 25.5621V14.2698H109.559V24.1651C109.559 26.2606 109.242 27.7417 108.608 28.6083C107.987 29.475 106.903 29.9083 105.356 29.9083C103.822 29.9083 102.737 29.475 102.104 28.6083C101.47 27.7417 101.153 26.2606 101.153 24.1651V14.2698H95.3137V25.5621C95.3137 28.8347 96.0999 31.1889 97.6721 32.6247C99.2443 34.0475 101.806 34.7589 105.356 34.7589Z" fill="white"/>
<path d="M129.609 34.7589C131.764 34.7589 133.704 34.3127 135.428 33.4202C137.153 32.5147 138.516 31.2729 139.517 29.6949C140.532 28.1039 141.039 26.2735 141.039 24.2039C141.039 22.1343 140.532 20.3105 139.517 18.7324C138.516 17.1414 137.153 15.8996 135.428 15.0071C133.704 14.1017 131.764 13.6489 129.609 13.6489C127.466 13.6489 125.526 14.1017 123.789 15.0071C122.064 15.8996 120.695 17.1414 119.681 18.7324C118.679 20.3105 118.178 22.1343 118.178 24.2039C118.178 26.2735 118.679 28.1039 119.681 29.6949C120.695 31.2729 122.064 32.5147 123.789 33.4202C125.526 34.3127 127.466 34.7589 129.609 34.7589ZM129.609 29.6755C128.62 29.6755 127.719 29.4426 126.908 28.977C126.109 28.5113 125.475 27.871 125.006 27.0561C124.537 26.2283 124.302 25.2775 124.302 24.2039C124.302 23.1303 124.537 22.1861 125.006 21.3712C125.475 20.5433 126.109 19.8966 126.908 19.4309C127.719 18.9652 128.62 18.7324 129.609 18.7324C130.61 18.7324 131.51 18.9652 132.309 19.4309C133.121 19.8966 133.761 20.5433 134.23 21.3712C134.712 22.1861 134.953 23.1303 134.953 24.2039C134.953 25.2775 134.712 26.2283 134.23 27.0561C133.761 27.871 133.121 28.5113 132.309 28.977C131.51 29.4426 130.61 29.6755 129.609 29.6755Z" fill="white"/>
<g clip-path="url(#clip0_7324_73673)">
<path d="M35.5382 37.7474V10.4453L22.3105 24.0964L35.5382 37.7474Z" fill="#2A73FF"/>
<path d="M10.3559 36.4888L0.0390625 26.6709L25.6776 0.748047L35.5381 10.4115L10.3559 36.4888Z" fill="#2A73FF"/>
</g>
<defs>
<clipPath id="clip0_7324_73673">
<rect width="35.4991" height="37.0004" fill="white" transform="translate(0.0390625 0.748047)"/>
</clipPath>
</defs>
</svg>
