<svg width="466" height="120" viewBox="0 0 466 120" fill="none" xmlns="http://www.w3.org/2000/svg">
<path d="M186.765 110.104C191.153 110.104 195.248 109.206 199.051 107.409C202.896 105.57 206.281 102.979 209.206 99.6356V108.098H228.451V43.9078H209.206V51.7435C206.657 48.651 203.418 46.2481 199.49 44.5346C195.562 42.7794 191.32 41.9018 186.765 41.9018C180.58 41.9018 175.084 43.4063 170.278 46.4152C165.514 49.3824 161.774 53.4361 159.057 58.5763C156.341 63.6748 154.983 69.4419 154.983 75.8776C154.983 82.4806 156.404 88.3731 159.246 93.5551C162.087 98.6954 165.89 102.749 170.654 105.716C175.46 108.642 180.83 110.104 186.765 110.104ZM192.469 93.7432C187.496 93.7432 183.38 92.0715 180.12 88.7283C176.86 85.385 175.23 81.1433 175.23 76.003C175.23 70.8628 176.86 66.621 180.12 63.2778C183.421 59.9345 187.538 58.2629 192.469 58.2629C197.442 58.2629 201.538 59.9345 204.756 63.2778C208.015 66.5792 209.645 70.821 209.645 76.003C209.645 81.1851 208.036 85.4477 204.818 88.791C201.6 92.0924 197.484 93.7432 192.469 93.7432Z" fill="white"/>
<path d="M244.82 108.098H264.064V0.27832H244.82V108.098Z" fill="white"/>
<path d="M280.423 108.098H299.668V0.27832H280.423V108.098Z" fill="white"/>
<path d="M347.496 110.104C359.239 110.104 367.68 107.806 372.821 103.209C378.003 98.57 380.594 90.9641 380.594 80.391V43.9078H361.349V75.8776C361.349 82.6477 360.304 87.4328 358.215 90.2327C356.167 93.0327 352.594 94.4327 347.496 94.4327C342.439 94.4327 338.866 93.0327 336.776 90.2327C334.687 87.4328 333.642 82.6477 333.642 75.8776V43.9078H314.397V80.391C314.397 90.9641 316.988 98.57 322.17 103.209C327.352 107.806 335.794 110.104 347.496 110.104Z" fill="white"/>
<path d="M427.432 110.104C434.536 110.104 440.93 108.662 446.614 105.779C452.297 102.854 456.79 98.8416 460.091 93.7432C463.435 88.6029 465.106 82.6895 465.106 76.003C465.106 69.3165 463.435 63.424 460.091 58.3256C456.79 53.1853 452.297 49.1734 446.614 46.2898C440.93 43.3645 434.536 41.9018 427.432 41.9018C420.369 41.9018 413.975 43.3645 408.25 46.2898C402.567 49.1734 398.053 53.1853 394.71 58.3256C391.408 63.424 389.758 69.3165 389.758 76.003C389.758 82.6895 391.408 88.6029 394.71 93.7432C398.053 98.8416 402.567 102.854 408.25 105.779C413.975 108.662 420.369 110.104 427.432 110.104ZM427.432 93.6805C424.172 93.6805 421.205 92.9282 418.531 91.4238C415.898 89.9193 413.808 87.8507 412.262 85.2179C410.716 82.5433 409.943 79.4716 409.943 76.003C409.943 72.5344 410.716 69.4837 412.262 66.8509C413.808 64.1763 415.898 62.0867 418.531 60.5823C421.205 59.0778 424.172 58.3256 427.432 58.3256C430.733 58.3256 433.701 59.0778 436.333 60.5823C439.008 62.0867 441.118 64.1763 442.665 66.8509C444.253 69.4837 445.047 72.5344 445.047 76.003C445.047 79.4716 444.253 82.5433 442.665 85.2179C441.118 87.8507 439.008 89.9193 436.333 91.4238C433.701 92.9282 430.733 93.6805 427.432 93.6805Z" fill="white"/>
<g clip-path="url(#clip0_4118_33871)">
<path d="M117.378 119.766V31.5576L73.7803 75.6616L117.378 119.766Z" fill="#2A73FF"/>
<path d="M34.3785 115.696L0.374512 83.9765L84.8785 0.224609L117.378 31.4453L34.3785 115.696Z" fill="white"/>
</g>
<defs>
<clipPath id="clip0_4118_33871">
<rect width="117.004" height="119.541" fill="white" transform="translate(0.374512 0.224609)"/>
</clipPath>
</defs>
</svg>
