<svg width="25" height="24" viewBox="0 0 25 24" fill="none" xmlns="http://www.w3.org/2000/svg">
<g clip-path="url(#clip0_6152_21474)">
<path fill-rule="evenodd" clip-rule="evenodd" d="M3.40752 6.887C3.43752 6.592 3.32452 6.301 3.10452 6.103L0.864523 3.403V3H7.82252L13.2005 14.795L17.9285 3H24.5615V3.403L22.6455 5.24C22.4805 5.366 22.3985 5.573 22.4325 5.778V19.276C22.3985 19.48 22.4805 19.687 22.6455 19.813L24.5165 21.65V22.053H15.1045V21.65L17.0435 19.768C17.2335 19.578 17.2335 19.522 17.2335 19.231V8.321L11.8445 22.009H11.1165L4.84152 8.321V17.495C4.78952 17.88 4.91752 18.269 5.18852 18.547L7.70952 21.605V22.009H0.561523V21.605L3.08252 18.547C3.35252 18.268 3.47252 17.877 3.40752 17.495V6.887Z" fill="black"/>
</g>
<defs>
<clipPath id="clip0_6152_21474">
<rect width="24" height="24" fill="white" transform="translate(0.561523)"/>
</clipPath>
</defs>
</svg>
