<svg width="50" height="50" viewBox="0 0 50 50" fill="none" xmlns="http://www.w3.org/2000/svg">
<path fill-rule="evenodd" clip-rule="evenodd" d="M14.3057 44.2072L20.8565 45.9469V43.672L21.3912 43.1367H25.1345V45.813V47.6865H21.1238L16.1773 45.5454L14.3057 44.2072Z" fill="#CDBDB2"/>
<path fill-rule="evenodd" clip-rule="evenodd" d="M35.6963 44.2072L29.2792 45.9469V43.672L28.7444 43.1367H25.0011V45.813V47.6865H29.0118L33.9583 45.5454L35.6963 44.2072Z" fill="#CDBDB2"/>
<path fill-rule="evenodd" clip-rule="evenodd" d="M21.3911 39.2549L20.8564 43.6701L21.5248 43.1349H28.4755L29.2775 43.6701L28.7428 39.2549L27.6735 38.5859L22.3268 38.7197L21.3911 39.2549Z" fill="#393939"/>
<path fill-rule="evenodd" clip-rule="evenodd" d="M17.7793 9.41602L20.9879 16.9097L22.4584 38.7217H27.6723L29.2766 16.9097L32.2178 9.41602H17.7793Z" fill="#F89C35"/>
<path fill-rule="evenodd" clip-rule="evenodd" d="M3.74331 25.8739L0 36.713L9.35828 36.1777H15.3743V31.4941L15.1069 21.8594L13.77 22.9299L3.74331 25.8739Z" fill="#F89D35"/>
<path fill-rule="evenodd" clip-rule="evenodd" d="M10.8291 27.0801L21.7917 27.3477L20.5885 32.968L15.3746 31.6298L10.8291 27.0801Z" fill="#D87C30"/>
<path fill-rule="evenodd" clip-rule="evenodd" d="M10.8291 27.2109L15.3738 31.4923V35.7737L10.8291 27.2109Z" fill="#EA8D3A"/>
<path fill-rule="evenodd" clip-rule="evenodd" d="M15.374 31.627L20.7207 32.9649L22.4584 38.718L21.2554 39.387L15.374 35.9084V31.627Z" fill="#F89D35"/>
<path fill-rule="evenodd" clip-rule="evenodd" d="M15.375 35.9102L14.3057 44.2054L21.3901 39.255L15.375 35.9102Z" fill="#EB8F35"/>
<path fill-rule="evenodd" clip-rule="evenodd" d="M21.79 27.3438L22.4585 38.7181L20.4531 32.8971L21.79 27.3438Z" fill="#EA8E3A"/>
<path fill-rule="evenodd" clip-rule="evenodd" d="M9.22363 36.0439L15.3723 35.9102L14.303 44.2054L9.22363 36.0439Z" fill="#D87C30"/>
<path fill-rule="evenodd" clip-rule="evenodd" d="M2.94117 47.8188L14.3048 44.2057L9.22459 36.043L0 36.712L2.94117 47.8188Z" fill="#EB8F35"/>
<path fill-rule="evenodd" clip-rule="evenodd" d="M20.9895 16.9082L15.2409 21.7256L10.8291 27.0782L21.7917 27.4797L20.9895 16.9082Z" fill="#E8821E"/>
<path fill-rule="evenodd" clip-rule="evenodd" d="M14.3057 44.2043L21.3901 39.2539L20.8554 43.5353V45.9436L16.0433 45.007L14.3057 44.2043Z" fill="#DFCEC3"/>
<path fill-rule="evenodd" clip-rule="evenodd" d="M35.6963 44.2043L28.7456 39.2539L29.2803 43.5353V45.9436L34.0923 45.007L35.6963 44.2043Z" fill="#DFCEC3"/>
<path fill-rule="evenodd" clip-rule="evenodd" d="M18.8519 29.7539L20.3223 32.8312L15.1092 31.4932L18.8519 29.7539Z" fill="#393939"/>
<path fill-rule="evenodd" clip-rule="evenodd" d="M2.80762 3.125L20.9894 16.908L17.9146 9.41435L2.80762 3.125Z" fill="#E88F35"/>
<path fill-rule="evenodd" clip-rule="evenodd" d="M2.80583 3.125L0.399414 10.4849L1.73631 18.5138L0.800483 19.0491L2.13738 20.2534L1.06786 21.1902L2.53845 22.5283L1.60262 23.3312L3.74166 26.0075L13.7684 22.9298C18.6703 19.0045 21.0768 16.9973 20.9876 16.908C20.8985 16.8188 14.8379 12.2245 2.80583 3.125Z" fill="#8E5A30"/>
<path fill-rule="evenodd" clip-rule="evenodd" d="M46.2547 25.8739L49.998 36.713L40.6397 36.1777H34.6237V31.4941L34.8911 21.8594L36.228 22.9299L46.2547 25.8739Z" fill="#F89D35"/>
<path fill-rule="evenodd" clip-rule="evenodd" d="M39.1689 27.0801L28.2064 27.3477L29.4096 32.968L34.6235 31.6298L39.1689 27.0801Z" fill="#D87C30"/>
<path fill-rule="evenodd" clip-rule="evenodd" d="M39.1689 27.2109L34.6242 31.4923V35.7737L39.1689 27.2109Z" fill="#EA8D3A"/>
<path fill-rule="evenodd" clip-rule="evenodd" d="M34.624 31.627L29.2773 32.9649L27.5397 38.718L28.7427 39.387L34.624 35.9084V31.627Z" fill="#F89D35"/>
<path fill-rule="evenodd" clip-rule="evenodd" d="M34.623 35.9102L35.6924 44.2054L28.7417 39.3888L34.623 35.9102Z" fill="#EB8F35"/>
<path fill-rule="evenodd" clip-rule="evenodd" d="M28.208 27.3438L27.5396 38.7181L29.5449 32.8971L28.208 27.3438Z" fill="#EA8E3A"/>
<path fill-rule="evenodd" clip-rule="evenodd" d="M40.7744 36.0439L34.6257 35.9102L35.6951 44.2054L40.7744 36.0439Z" fill="#D87C30"/>
<path fill-rule="evenodd" clip-rule="evenodd" d="M47.0569 47.8188L35.6932 44.2057L40.7734 36.043L49.998 36.712L47.0569 47.8188Z" fill="#EB8F35"/>
<path fill-rule="evenodd" clip-rule="evenodd" d="M29.0085 16.9082L34.7572 21.7256L39.1689 27.0782L28.2064 27.4797L29.0085 16.9082Z" fill="#E8821E"/>
<path fill-rule="evenodd" clip-rule="evenodd" d="M31.1461 29.7539L29.6758 32.8312L34.8888 31.4932L31.1461 29.7539Z" fill="#393939"/>
<path fill-rule="evenodd" clip-rule="evenodd" d="M47.1904 3.125L29.0086 16.908L32.0835 9.41435L47.1904 3.125Z" fill="#E88F35"/>
<path fill-rule="evenodd" clip-rule="evenodd" d="M47.1922 3.125L49.5986 10.4849L48.2617 18.5138L49.1976 19.0491L47.8607 20.2534L48.9302 21.1902L47.4596 22.5283L48.3954 23.3312L46.2564 26.0075L36.2297 22.9298C31.3277 19.0045 28.9213 16.9973 29.0104 16.908C29.0996 16.8188 35.1602 12.2245 47.1922 3.125Z" fill="#8E5A30"/>
</svg>
