<svg width="24" height="24" viewBox="0 0 24 24" fill="none" xmlns="http://www.w3.org/2000/svg">
<path d="M16.2441 15.1387C17.3781 15.2233 18.5077 15.0646 19.5608 14.6836C19.2795 15.4612 18.8779 16.1944 18.367 16.8551C17.4376 18.0572 16.185 18.9698 14.7559 19.486C13.3267 20.0022 11.7801 20.1008 10.297 19.7701C8.81394 19.4394 7.45569 18.6931 6.38123 17.6187C5.30677 16.5442 4.56053 15.186 4.22984 13.7029C3.89914 12.2198 3.99767 10.6732 4.51389 9.24402C5.0301 7.81488 5.94266 6.5623 7.14478 5.63287C7.8055 5.12202 8.53868 4.72041 9.31629 4.43906C8.93528 5.49218 8.77664 6.62181 8.8612 7.75578C9.0037 9.6666 9.82729 11.4628 11.1822 12.8177C12.5371 14.1726 14.3333 14.9962 16.2441 15.1387Z" stroke="#999999" stroke-width="2" stroke-linecap="round"/>
</svg>