<svg width="18" height="18" viewBox="0 0 18 18" fill="none" xmlns="http://www.w3.org/2000/svg">
<path d="M13.2441 12.1387C14.3781 12.2233 15.5077 12.0646 16.5608 11.6836C16.2795 12.4612 15.8779 13.1944 15.367 13.8551C14.4376 15.0572 13.185 15.9698 11.7559 16.486C10.3267 17.0022 8.78013 17.1008 7.29703 16.7701C5.81394 16.4394 4.45569 15.6931 3.38123 14.6187C2.30677 13.5442 1.56053 12.186 1.22984 10.7029C0.899145 9.21977 0.99767 7.67317 1.51389 6.24402C2.0301 4.81488 2.94266 3.5623 4.14478 2.63287C4.8055 2.12202 5.53868 1.72041 6.31629 1.43906C5.93528 2.49218 5.77664 3.62181 5.8612 4.75578C6.0037 6.6666 6.82729 8.4628 8.1822 9.81771C9.5371 11.1726 11.3333 11.9962 13.2441 12.1387Z" stroke="#999999" stroke-width="2" stroke-linecap="round" stroke-linejoin="round"/>
</svg>
