<svg width="297" height="281" viewBox="0 0 297 281" fill="none" xmlns="http://www.w3.org/2000/svg">
<path d="M47.6739 11.0723L295.721 11.0723" stroke="#EBEBEB" stroke-linecap="round"/>
<path d="M47.6739 60.4316L295.721 60.4316" stroke="#EBEBEB" stroke-linecap="round"/>
<path d="M47.6739 109.791L295.721 109.791" stroke="#EBEBEB" stroke-linecap="round"/>
<path d="M47.6739 257.869L295.721 257.869" stroke="#EBEBEB" stroke-linecap="round"/>
<path d="M47.6739 159.15L295.721 159.15" stroke="#EBEBEB" stroke-linecap="round"/>
<path d="M47.6739 208.51L295.721 208.51" stroke="#EBEBEB" stroke-linecap="round"/>
<path d="M295.096 10.4473L295.096 258.494" stroke="#EBEBEB" stroke-linecap="round"/>
<path d="M245.736 10.4473L245.736 258.494" stroke="#EBEBEB" stroke-linecap="round"/>
<path d="M196.377 10.4473L196.377 258.494" stroke="#EBEBEB" stroke-linecap="round"/>
<path d="M48.2988 10.4473L48.2988 258.494" stroke="#EBEBEB" stroke-linecap="round"/>
<path d="M147.018 10.4473L147.018 258.494" stroke="#EBEBEB" stroke-linecap="round"/>
<path d="M97.6582 10.4473L97.6582 258.494" stroke="#EBEBEB" stroke-linecap="round"/>
<path d="M140.6 158.982L164.015 116.543" stroke="#2A73FF"/>
<path d="M164.746 117.275L191.819 158.982" stroke="#2A73FF"/>
<path d="M277.428 3.49414L191.819 158.981" stroke="#2A73FF"/>
<path d="M86.0303 280.44C131.642 280.44 168.617 243.465 168.617 197.854C168.617 152.243 131.642 115.268 86.0303 115.268C40.4191 115.268 3.44385 152.243 3.44385 197.854C3.44385 243.465 40.4191 280.44 86.0303 280.44Z" fill="#EAF1FF"/>
<path d="M109.612 263.058C107.818 263.058 106.297 261.739 106.043 259.962C105.789 258.186 106.88 256.493 108.603 255.991C121.799 252.097 132.706 242.74 140.116 228.949C149.13 212.021 151.473 190.748 145.939 174.757C145.287 172.875 146.283 170.821 148.165 170.169C150.047 169.516 152.101 170.513 152.753 172.395C158.919 190.207 156.449 213.751 146.48 232.356C138.133 247.932 125.729 258.515 110.64 263.004C110.301 263.066 109.956 263.084 109.612 263.058Z" fill="#F4F8FF"/>
<path d="M88.2367 269.217C86.2454 269.411 84.4737 267.954 84.2796 265.963C84.0854 263.971 85.5423 262.2 87.5336 262.006L88.7055 261.771C89.9821 261.481 91.3155 261.906 92.1891 262.881C93.0627 263.856 93.3391 265.228 92.9114 266.465C92.4837 267.703 91.4189 268.611 90.1297 268.838L88.9398 269.073C88.7118 269.148 88.4759 269.196 88.2367 269.217Z" fill="#F4F8FF"/>
<path d="M29.0742 164.613C27.7569 164.61 26.5457 163.89 25.9149 162.734C25.2841 161.577 25.3342 160.169 26.0455 159.06C33.0564 148.948 42.1782 140.479 52.7811 134.235C62.8137 129.114 73.8332 126.218 85.0873 125.744C87.0787 125.679 88.7454 127.241 88.8101 129.233C88.8748 131.224 87.313 132.891 85.3217 132.955C75.2105 133.402 65.3101 135.995 56.2785 140.563C46.7214 146.219 38.4846 153.853 32.121 162.954C31.4555 163.991 30.3065 164.617 29.0742 164.613Z" fill="#F4F8FF"/>
<circle cx="248.61" cy="222.179" r="11.544" fill="#C9CFEA"/>
<path d="M252.485 226.082C251.502 226.907 249.042 227.966 247.064 225.608" stroke="black"/>
<path d="M262.547 113.909C268.694 113.409 272.279 108.408 273.303 104.408C274.328 109.408 278.938 112.909 283.548 114.409C276.889 115.409 273.816 120.909 273.303 125.409C272.792 120.909 269.206 115.409 262.547 113.909Z" fill="#C9CFEA"/>
<path d="M249.624 107.022C253.406 106.714 255.612 103.637 256.243 101.176C256.873 104.253 259.71 106.407 262.547 107.33C258.449 107.945 256.558 111.33 256.243 114.099C255.928 111.33 253.721 107.945 249.624 107.022Z" fill="#C9CFEA"/>
<circle cx="164.38" cy="116.909" r="2.56096" fill="#2A73FF"/>
<circle cx="191.453" cy="158.616" r="2.56096" fill="#2A73FF"/>
<circle cx="277.062" cy="3.49455" r="2.56096" fill="#2A73FF"/>
<g clip-path="url(#clip0_8383_82705)">
<path d="M117.917 235.077V176.227L88.7441 205.652L117.917 235.077Z" fill="#2A73FF"/>
<path d="M62.3785 232.363L39.625 211.2L96.17 155.322L117.917 176.152L62.3785 232.363Z" fill="black"/>
</g>
<defs>
<clipPath id="clip0_8383_82705">
<rect width="78.2921" height="79.7555" fill="white" transform="translate(39.625 155.322)"/>
</clipPath>
</defs>
</svg>
