<svg width="24" height="24" viewBox="0 0 24 24" fill="none" xmlns="http://www.w3.org/2000/svg">
<g clip-path="url(#clip0_6065_19706)">
<path d="M23.5 12C23.5 18.3513 18.3513 23.5 12 23.5C5.64873 23.5 0.5 18.3513 0.5 12C0.5 5.64873 5.64873 0.5 12 0.5C18.3513 0.5 23.5 5.64873 23.5 12Z" fill="#F6F6F6" stroke="white"/>
<g clip-path="url(#clip1_6065_19706)">
<path d="M7.16548 11.0996L7.02838 11.3073C5.45177 13.7996 5.79451 17.0535 7.91951 19.1304C9.08483 20.3765 10.73 20.9996 12.3752 20.9996C12.3752 20.9996 12.3752 20.9996 7.16548 11.0996Z" fill="#00A3FF"/>
<path opacity="0.6" d="M12.3752 14.0774L7.16553 11.0312C12.3752 21.0005 12.3752 21.0005 12.3752 21.0005C12.3752 18.8543 12.3752 16.362 12.3752 14.0774Z" fill="#00A3FF"/>
<path opacity="0.6" d="M17.5847 11.0996L17.7218 11.3073C19.2984 13.7996 18.9556 17.0535 16.8306 19.1304C15.5968 20.3765 14.0202 20.9996 12.375 20.9996C12.375 20.9996 12.375 20.9996 17.5847 11.0996Z" fill="#00A3FF"/>
<path opacity="0.2" d="M12.375 14.0774L17.5847 11.0312C12.375 21.0005 12.375 21.0005 12.375 21.0005C12.375 18.8543 12.375 16.362 12.375 14.0774Z" fill="#00A3FF"/>
<path opacity="0.2" d="M12.375 7.36133V12.5536L16.8992 9.9921L12.375 7.36133Z" fill="#00A3FF"/>
<path opacity="0.6" d="M12.3748 7.36133L7.85059 9.9921L12.3748 12.5536V7.36133Z" fill="#00A3FF"/>
<path d="M12.3748 3L7.85059 9.99231L12.3748 7.36154V3Z" fill="#00A3FF"/>
<path opacity="0.6" d="M12.375 7.36154L16.8992 9.99231L12.375 3V7.36154Z" fill="#00A3FF"/>
</g>
</g>
<defs>
<clipPath id="clip0_6065_19706">
<rect width="24" height="24" fill="white"/>
</clipPath>
<clipPath id="clip1_6065_19706">
<rect width="12.75" height="18" fill="white" transform="translate(6 3)"/>
</clipPath>
</defs>
</svg>
