<svg width="16" height="16" viewBox="0 0 16 16" fill="none" xmlns="http://www.w3.org/2000/svg">
<path fill-rule="evenodd" clip-rule="evenodd" d="M10.5603 1.79134C10.3348 2.03417 10.3489 2.41381 10.5917 2.63929L12.2721 4.19961L5.39998 4.19961C5.0686 4.19961 4.79998 4.46824 4.79998 4.79961C4.79998 5.13098 5.0686 5.39961 5.39998 5.39961L12.2721 5.39961L10.5917 6.95994C10.3489 7.18542 10.3348 7.56506 10.5603 7.80788C10.7858 8.05071 11.1654 8.06477 11.4082 7.83929L14.2082 5.23929C14.3305 5.12576 14.4 4.96645 14.4 4.79961C14.4 4.63277 14.3305 4.47346 14.2082 4.35994L11.4082 1.75994C11.1654 1.53445 10.7858 1.54851 10.5603 1.79134ZM5.43965 8.19134C5.21417 7.94851 4.83453 7.93445 4.5917 8.15994L1.7917 10.7599C1.66945 10.8735 1.59998 11.0328 1.59998 11.1996C1.59998 11.3665 1.66945 11.5258 1.7917 11.6393L4.5917 14.2393C4.83453 14.4648 5.21417 14.4507 5.43965 14.2079C5.66513 13.9651 5.65107 13.5854 5.40825 13.3599L3.7279 11.7996H10.6C10.9313 11.7996 11.2 11.531 11.2 11.1996C11.2 10.8682 10.9313 10.5996 10.6 10.5996H3.7279L5.40825 9.03929C5.65107 8.81381 5.66513 8.43417 5.43965 8.19134Z" fill="#2A73FF"/>
</svg>
