<svg width="25" height="24" viewBox="0 0 25 24" fill="none" xmlns="http://www.w3.org/2000/svg">
<g clip-path="url(#clip0_6152_21478)">
<path fill-rule="evenodd" clip-rule="evenodd" d="M18.6998 22.7791C19.0218 23.0071 19.4368 23.0641 19.8068 22.9241C20.1768 22.7831 20.4488 22.4671 20.5308 22.0841C21.3998 18.0001 23.5078 7.66315 24.2988 3.94815C24.3588 3.66815 24.2588 3.37715 24.0388 3.19015C23.8188 3.00315 23.5138 2.94915 23.2418 3.05015C19.0488 4.60215 6.13583 9.44715 0.857828 11.4001C0.522828 11.5241 0.304828 11.8461 0.315828 12.1991C0.327828 12.5531 0.565828 12.8601 0.908828 12.9631C3.27583 13.6711 6.38283 14.6561 6.38283 14.6561C6.38283 14.6561 7.83483 19.0411 8.59183 21.2711C8.68683 21.5511 8.90583 21.7711 9.19483 21.8471C9.48283 21.9221 9.79083 21.8431 10.0058 21.6401C11.2218 20.4921 13.1018 18.7171 13.1018 18.7171C13.1018 18.7171 16.6738 21.3361 18.6998 22.7791ZM7.68983 14.1021L9.36883 19.6401L9.74183 16.1331C9.74183 16.1331 16.2288 10.2821 19.9268 6.94715C20.0348 6.84915 20.0498 6.68515 19.9598 6.57015C19.8708 6.45515 19.7068 6.42815 19.5838 6.50615C15.2978 9.24315 7.68983 14.1021 7.68983 14.1021Z" fill="black"/>
</g>
<defs>
<clipPath id="clip0_6152_21478">
<rect width="24" height="24" fill="white" transform="translate(0.31543)"/>
</clipPath>
</defs>
</svg>
