<svg width="25" height="24" viewBox="0 0 25 24" fill="none" xmlns="http://www.w3.org/2000/svg">
<g clip-path="url(#clip0_6152_21476)">
<path d="M24.4385 4.55705C23.5555 4.94905 22.6065 5.21305 21.6105 5.33205C22.6275 4.72305 23.4085 3.75805 23.7755 2.60805C22.8245 3.17205 21.7705 3.58205 20.6485 3.80305C19.7515 2.84605 18.4705 2.24805 17.0545 2.24805C13.8755 2.24805 11.5395 5.21405 12.2575 8.29305C8.16648 8.08805 4.53848 6.12805 2.10948 3.14905C0.819477 5.36205 1.44048 8.25705 3.63248 9.72305C2.82648 9.69705 2.06648 9.47605 1.40348 9.10705C1.34948 11.388 2.98448 13.522 5.35248 13.997C4.65948 14.185 3.90048 14.229 3.12848 14.081C3.75448 16.037 5.57248 17.46 7.72848 17.5C5.65848 19.123 3.05048 19.848 0.438477 19.54C2.61748 20.937 5.20648 21.752 7.98648 21.752C17.1285 21.752 22.2935 14.031 21.9815 7.10605C22.9435 6.41105 23.7785 5.54405 24.4385 4.55705Z" fill="white"/>
</g>
<defs>
<clipPath id="clip0_6152_21476">
<rect width="24" height="24" fill="white" transform="translate(0.438477)"/>
</clipPath>
</defs>
</svg>
