<svg width="25" height="25" viewBox="0 0 25 25" fill="none" xmlns="http://www.w3.org/2000/svg">
<path d="M12.5 24.4434C19.1274 24.4434 24.5 19.0708 24.5 12.4434C24.5 5.81594 19.1274 0.443359 12.5 0.443359C5.87258 0.443359 0.5 5.81594 0.5 12.4434C0.5 19.0708 5.87258 24.4434 12.5 24.4434Z" fill="#2775C9"/>
<path d="M12.3125 21.0684C7.445 21.0684 3.5 17.1234 3.5 12.2559C3.5 7.38836 7.445 3.44336 12.3125 3.44336C17.18 3.44336 21.125 7.38836 21.125 12.2559C21.125 14.5931 20.1965 16.8346 18.5439 18.4872C16.8912 20.1399 14.6497 21.0684 12.3125 21.0684ZM11.7875 8.98586C11.3053 9.00977 10.8495 9.21306 10.5095 9.55581C10.1696 9.89856 9.96999 10.356 9.95 10.8384C9.95 11.7459 10.505 12.3384 11.6825 12.5859L12.5075 12.7809C13.31 12.9684 13.64 13.2384 13.64 13.6959C13.64 14.1534 13.0625 14.6034 12.3125 14.6034C12.0461 14.6278 11.7782 14.5767 11.5395 14.456C11.3007 14.3353 11.1008 14.1499 10.9625 13.9209C10.9215 13.834 10.8569 13.7604 10.7759 13.7087C10.695 13.6569 10.6011 13.6291 10.505 13.6284H10.0625C10.0285 13.6347 9.99603 13.6476 9.96703 13.6665C9.93803 13.6854 9.91306 13.7099 9.89354 13.7384C9.87402 13.767 9.86035 13.7992 9.8533 13.833C9.84626 13.8669 9.84599 13.9019 9.8525 13.9359C9.96029 14.3758 10.2109 14.7675 10.5651 15.0498C10.9193 15.3321 11.3571 15.489 11.81 15.4959V16.1259C11.81 16.2661 11.8657 16.4006 11.9649 16.4997C12.064 16.5989 12.1985 16.6546 12.3387 16.6546C12.479 16.6546 12.6135 16.5989 12.7126 16.4997C12.8118 16.4006 12.8675 16.2661 12.8675 16.1259V15.4884C13.3796 15.4826 13.8692 15.2771 14.232 14.9156C14.5948 14.5542 14.8022 14.0654 14.81 13.5534C14.81 12.6009 14.2625 12.0534 12.965 11.7759L12.215 11.6109C11.465 11.4234 11.1125 11.1759 11.1125 10.7559C11.1125 10.3359 11.5625 9.87086 12.3125 9.87086C12.5487 9.84619 12.787 9.89042 12.9986 9.99823C13.2102 10.106 13.3861 10.2728 13.505 10.4784C13.5532 10.581 13.6295 10.6679 13.7251 10.729C13.8207 10.79 13.9316 10.8228 14.045 10.8234H14.3975C14.4776 10.8038 14.5469 10.7535 14.5904 10.6834C14.6339 10.6132 14.6481 10.5289 14.63 10.4484C14.5284 10.0422 14.3011 9.67848 13.9806 9.40912C13.66 9.13975 13.2626 8.9785 12.845 8.94836V8.43086C12.845 8.29063 12.7893 8.15614 12.6901 8.05698C12.591 7.95782 12.4565 7.90211 12.3162 7.90211C12.176 7.90211 12.0415 7.95782 11.9424 8.05698C11.8432 8.15614 11.7875 8.29063 11.7875 8.43086V8.98586ZM5.705 12.2559C5.70586 13.6374 6.14073 14.9838 6.94819 16.1048C7.75565 17.2258 8.89489 18.0648 10.205 18.5034H10.31C10.3995 18.5034 10.4854 18.4678 10.5486 18.4045C10.6119 18.3412 10.6475 18.2554 10.6475 18.1659V18.0084C10.6477 17.8687 10.6065 17.7322 10.5291 17.616C10.4517 17.4999 10.3415 17.4093 10.2125 17.3559C9.1922 16.944 8.31826 16.2367 7.70284 15.3246C7.08742 14.4126 6.75861 13.3374 6.75861 12.2371C6.75861 11.1368 7.08742 10.0617 7.70284 9.1496C8.31826 8.23753 9.1922 7.53019 10.2125 7.11836C10.3409 7.06621 10.4508 6.97702 10.5283 6.86214C10.6058 6.74726 10.6473 6.61192 10.6475 6.47336V6.30086C10.648 6.25021 10.6363 6.20019 10.6133 6.15505C10.5903 6.1099 10.5568 6.07095 10.5156 6.04151C10.4744 6.01207 10.4267 5.99301 10.3765 5.98593C10.3264 5.97885 10.2753 5.98397 10.2275 6.00086C8.91197 6.43593 7.76697 7.27444 6.95512 8.39729C6.14328 9.52015 5.70586 10.8703 5.705 12.2559ZM18.92 12.2559C18.9176 10.8756 18.482 9.5309 17.6746 8.41137C16.8673 7.29185 15.7289 6.45396 14.42 6.01586H14.3075C14.214 6.01586 14.1244 6.053 14.0582 6.1191C13.9921 6.18521 13.955 6.27487 13.955 6.36836V6.48086C13.958 6.62551 14.0028 6.7662 14.084 6.88597C14.1652 7.00573 14.2793 7.09946 14.4125 7.15586C15.4305 7.56889 16.302 8.27628 16.9157 9.18749C17.5293 10.0987 17.8571 11.1723 17.8571 12.2709C17.8571 13.3694 17.5293 14.443 16.9157 15.3542C16.302 16.2654 15.4305 16.9728 14.4125 17.3859C14.2818 17.4428 14.1701 17.5359 14.0904 17.6541C14.0107 17.7723 13.9663 17.9108 13.9625 18.0534V18.1809C13.9631 18.2365 13.9769 18.2911 14.0027 18.3404C14.0285 18.3896 14.0656 18.4321 14.111 18.4643C14.1563 18.4964 14.2086 18.5174 14.2636 18.5255C14.3187 18.5336 14.3748 18.5286 14.4275 18.5109C15.7374 18.0707 16.8759 17.23 17.682 16.1075C18.4882 14.9851 18.9212 13.6378 18.92 12.2559Z" fill="white"/>
</svg>
