
<svg width="50" height="50" viewBox="0 0 50 50" fill="none" xmlns="http://www.w3.org/2000/svg">
<path fill-rule="evenodd" clip-rule="evenodd" d="M25 0C38.8071 0 50 11.1929 50 25C50 38.8071 38.8071 50 25 50C11.1929 50 0 38.8071 0 25C0 11.1929 11.1929 0 25 0Z" fill="url(#paint0_radial_4236_34307)"/>
<path d="M15.8879 19.3075C20.9204 14.3975 29.0797 14.3975 34.1122 19.3075L34.7178 19.8984C34.9695 20.1439 34.9695 20.542 34.7178 20.7875L32.646 22.8089C32.5201 22.9317 32.3162 22.9317 32.1904 22.8089L31.3569 21.9957C27.8461 18.5704 22.154 18.5704 18.6432 21.9957L17.7506 22.8666C17.6248 22.9893 17.4208 22.9893 17.295 22.8666L15.2231 20.8451C14.9715 20.5996 14.9715 20.2016 15.2231 19.9561L15.8879 19.3075ZM38.397 23.4881L40.241 25.2872C40.4926 25.5327 40.4926 25.9307 40.241 26.1762L31.9264 34.2885C31.6747 34.534 31.2668 34.534 31.0152 34.2885C31.0152 34.2885 31.0152 34.2885 31.0152 34.2885L25.114 28.531C25.0511 28.4696 24.9491 28.4696 24.8862 28.531C24.8862 28.531 24.8862 28.531 24.8862 28.531L18.9851 34.2885C18.7335 34.534 18.3255 34.534 18.0739 34.2885C18.0739 34.2885 18.0739 34.2885 18.0739 34.2885L9.75903 26.1761C9.50741 25.9306 9.50741 25.5325 9.75903 25.287L11.603 23.488C11.8546 23.2425 12.2626 23.2425 12.5142 23.488L18.4155 29.2456C18.4784 29.307 18.5804 29.307 18.6433 29.2456C18.6433 29.2456 18.6433 29.2456 18.6433 29.2456L24.5443 23.488C24.7959 23.2425 25.2039 23.2424 25.4555 23.4879C25.4555 23.4879 25.4555 23.4879 25.4555 23.4879L31.3568 29.2456C31.4197 29.307 31.5217 29.307 31.5846 29.2456L37.4858 23.4881C37.7374 23.2426 38.1454 23.2426 38.397 23.4881Z" fill="white"/>
<defs>
<radialGradient id="paint0_radial_4236_34307" cx="0" cy="0" r="1" gradientUnits="userSpaceOnUse" gradientTransform="translate(0 25) scale(50)">
<stop stop-color="#5D9DF6"/>
<stop offset="1" stop-color="#006FFF"/>
</radialGradient>
</defs>
</svg>
