<svg width="32" height="33" viewBox="0 0 32 33" fill="none" xmlns="http://www.w3.org/2000/svg">
<g clip-path="url(#clip0_8432_136517)">
<path d="M16 32.6758C24.8366 32.6758 32 25.5123 32 16.6758C32 7.83922 24.8366 0.675781 16 0.675781C7.16344 0.675781 0 7.83922 0 16.6758C0 25.5123 7.16344 32.6758 16 32.6758Z" fill="white"/>
<g clip-path="url(#clip1_8432_136517)">
<path d="M26.0925 7.71581L25.2139 8.59445C27.3104 10.8872 28.4731 13.8816 28.4731 16.9884C28.4731 20.0952 27.3104 23.0895 25.2139 25.3823L26.0925 26.2609C28.4241 23.7319 29.7186 20.418 29.7186 16.9781C29.7186 13.5383 28.4241 10.2244 26.0925 7.69531V7.71581Z" fill="#5A5564"/>
<path d="M7.61496 7.7938C9.90771 5.69723 12.9021 4.53457 16.0089 4.53457C19.1157 4.53457 22.1101 5.69723 24.4028 7.7938L25.2814 6.91516C22.7524 4.58355 19.4385 3.28906 15.9986 3.28906C12.5588 3.28906 9.24489 4.58355 6.71582 6.91516L7.61496 7.7938Z" fill="#5A5564"/>
<path d="M6.79185 25.3921C4.69776 23.0998 3.53663 20.1073 3.53663 17.0025C3.53663 13.8978 4.69776 10.9053 6.79185 8.61301L5.91321 7.73438C3.5816 10.2634 2.28711 13.5773 2.28711 17.0172C2.28711 20.457 3.5816 23.7709 5.91321 26.3L6.79185 25.3921Z" fill="#5A5564"/>
<path d="M24.3911 26.2031C22.0983 28.2997 19.104 29.4624 15.9972 29.4624C12.8903 29.4624 9.896 28.2997 7.60325 26.2031L6.72461 27.0818C9.25368 29.4134 12.5676 30.7079 16.0074 30.7079C19.4473 30.7079 22.7612 29.4134 25.2902 27.0818L24.3911 26.2031Z" fill="#5A5564"/>
<path d="M21.5474 14.0668C21.3716 12.2334 19.7901 11.6183 17.7897 11.4309V8.90625H16.2433V11.384C15.8362 11.384 15.4203 11.384 15.0074 11.384V8.90625H13.4727V11.4484H10.3359V13.1032C10.3359 13.1032 11.4782 13.0827 11.4606 13.1032C11.6665 13.0806 11.8733 13.1387 12.0372 13.2655C12.2011 13.3922 12.3094 13.5777 12.3392 13.7827V20.7415C12.3348 20.8138 12.316 20.8845 12.2838 20.9494C12.2516 21.0143 12.2067 21.0721 12.1518 21.1193C12.0979 21.1675 12.0348 21.2042 11.9664 21.2274C11.8979 21.2505 11.8255 21.2596 11.7535 21.254C11.774 21.2716 10.6288 21.254 10.6288 21.254L10.3359 23.1021H13.4434V25.6853H14.9898V23.1402H16.2257V25.6736H17.7751V23.1197C20.3876 22.9615 22.2093 22.3172 22.4377 19.8717C22.6222 17.9035 21.6967 17.0249 20.2177 16.6705C21.1168 16.2282 21.6733 15.4082 21.5474 14.0668ZM19.3801 19.5671C19.3801 21.4883 16.0881 21.2687 15.0396 21.2687V17.8596C16.0881 17.8625 19.3801 17.5608 19.3801 19.5671ZM18.6625 14.7638C18.6625 16.5211 15.9153 16.3073 15.0425 16.3073V13.2086C15.9153 13.2086 18.6625 12.9333 18.6625 14.7638Z" fill="#F09242"/>
<path d="M15.9971 33C12.8328 32.9994 9.73979 32.0606 7.10906 30.3023C4.47832 28.544 2.42801 26.0451 1.21737 23.1216C0.00673518 20.1981 -0.309871 16.9813 0.307586 13.8778C0.925043 10.7744 2.44883 7.92376 4.6863 5.6863C6.92376 3.44883 9.77442 1.92504 12.8778 1.30759C15.9813 0.690129 19.1981 1.00674 22.1216 2.21737C25.0451 3.42801 27.544 5.47832 29.3023 8.10906C31.0606 10.7398 31.9994 13.8328 32 16.9971C32.0004 19.0987 31.5867 21.1799 30.7826 23.1216C29.9786 25.0633 28.7998 26.8276 27.3137 28.3137C25.8276 29.7998 24.0633 30.9786 22.1216 31.7826C20.1799 32.5867 18.0987 33.0004 15.9971 33ZM15.9971 2.24767C13.0818 2.24999 10.2327 3.1165 7.80981 4.7377C5.38691 6.35889 3.49901 8.66198 2.38473 11.3559C1.27045 14.0498 0.97981 17.0135 1.54954 19.8726C2.11927 22.7316 3.5238 25.3576 5.5856 27.4185C7.6474 29.4795 10.2739 30.883 13.1332 31.4516C15.9924 32.0202 18.9561 31.7284 21.6495 30.613C24.343 29.4977 26.6453 27.6089 28.2656 25.1853C29.8858 22.7618 30.7512 19.9123 30.7523 16.9971C30.7531 15.0594 30.3719 13.1407 29.6306 11.3505C28.8893 9.56025 27.8024 7.93372 26.432 6.56388C25.0616 5.19404 23.4346 4.10776 21.6441 3.36715C19.8536 2.62654 17.9347 2.24613 15.9971 2.24767Z" fill="#282138"/>
</g>
</g>
<defs>
<clipPath id="clip0_8432_136517">
<rect width="32" height="33" fill="white"/>
</clipPath>
<clipPath id="clip1_8432_136517">
<rect width="32" height="32" fill="white" transform="translate(0 1)"/>
</clipPath>
</defs>
</svg>
