<svg width="150" height="130" viewBox="0 0 150 130" fill="none" xmlns="http://www.w3.org/2000/svg">
<path d="M117.381 128.567H20.4412C6.15996 128.567 -2.92555 113.139 3.93721 100.51L52.4211 11.2721C59.5617 -1.86023 78.2884 -1.86023 85.4012 11.2721L123.521 81.3859L133.913 100.51C140.748 113.139 131.69 128.567 117.381 128.567Z" fill="#FCD400"/>
<path d="M87.4531 121.34H113.193C125.937 121.34 132.043 105.688 122.666 97.0576V97.0576" stroke="#E2B420" stroke-width="3" stroke-linecap="round"/>
<path d="M77.6094 121.342L80.3281 121.342" stroke="#E2B420" stroke-width="3" stroke-linecap="round"/>
<path d="M29.4531 71.0537L12.0273 102.25" stroke="#E2B420" stroke-width="3" stroke-linecap="round"/>
<g style="mix-blend-mode:multiply">
<path fill-rule="evenodd" clip-rule="evenodd" d="M64.4824 83.5565C65.6844 84.6951 67.271 85.3306 68.9207 85.3343C70.5704 85.3306 72.157 84.6951 73.3591 83.5565C74.5611 82.4178 75.2888 80.8613 75.3945 79.2022L77.5895 43.9492C77.665 42.7545 77.497 41.5569 77.0957 40.4301C76.6943 39.3033 76.0683 38.2713 75.2561 37.3977C74.4439 36.5241 73.4628 35.8274 72.3732 35.3505C71.2836 34.8737 70.1086 34.6267 68.9207 34.625C67.7328 34.6267 66.5579 34.8737 65.4683 35.3505C64.3787 35.8274 63.3976 36.5241 62.5854 37.3977C61.7732 38.2713 61.1471 39.3033 60.7458 40.4301C60.3445 41.5569 60.1764 42.7545 60.252 43.9492L62.447 79.2022C62.5527 80.8613 63.2803 82.4178 64.4824 83.5565ZM64.5082 106.133C65.8149 107.013 67.3513 107.482 68.9229 107.482C69.9665 107.482 70.9999 107.275 71.9641 106.873C72.9283 106.471 73.8044 105.881 74.5423 105.137C75.2803 104.394 75.8656 103.511 76.2648 102.539C76.6641 101.567 76.8695 100.526 76.8693 99.474C76.8693 97.8902 76.4032 96.3419 75.5301 95.0249C74.6569 93.708 73.4159 92.6815 71.9639 92.0754C70.5119 91.4693 68.9141 91.3107 67.3727 91.6197C65.8312 91.9287 64.4153 92.6914 63.304 93.8114C62.1927 94.9313 61.4359 96.3583 61.1293 97.9117C60.8226 99.4651 60.98 101.075 61.5814 102.539C62.1829 104.002 63.2014 105.253 64.5082 106.133Z" fill="black"/>
</g>
</svg>
